<svg width="1440" height="649" viewBox="0 0 1440 649" fill="none" xmlns="http://www.w3.org/2000/svg">
<path d="M9.80273 82.6299H104.451V0H105.951V82.6299H200.6V0H202.1V82.6299H296.748V0H298.248V82.6299H392.896V0H394.396V82.6299H527.303V0H528.803V82.6299H623.451V0H624.951V82.6299H719.6V0H721.1V82.6299H815.748V0H817.248V82.6299H911.896V0H913.396V82.6299H1046.3V0H1047.8V82.6299H1142.45V0H1143.95V82.6299H1238.6V0H1240.1V82.6299H1334.75V0H1336.25V82.6299H1430.9V0H1432.4V82.6299H1498.2V84.1299H1432.4V178.777H1498.2V180.277H1432.4V274.926H1498.2V276.426H1432.4V371.074H1498.2V372.574H1432.4V467.223H1498.2V468.723H1432.4V563.37H1498.2V564.87H1432.4V649H1430.9V564.87H1336.25V649H1334.75V564.87H1240.1V649H1238.6V564.87H1143.95V649H1142.45V564.87H1047.8V649H1046.3V564.87H913.396V649H911.896V564.87H817.248V649H815.748V564.87H721.1V649H719.6V564.87H624.951V649H623.451V564.87H528.803V649H527.303V564.87H394.396V649H392.896V564.87H298.248V649H296.748V564.87H202.1V649H200.6V564.87H105.951V649H104.451V564.87H9.80273V649H8.30273V564.87H-59V563.37H8.30273V468.723H-59V467.223H8.30273V372.574H-59V371.074H8.30273V276.426H-59V274.926H8.30273V180.277H-59V178.777H8.30273V84.1299H-59V82.6299H8.30273V0H9.80273V82.6299ZM1336.25 468.723V563.37H1430.9V468.723H1336.25ZM9.80273 563.37H104.451V468.723H9.80273V563.37ZM105.951 563.37H200.6V468.723H105.951V563.37ZM202.1 563.37H296.748V468.723H202.1V563.37ZM298.248 563.37H392.896V468.723H298.248V563.37ZM394.396 563.37H527.303V468.723H394.396V563.37ZM528.803 563.37H623.451V468.723H528.803V563.37ZM624.951 563.37H719.6V468.723H624.951V563.37ZM721.1 563.37H815.748V468.723H721.1V563.37ZM817.248 563.37H911.896V468.723H817.248V563.37ZM913.396 563.37H1046.3V468.723H913.396V563.37ZM1047.8 563.37H1142.45V468.723H1047.8V563.37ZM1143.95 563.37H1238.6V468.723H1143.95V563.37ZM1240.1 563.37H1334.75V468.723H1240.1V563.37ZM1336.25 372.574V467.223H1430.9V372.574H1336.25ZM9.80273 467.223H104.451V372.574H9.80273V467.223ZM105.951 467.223H200.6V372.574H105.951V467.223ZM202.1 467.223H296.748V372.574H202.1V467.223ZM298.248 467.223H392.896V372.574H298.248V467.223ZM394.396 467.223H527.303V372.574H394.396V467.223ZM528.803 467.223H623.451V372.574H528.803V467.223ZM624.951 467.223H719.6V372.574H624.951V467.223ZM721.1 467.223H815.748V372.574H721.1V467.223ZM817.248 467.223H911.896V372.574H817.248V467.223ZM913.396 467.223H1046.3V372.574H913.396V467.223ZM1047.8 467.223H1142.45V372.574H1047.8V467.223ZM1143.95 467.223H1238.6V372.574H1143.95V467.223ZM1240.1 467.223H1334.75V372.574H1240.1V467.223ZM1336.25 276.426V371.074H1430.9V276.426H1336.25ZM9.80273 371.074H104.451V276.426H9.80273V371.074ZM105.951 371.074H200.6V276.426H105.951V371.074ZM202.1 371.074H296.748V276.426H202.1V371.074ZM298.248 371.074H392.896V276.426H298.248V371.074ZM394.396 371.074H527.303V276.426H394.396V371.074ZM528.803 371.074H623.451V276.426H528.803V371.074ZM624.951 371.074H719.6V276.426H624.951V371.074ZM721.1 371.074H815.748V276.426H721.1V371.074ZM817.248 371.074H911.896V276.426H817.248V371.074ZM913.396 371.074H1046.3V276.426H913.396V371.074ZM1047.8 371.074H1142.45V276.426H1047.8V371.074ZM1143.95 371.074H1238.6V276.426H1143.95V371.074ZM1240.1 371.074H1334.75V276.426H1240.1V371.074ZM1336.25 180.277V274.926H1430.9V180.277H1336.25ZM9.80273 274.926H104.451V180.277H9.80273V274.926ZM105.951 274.926H200.6V180.277H105.951V274.926ZM202.1 274.926H296.748V180.277H202.1V274.926ZM298.248 274.926H392.896V180.277H298.248V274.926ZM394.396 274.926H527.303V180.277H394.396V274.926ZM528.803 274.926H623.451V180.277H528.803V274.926ZM624.951 274.926H719.6V180.277H624.951V274.926ZM721.1 274.926H815.748V180.277H721.1V274.926ZM817.248 274.926H911.896V180.277H817.248V274.926ZM913.396 274.926H1046.3V180.277H913.396V274.926ZM1047.8 274.926H1142.45V180.277H1047.8V274.926ZM1143.95 274.926H1238.6V180.277H1143.95V274.926ZM1240.1 274.926H1334.75V180.277H1240.1V274.926ZM1336.25 84.1299V178.777H1430.9V84.1299H1336.25ZM9.80273 178.777H104.451V84.1299H9.80273V178.777ZM105.951 178.777H200.6V84.1299H105.951V178.777ZM202.1 178.777H296.748V84.1299H202.1V178.777ZM298.248 178.777H392.896V84.1299H298.248V178.777ZM394.396 178.777H527.303V84.1299H394.396V178.777ZM528.803 178.777H623.451V84.1299H528.803V178.777ZM624.951 178.777H719.6V84.1299H624.951V178.777ZM721.1 178.777H815.748V84.1299H721.1V178.777ZM817.248 178.777H911.896V84.1299H817.248V178.777ZM913.396 178.777H1046.3V84.1299H913.396V178.777ZM1047.8 178.777H1142.45V84.1299H1047.8V178.777ZM1143.95 178.777H1238.6V84.1299H1143.95V178.777ZM1240.1 178.777H1334.75V84.1299H1240.1V178.777Z" fill="url(#paint0_radial_8_777)" fill-opacity="0.2"/>
<defs>
<radialGradient id="paint0_radial_8_777" cx="0" cy="0" r="1" gradientUnits="userSpaceOnUse" gradientTransform="translate(719.6 324.5) rotate(89.9208) scale(289.5 668.911)">
<stop stop-color="#16A34A"/>
<stop offset="1" stop-color="#08441E"/>
</radialGradient>
</defs>
</svg>
