<svg width="103" height="28" viewBox="0 0 103 28" fill="none" xmlns="http://www.w3.org/2000/svg">
<path d="M0 0H103V28H0L10 14L0 0Z" fill="white" fill-opacity="0.24"/>
<path d="M21.0568 9.27273H22.3182L25.2841 16.517H25.3864L28.3523 9.27273H29.6136V18H28.625V11.3693H28.5398L25.8125 18H24.858L22.1307 11.3693H22.0455V18H21.0568V9.27273ZM34.2553 18.1364C33.6644 18.1364 33.146 17.9957 32.6999 17.7145C32.2567 17.4332 31.9102 17.0398 31.6602 16.5341C31.413 16.0284 31.2894 15.4375 31.2894 14.7614C31.2894 14.0795 31.413 13.4844 31.6602 12.9759C31.9102 12.4673 32.2567 12.0724 32.6999 11.7912C33.146 11.5099 33.6644 11.3693 34.2553 11.3693C34.8462 11.3693 35.3633 11.5099 35.8065 11.7912C36.2525 12.0724 36.5991 12.4673 36.8462 12.9759C37.0962 13.4844 37.2212 14.0795 37.2212 14.7614C37.2212 15.4375 37.0962 16.0284 36.8462 16.5341C36.5991 17.0398 36.2525 17.4332 35.8065 17.7145C35.3633 17.9957 34.8462 18.1364 34.2553 18.1364ZM34.2553 17.233C34.7042 17.233 35.0735 17.1179 35.3633 16.8878C35.6531 16.6577 35.8675 16.3551 36.0067 15.9801C36.146 15.6051 36.2156 15.1989 36.2156 14.7614C36.2156 14.3239 36.146 13.9162 36.0067 13.5384C35.8675 13.1605 35.6531 12.8551 35.3633 12.6222C35.0735 12.3892 34.7042 12.2727 34.2553 12.2727C33.8065 12.2727 33.4371 12.3892 33.1474 12.6222C32.8576 12.8551 32.6431 13.1605 32.5039 13.5384C32.3647 13.9162 32.2951 14.3239 32.2951 14.7614C32.2951 15.1989 32.3647 15.6051 32.5039 15.9801C32.6431 16.3551 32.8576 16.6577 33.1474 16.8878C33.4371 17.1179 33.8065 17.233 34.2553 17.233ZM43.3928 12.9205L42.4893 13.1761C42.4325 13.0256 42.3487 12.8793 42.2379 12.7372C42.13 12.5923 41.9822 12.473 41.7947 12.3793C41.6072 12.2855 41.3672 12.2386 41.0746 12.2386C40.674 12.2386 40.3402 12.331 40.0732 12.5156C39.8089 12.6974 39.6768 12.929 39.6768 13.2102C39.6768 13.4602 39.7678 13.6577 39.9496 13.8026C40.1314 13.9474 40.4155 14.0682 40.8018 14.1648L41.7734 14.4034C42.3587 14.5455 42.7947 14.7628 43.0817 15.0554C43.3686 15.3452 43.5121 15.7187 43.5121 16.1761C43.5121 16.5511 43.4041 16.8864 43.1882 17.1818C42.9751 17.4773 42.6768 17.7102 42.2933 17.8807C41.9098 18.0511 41.4638 18.1364 40.9553 18.1364C40.2876 18.1364 39.7351 17.9915 39.2976 17.7017C38.8601 17.4119 38.5831 16.9886 38.4666 16.4318L39.4212 16.1932C39.5121 16.5455 39.6839 16.8097 39.9368 16.9858C40.1925 17.1619 40.5263 17.25 40.9382 17.25C41.407 17.25 41.7791 17.1506 42.0547 16.9517C42.3331 16.75 42.4723 16.5085 42.4723 16.2273C42.4723 16 42.3928 15.8097 42.2337 15.6562C42.0746 15.5 41.8303 15.3835 41.5007 15.3068L40.4098 15.0511C39.8104 14.9091 39.37 14.6889 39.0888 14.3906C38.8104 14.0895 38.6712 13.7131 38.6712 13.2614C38.6712 12.892 38.7749 12.5653 38.9822 12.2812C39.1925 11.9972 39.478 11.7741 39.8388 11.6122C40.2024 11.4503 40.6143 11.3693 41.0746 11.3693C41.7223 11.3693 42.2308 11.5114 42.6001 11.7955C42.9723 12.0795 43.2365 12.4545 43.3928 12.9205ZM47.8725 11.4545V12.3068H44.4805V11.4545H47.8725ZM45.4691 9.88636H46.4748V16.125C46.4748 16.4091 46.516 16.6222 46.5984 16.7642C46.6836 16.9034 46.7915 16.9972 46.9222 17.0455C47.0558 17.0909 47.1964 17.1136 47.3441 17.1136C47.4549 17.1136 47.5458 17.108 47.6168 17.0966C47.6879 17.0824 47.7447 17.071 47.7873 17.0625L47.9918 17.9659C47.9237 17.9915 47.8285 18.017 47.7063 18.0426C47.5842 18.071 47.4293 18.0852 47.2418 18.0852C46.9577 18.0852 46.6793 18.0241 46.4066 17.902C46.1367 17.7798 45.9123 17.5938 45.7333 17.3438C45.5572 17.0938 45.4691 16.7784 45.4691 16.3977V9.88636ZM52.8967 18V9.27273H55.8455C56.5302 9.27273 57.0898 9.39631 57.5245 9.64347C57.962 9.88778 58.2859 10.2188 58.4961 10.6364C58.7063 11.054 58.8114 11.5199 58.8114 12.0341C58.8114 12.5483 58.7063 13.0156 58.4961 13.4361C58.2887 13.8565 57.9677 14.1918 57.533 14.4418C57.0984 14.6889 56.5415 14.8125 55.8626 14.8125H53.7489V13.875H55.8285C56.2972 13.875 56.6737 13.794 56.9577 13.6321C57.2418 13.4702 57.4478 13.2514 57.5756 12.9759C57.7063 12.6974 57.7717 12.3835 57.7717 12.0341C57.7717 11.6847 57.7063 11.3722 57.5756 11.0966C57.4478 10.821 57.2404 10.6051 56.9535 10.4489C56.6665 10.2898 56.2859 10.2102 55.8114 10.2102H53.9535V18H52.8967ZM62.9663 18.1364C62.3754 18.1364 61.8569 17.9957 61.4109 17.7145C60.9677 17.4332 60.6211 17.0398 60.3711 16.5341C60.1239 16.0284 60.0004 15.4375 60.0004 14.7614C60.0004 14.0795 60.1239 13.4844 60.3711 12.9759C60.6211 12.4673 60.9677 12.0724 61.4109 11.7912C61.8569 11.5099 62.3754 11.3693 62.9663 11.3693C63.5572 11.3693 64.0742 11.5099 64.5174 11.7912C64.9634 12.0724 65.31 12.4673 65.5572 12.9759C65.8072 13.4844 65.9322 14.0795 65.9322 14.7614C65.9322 15.4375 65.8072 16.0284 65.5572 16.5341C65.31 17.0398 64.9634 17.4332 64.5174 17.7145C64.0742 17.9957 63.5572 18.1364 62.9663 18.1364ZM62.9663 17.233C63.4151 17.233 63.7844 17.1179 64.0742 16.8878C64.364 16.6577 64.5785 16.3551 64.7177 15.9801C64.8569 15.6051 64.9265 15.1989 64.9265 14.7614C64.9265 14.3239 64.8569 13.9162 64.7177 13.5384C64.5785 13.1605 64.364 12.8551 64.0742 12.6222C63.7844 12.3892 63.4151 12.2727 62.9663 12.2727C62.5174 12.2727 62.1481 12.3892 61.8583 12.6222C61.5685 12.8551 61.354 13.1605 61.2148 13.5384C61.0756 13.9162 61.006 14.3239 61.006 14.7614C61.006 15.1989 61.0756 15.6051 61.2148 15.9801C61.354 16.3551 61.5685 16.6577 61.8583 16.8878C62.1481 17.1179 62.5174 17.233 62.9663 17.233ZM67.4673 20.4545V11.4545H68.4389V12.4943H68.5582C68.6321 12.3807 68.7344 12.2358 68.8651 12.0597C68.9986 11.8807 69.1889 11.7216 69.4361 11.5824C69.6861 11.4403 70.0241 11.3693 70.4503 11.3693C71.0014 11.3693 71.4872 11.5071 71.9077 11.7827C72.3281 12.0582 72.6563 12.4489 72.892 12.9545C73.1278 13.4602 73.2457 14.0568 73.2457 14.7443C73.2457 15.4375 73.1278 16.0384 72.892 16.5469C72.6563 17.0526 72.3295 17.4446 71.9119 17.723C71.4943 17.9986 71.0128 18.1364 70.4673 18.1364C70.0469 18.1364 69.7102 18.0668 69.4574 17.9276C69.2045 17.7855 69.0099 17.625 68.8736 17.446C68.7372 17.2642 68.6321 17.1136 68.5582 16.9943H68.473V20.4545H67.4673ZM68.456 14.7273C68.456 15.2216 68.5284 15.6577 68.6733 16.0355C68.8182 16.4105 69.0298 16.7045 69.3082 16.9176C69.5866 17.1278 69.9276 17.233 70.331 17.233C70.7514 17.233 71.1023 17.1222 71.3835 16.9006C71.6676 16.6761 71.8807 16.375 72.0227 15.9972C72.1676 15.6165 72.2401 15.1932 72.2401 14.7273C72.2401 14.267 72.169 13.8523 72.027 13.483C71.8878 13.1108 71.6761 12.8168 71.392 12.6009C71.1108 12.3821 70.7571 12.2727 70.331 12.2727C69.9219 12.2727 69.5781 12.3764 69.2997 12.5838C69.0213 12.7884 68.8111 13.0753 68.669 13.4446C68.527 13.8111 68.456 14.2386 68.456 14.7273ZM78.9048 15.3239V11.4545H79.9105V18H78.9048V16.892H78.8366C78.6832 17.2244 78.4446 17.5071 78.1207 17.7401C77.7969 17.9702 77.3878 18.0852 76.8935 18.0852C76.4844 18.0852 76.1207 17.9957 75.8026 17.8168C75.4844 17.6349 75.2344 17.3622 75.0526 16.9986C74.8707 16.6321 74.7798 16.1705 74.7798 15.6136V11.4545H75.7855V15.5455C75.7855 16.0227 75.919 16.4034 76.1861 16.6875C76.456 16.9716 76.7997 17.1136 77.2173 17.1136C77.4673 17.1136 77.7216 17.0497 77.9801 16.9219C78.2415 16.794 78.4602 16.598 78.6364 16.3338C78.8153 16.0696 78.9048 15.733 78.9048 15.3239ZM82.7582 9.27273V18H81.7525V9.27273H82.7582ZM86.5263 18.1534C86.1115 18.1534 85.7351 18.0753 85.397 17.919C85.0589 17.7599 84.7905 17.5312 84.5916 17.233C84.3928 16.9318 84.2933 16.5682 84.2933 16.142C84.2933 15.767 84.3672 15.4631 84.5149 15.2301C84.6626 14.9943 84.8601 14.8097 85.1072 14.6761C85.3544 14.5426 85.6271 14.4432 85.9254 14.3778C86.2266 14.3097 86.5291 14.2557 86.8331 14.2159C87.2308 14.1648 87.5533 14.1264 87.8004 14.1009C88.0504 14.0724 88.2322 14.0256 88.3459 13.9602C88.4624 13.8949 88.5206 13.7812 88.5206 13.6193V13.5852C88.5206 13.1648 88.4055 12.8381 88.1754 12.6051C87.9482 12.3722 87.603 12.2557 87.1399 12.2557C86.6598 12.2557 86.2834 12.3608 86.0107 12.571C85.7379 12.7812 85.5462 13.0057 85.4354 13.2443L84.4808 12.9034C84.6513 12.5057 84.8786 12.196 85.1626 11.9744C85.4496 11.75 85.7621 11.5937 86.1001 11.5057C86.4411 11.4148 86.7763 11.3693 87.1058 11.3693C87.3161 11.3693 87.5575 11.3949 87.8303 11.446C88.1058 11.4943 88.3714 11.5952 88.6271 11.7486C88.8857 11.902 89.1001 12.1335 89.2706 12.4432C89.4411 12.7528 89.5263 13.1676 89.5263 13.6875V18H88.5206V17.1136H88.4695C88.4013 17.2557 88.2876 17.4077 88.1286 17.5696C87.9695 17.7315 87.7578 17.8693 87.4936 17.983C87.2294 18.0966 86.907 18.1534 86.5263 18.1534ZM86.6797 17.25C87.0774 17.25 87.4126 17.1719 87.6854 17.0156C87.9609 16.8594 88.1683 16.6577 88.3075 16.4105C88.4496 16.1634 88.5206 15.9034 88.5206 15.6307V14.7102C88.478 14.7614 88.3842 14.8082 88.2393 14.8509C88.0973 14.8906 87.9325 14.9261 87.745 14.9574C87.5604 14.9858 87.38 15.0114 87.2038 15.0341C87.0305 15.054 86.8899 15.071 86.782 15.0852C86.5206 15.1193 86.2763 15.1747 86.049 15.2514C85.8246 15.3253 85.6428 15.4375 85.5036 15.5881C85.3672 15.7358 85.299 15.9375 85.299 16.1932C85.299 16.5426 85.4283 16.8068 85.6868 16.9858C85.9482 17.1619 86.2791 17.25 86.6797 17.25ZM91.3619 18V11.4545H92.3335V12.4432H92.4016C92.521 12.1193 92.7369 11.8565 93.0494 11.6548C93.3619 11.4531 93.7141 11.3523 94.1062 11.3523C94.18 11.3523 94.2724 11.3537 94.3832 11.3565C94.494 11.3594 94.5778 11.3636 94.6346 11.3693V12.392C94.6005 12.3835 94.5224 12.3707 94.4002 12.3537C94.2809 12.3338 94.1545 12.3239 94.021 12.3239C93.7028 12.3239 93.4187 12.3906 93.1687 12.5241C92.9215 12.6548 92.7255 12.8366 92.5806 13.0696C92.4386 13.2997 92.3675 13.5625 92.3675 13.858V18H91.3619Z" fill="#E3E3E3"/>
</svg>
