<svg width="124" height="26" viewBox="0 0 124 26" fill="none" xmlns="http://www.w3.org/2000/svg">
<path d="M26.4502 9.83657C26.4502 11.9239 24.3474 13.6157 21.7531 13.6157H8.27073C7.55423 13.6157 6.97351 13.1512 6.97351 12.578V7.09664C6.97351 6.52351 7.55423 6.05886 8.27073 6.05886H21.7531C24.3474 6.05886 26.4502 7.75078 26.4502 9.8381V9.83657ZM30.3533 3.14499C28.2678 1.46705 25.3862 0.428062 22.2041 0.428062H1.29722C0.580809 0.428062 0 0.892674 0 1.46587V22.514C0 23.3937 1.28226 23.8744 2.12727 23.3115L8.27419 19.217C8.50734 19.0618 8.80103 18.9768 9.10432 18.9768H22.2041C28.5685 18.9768 33.7301 14.8238 33.7301 9.70166C33.7301 7.14133 32.4388 4.82294 30.3533 3.14499Z" fill="white"/>
<path d="M106.998 4.95911e-05C97.7934 4.95911e-05 90.3301 5.7301 90.3301 12.8C90.3301 19.87 97.7934 25.6 106.998 25.6C116.204 25.6 123.667 19.87 123.667 12.8C123.667 5.7301 116.204 4.95911e-05 106.998 4.95911e-05ZM106.998 19.7273C102.502 19.7273 98.8554 16.6258 98.8554 12.8C98.8554 8.97432 102.5 5.87282 106.998 5.87282C111.497 5.87282 115.142 8.97432 115.142 12.8C115.142 16.6258 111.497 19.7273 106.998 19.7273Z" fill="white"/>
<path d="M57.9081 8.29279C59.4843 9.68376 60.275 11.5924 60.275 14.0221V23.6892C60.275 24.2624 59.6942 24.727 58.9778 24.727H54.3674C53.651 24.727 53.0702 24.2624 53.0702 23.6892V15.4178C53.0702 14.1927 52.6751 13.239 51.8868 12.5612C51.0965 11.8836 50.0364 11.5439 48.7026 11.5439C47.3688 11.5439 46.3088 11.8836 45.5185 12.5612C44.7283 13.2405 44.3351 14.1927 44.3351 15.4178V23.6892C44.3351 24.2624 43.7543 24.727 43.0379 24.727H38.3871C37.6707 24.727 37.0898 24.2624 37.0898 23.6892V1.46582C37.0898 0.89269 37.6707 0.428078 38.3871 0.428078H43.0379C43.7543 0.428078 44.3351 0.89269 44.3351 1.46589V5.42293C44.3351 6.21939 45.4241 6.73143 46.3638 6.46838C47.0607 6.27335 47.6717 6.16044 48.1514 6.09146C48.9725 5.97205 52.9315 5.51149 56.1522 7.13201C57.1302 7.62461 57.7396 8.14481 57.9081 8.29279Z" fill="white"/>
<path d="M86.7474 12.5783V11.4326C86.7474 10.8595 86.1671 10.3948 85.4501 10.3948H74.6375C72.3728 10.3948 70.5379 8.91849 70.5379 7.09636V1.03783C70.5379 0.464676 69.9571 4.95911e-05 69.2407 4.95911e-05H63.6859C62.9695 4.95911e-05 62.3887 0.464676 62.3887 1.03783V8.05319C62.3887 13.7941 68.1729 17.1655 75.3083 17.1655H76.7692C77.4856 17.1655 78.0664 17.6301 78.0664 18.2033V24.5608C78.0664 25.1339 78.651 25.6067 79.3593 25.5216C83.5415 25.0193 86.7474 22.1173 86.7474 18.6139V12.5767V12.5783Z" fill="white"/>
<path fill-rule="evenodd" clip-rule="evenodd" d="M85.4521 0.428078C86.169 0.428078 86.7493 0.892677 86.7493 1.46587V4.87711C86.7493 5.80212 85.3509 6.2649 84.5345 5.6102L80.2779 2.19903C79.4624 1.54495 80.041 0.428078 81.1964 0.428078H85.4521Z" fill="#45B289"/>
</svg>
