<svg width="235" height="256" viewBox="0 0 235 256" fill="none" xmlns="http://www.w3.org/2000/svg">
<path fill-rule="evenodd" clip-rule="evenodd" d="M357.882 157.586C347.86 122.805 363.647 75.6317 333.673 54.4633C303.381 33.0702 260.334 70.0595 223.506 62.687C176.275 53.2319 133.322 -22.6212 95.0756 6.69925C54.5769 37.7465 126.074 105.027 107.457 151.653C89.7511 196 -4.46523 197.364 0.165178 244.412C4.50074 288.463 83.696 272.349 121.695 296.314C152.119 315.502 163.278 356.1 197.224 368.693C237.801 383.747 286.307 392.102 324.881 371.693C363.965 351.014 387.622 307.07 394.186 264.481C400.088 226.192 368.56 194.646 357.882 157.586Z" fill="#162B26" fill-opacity="0.16"/>
</svg>
