<svg width="44" height="46" viewBox="0 0 44 46" fill="none" xmlns="http://www.w3.org/2000/svg">
<path d="M43.8931 22.46C43.8931 9.99932 34.1223 0 21.9465 0C9.77072 0 0 9.99932 0 22.46C0 33.69 7.96689 43.074 18.4892 44.7662V28.9211H12.9274V22.46H18.4892V17.5373C18.4892 11.8453 21.7962 8.76863 26.7567 8.76863C29.1618 8.76863 31.7172 9.23014 31.7172 9.23014V14.7682H29.0115C26.3058 14.7682 25.4039 16.4604 25.4039 18.3064V22.46H31.5669L30.665 28.9211H25.5542V44.6123C35.9262 43.074 43.8931 33.69 43.8931 22.46Z" fill="white" fill-opacity="0.12"/>
<path d="M30.5873 29.5548L31.4892 23.0937H25.3261V18.9402C25.3261 17.0941 26.228 15.4019 28.9338 15.4019H31.6395V9.86385C31.6395 9.86385 29.0841 9.40234 26.679 9.40234C21.7185 9.40234 18.4115 12.4791 18.4115 18.171V23.0937H13V29.5548H18.5618V45.2461C19.614 45.3999 20.8166 45.5537 22.0191 45.5537C23.2217 45.5537 24.2739 45.3999 25.4765 45.2461V29.5548H30.5873Z" fill="white"/>
</svg>
