<svg width="48" height="49" viewBox="0 0 48 49" fill="none" xmlns="http://www.w3.org/2000/svg">
<path d="M23.5128 48.1259C36.4986 48.1259 47.0257 37.3526 47.0257 24.063C47.0257 10.7734 36.4986 0 23.5128 0C10.527 0 0 10.7734 0 24.063C0 37.3526 10.527 48.1259 23.5128 48.1259Z" fill="white" fill-opacity="0.12"/>
<path d="M36.5578 15.8228C35.7525 16.1524 34.7863 16.482 33.981 16.6469C34.4642 16.6469 34.9473 15.8228 35.2694 15.4932C35.5915 14.9987 35.9136 14.5043 36.0746 13.845V13.6802H35.9136C34.9473 14.1746 33.981 14.6691 32.8537 14.8339C32.6927 14.8339 32.6927 14.8339 32.6927 14.8339C32.5316 14.6691 32.5316 14.6691 32.3706 14.5043C31.8874 14.1746 31.4043 13.845 30.9211 13.5154C30.277 13.1858 29.4717 13.0209 28.6665 13.1858C27.8613 13.1858 27.2171 13.5154 26.5729 13.845C25.9287 14.1746 25.2845 14.6691 24.8014 15.3283C24.3182 15.9876 23.9961 16.6469 23.8351 17.4709C23.674 18.295 23.674 18.9543 23.8351 19.7783C23.8351 19.9432 23.8351 19.9432 23.674 19.9432C19.4868 19.2839 15.9438 17.8006 13.0449 14.5043C12.8839 14.3395 12.8839 14.3395 12.7229 14.5043C11.4345 16.482 12.0787 19.4487 13.6891 20.932C13.8502 21.0969 14.1723 21.2617 14.3333 21.5913C14.1723 21.5913 13.206 21.4265 12.2397 20.932C12.0787 20.932 12.0787 20.932 12.0787 21.0969C12.0787 21.2617 12.0787 21.4265 12.0787 21.7561C12.2397 23.7339 13.6891 25.5469 15.4607 26.2061C15.6217 26.3709 15.9438 26.3709 16.1048 26.3709C15.6217 26.5357 15.2996 26.5357 14.1723 26.3709C14.0112 26.3709 14.0112 26.3709 14.0112 26.5357C14.8165 29.008 16.749 29.6672 18.1985 30.1617C18.3595 30.1617 18.5205 30.1617 18.8426 30.1617C18.3595 30.8209 16.749 31.4802 15.9438 31.645C14.4944 32.1394 13.0449 32.3043 11.5955 32.1394C11.4345 32.1394 11.2734 32.1394 11.2734 32.1394V32.3043C11.5955 32.4691 11.9176 32.6339 12.2397 32.7987C13.206 33.2931 14.1723 33.7876 15.1386 33.9524C20.4531 35.4357 26.2508 34.282 30.277 30.3265C33.3369 27.195 34.4642 22.9098 34.4642 18.4598C34.4642 18.295 34.6252 18.1302 34.7863 18.1302C35.5915 17.4709 36.2357 16.8117 36.8799 15.9876C36.5578 16.1524 36.5578 15.9876 36.5578 15.8228Z" fill="white"/>
</svg>
