<svg width="505" height="492" viewBox="0 0 505 492" fill="none" xmlns="http://www.w3.org/2000/svg">
<path d="M371.402 119.951C343.504 112.228 314.579 108.904 287.145 109.014C208.84 109.332 122.689 141.141 82.9125 221.475C43.7352 300.599 75.3361 398.714 145.369 439.687C194.432 468.392 248.518 483.753 303.862 476.971C371.39 468.685 450.637 447.105 492.478 382.143C534.405 317.048 520.828 224.359 467.598 172.803C440.677 146.725 406.877 129.776 371.402 119.951Z" fill="#C5CBC2"/>
<path d="M351.606 395.952C355.528 399.532 360.526 400.376 365.573 401.182C368.066 401.573 370.889 402.001 373.406 401.683C376.901 401.231 380.347 400.131 383.854 399.667C384.502 399.581 385.174 399.496 385.822 399.642C386.469 399.789 387.08 400.205 387.288 400.828C387.557 401.659 387.056 402.526 386.518 403.223C384.025 406.473 380.323 409.284 377.109 411.728C373.7 414.319 368.641 415.394 364.461 415.467C362.274 415.504 360.099 415.125 357.96 414.636C353.451 413.598 348.93 412.034 345.374 409.064C341.83 406.095 339.374 401.488 339.96 396.893C340.266 394.473 341.744 391.907 344.152 391.528C347.121 391.052 349.382 393.936 351.594 395.952H351.606Z" fill="#EB9D71"/>
<path d="M331.956 98.8107C334.082 110.395 333.899 122.408 331.406 133.931C327.532 151.919 320.066 129.251 317.524 123.434C314.249 115.955 310.388 107.194 302.396 103.76C293.842 100.094 280.693 105.397 274.119 97.9675C272.274 95.8779 271.382 92.9573 271.76 90.1956C271.956 88.7536 272.469 87.3728 273.092 86.0652C273.899 84.3789 275.035 82.6681 276.819 82.1182C280.852 80.8839 282.771 85.2831 286.046 86.2363C288.783 87.0306 290.298 85.5642 292.852 84.7577C297.948 83.1569 304.021 82.9125 309.325 83.1569C319.467 83.6334 329.915 87.7149 331.944 98.7985L331.956 98.8107Z" fill="#12002C"/>
<path d="M294.074 478.694C315.997 477.753 337.797 474.808 358.657 468.16C357.777 457.883 355.748 447.863 354.368 437.671C353.182 428.97 353.072 419.414 352.62 410.506C351.862 395.683 351.422 374.909 359.708 362.139C369.386 347.243 381.606 334.155 391.785 319.601C405.166 300.465 415.37 277.088 410.592 253.32C408.453 242.701 403.993 232.656 398.469 223.332C395.561 218.432 392.176 213.556 387.252 210.697C384.099 208.864 380.506 207.972 376.962 207.141C347.06 200.102 315.801 194.75 285.337 192.672C236.933 189.373 228.538 229.54 221.341 268.057C218.616 282.624 216.404 297.276 214.693 312.001C213.117 325.516 213.63 339.007 211.137 352.253C204.098 389.585 197.78 427.577 198.049 465.679C219.52 476.201 244.607 478.571 268.155 478.975C276.795 479.121 285.459 479.06 294.098 478.694H294.074Z" fill="#43573B"/>
<path d="M269.219 213.935C263.426 227.72 258.636 242.261 256.656 256.95C254.909 269.989 255.031 283.186 255.569 296.298C256.033 307.48 255.948 318.966 260.506 329.427C261.85 325.089 265.699 320.873 267.63 316.522C270.306 310.498 273.557 304.779 277.174 299.268C284.017 288.832 292.058 279.264 299.866 269.561C308.042 259.406 316.314 249.215 322.693 237.789C325.846 232.143 331.895 225.96 333.422 219.654C334.559 214.986 338.347 206.298 335.708 202.094C334.131 199.565 326.775 197.854 323.989 196.803C315.752 193.699 306.538 195.214 297.85 193.785C293.927 193.137 289.956 191.878 286.046 192.599C279.984 193.724 275.769 199.271 273.202 204.868C271.834 207.85 270.489 210.88 269.206 213.948L269.219 213.935Z" fill="white"/>
<path opacity="0.14" d="M290.2 226.779C277.43 258.624 267.068 296.42 259.98 330.465" stroke="#12002C" stroke-width="1.222" stroke-miterlimit="10"/>
<path d="M331.907 188.554C329.879 171.3 328.547 153.959 327.923 136.607C327.337 120.257 330.196 92.7128 307.43 89.5844C296.31 88.0569 283.846 94.3869 278.359 103.955C275.096 109.637 273.532 116.151 272.64 122.652C272.493 123.715 272.371 124.79 272.261 125.866C271.589 133.124 272.567 140.2 275.463 146.884C276.954 150.342 278.567 153.947 281.524 156.281C282.673 157.185 285.654 158.432 286.339 159.605C286.889 160.558 286.864 161.719 286.815 162.819C286.278 173.585 284.933 185.108 279.08 193.919C277.895 195.715 277.577 198.318 276.208 200.542C280.876 209.304 285.862 217.919 290.225 226.803C296.041 223.357 302.286 220.534 308.298 217.711C313.76 215.145 319.137 212.395 324.477 209.597C328.058 207.715 331.602 205.748 335.023 203.585C334.18 198.318 332.384 192.379 331.932 188.566L331.907 188.554Z" fill="#EB9D71"/>
<path d="M548.543 353.207C548.727 350.03 548.324 346.84 547.309 343.822C540.515 323.72 525.594 305.146 510.527 290.555C477.191 258.27 441.606 226.082 397.749 210.929C383.109 205.87 368.531 208.718 359.06 221.377C349.04 234.783 349.455 250.742 355.956 265.98C361.113 278.066 369.618 288.429 378.747 297.875C398.848 318.661 422.445 335.793 446.934 351.154C463.59 361.602 480.918 371.378 499.749 377.024C513.179 381.056 533.366 379.675 542.983 367.822C546.319 363.704 548.238 358.498 548.531 353.207H548.543Z" fill="#43573B"/>
<path d="M279.386 134.285C277.272 135.092 276.722 138 277.54 140.114C279.373 144.856 285.887 146.371 290.506 144.257C295.125 142.143 298.07 137.499 300.038 132.819L279.386 134.297V134.285Z" fill="white"/>
<path d="M324.086 121.907C322.009 121.65 320.054 120.208 318.893 118.399C317.39 116.078 316.913 113.255 316.449 110.53C315.691 106.008 316.901 100.558 311.17 99.1163C307.687 98.2365 304.021 99.0063 300.49 99.6418C293.573 100.888 286.571 101.634 279.545 101.866C278.017 101.915 276.013 101.585 275.744 100.082C275.487 98.6642 277.43 97.1611 278.249 96.1713C279.361 94.8393 280.595 93.764 282.099 92.8841C285.227 91.0511 288.856 90.1591 292.376 89.4381C305.5 86.7497 324.416 80.4686 329.708 96.9778C331.443 102.403 331.431 107.866 331.125 113.511C330.93 117.031 329.292 121.027 325.871 121.809C325.272 121.943 324.673 121.968 324.074 121.894L324.086 121.907Z" fill="#12002C"/>
<path d="M314.262 124.021C313.577 120.562 316.791 113.169 320.86 112.79C324.954 112.412 329.83 119.194 329.952 122.701C330.086 126.623 326.702 130.289 322.791 130.583C318.881 130.876 315.031 127.858 314.262 124.021Z" fill="#EB9D71"/>
<path d="M320.555 120.623C321.031 119.267 323.341 119.67 323.866 121.015C324.404 122.359 323.732 123.862 322.962 125.072" fill="#12002C"/>
<path d="M285.948 173.206C291.105 167.695 296.09 162.025 300.856 156.184C296.53 158.628 291.569 161.072 286.803 160.326C286.815 164.664 286.754 168.99 285.936 173.206H285.948Z" fill="#12002C"/>
<path d="M269.976 364.975C269.976 367.749 267.728 370.009 264.942 370.009C262.155 370.009 259.907 367.761 259.907 364.975C259.907 362.188 262.155 359.94 264.942 359.94C267.728 359.94 269.976 362.188 269.976 364.975Z" fill="#253020"/>
<path d="M265.504 385.81C265.504 388.583 263.255 390.844 260.469 390.844C257.683 390.844 255.434 388.596 255.434 385.81C255.434 383.023 257.683 380.775 260.469 380.775C263.255 380.775 265.504 383.023 265.504 385.81Z" fill="#253020"/>
<path opacity="0.57" d="M381.129 208.681C362.213 207.715 357.068 226.937 356.091 242.115C355.003 259.052 359.451 276.16 367.223 291.153" stroke="#12002C" stroke-width="1.222" stroke-miterlimit="10"/>
<path d="M156.697 175.467C156.452 175.296 156.196 175.137 155.939 175.002C153.483 173.744 150.501 173.829 147.886 174.709C145.271 175.589 142.961 177.202 140.799 178.913C137.487 181.54 134.42 184.473 131.646 187.662C128.994 185.389 127.528 183.031 125.743 180.061C123.226 175.894 121.271 171.263 121.332 166.314C121.369 162.844 122.395 159.459 122.872 156.025C123.299 152.994 123.287 149.89 122.872 146.86C122.701 145.662 122.432 144.416 121.589 143.548C119.902 141.813 116.737 142.705 115.32 144.66C114.11 146.346 114.477 150.379 112.998 151.271C112.534 148.534 113.194 145.65 112.998 142.876C112.803 140.053 111.116 135.422 107.291 136.656C103.772 137.805 104.334 142.436 102.868 144.966C102.782 143.169 102.672 141.385 102.159 139.638C101.597 137.744 100.204 134.896 97.7597 136.363C96.5988 137.059 96 138.391 95.499 139.662C93.5438 144.599 92.0652 149.731 91.0387 154.949C91.0265 154.949 91.002 154.962 90.9898 154.974C90.8432 151.063 85.5641 149.927 83.9389 153.972C82.0814 158.567 84.1344 165.165 85.1364 169.858C86.334 175.43 87.9959 180.905 90.0855 186.196C93.4216 194.64 97.8574 202.644 103.283 209.927C105.825 213.337 107.401 215.328 108.196 219.483C109.149 224.481 109.442 229.577 110.493 234.55C111.813 240.832 115.54 247.467 121.821 248.787C128.994 250.302 135.226 244.155 137.548 237.948C138.037 236.628 138.77 235.223 139.112 233.854C139.589 231.935 139.247 229.736 139.271 227.768C139.308 225.557 139.369 223.32 139.662 221.133C139.87 219.569 140.579 218.481 141.006 217.027C142.131 213.251 141.837 208.852 142.167 204.966C142.57 200.408 143.426 195.74 145.98 191.952C147.373 189.886 149.206 188.2 151.124 186.624C152.896 185.169 154.852 184.461 156.685 183.165C157.797 182.383 158.762 181.259 158.97 179.903C159.239 178.155 158.151 176.493 156.685 175.455L156.697 175.467Z" fill="#EB9D71"/>
<path d="M103.051 145.907C102.415 148.558 101.792 151.21 101.157 153.862C100.008 158.701 98.8472 163.601 99.0183 168.575C99.2016 174.22 101.096 179.658 102.965 184.998" stroke="black" stroke-width="0.611" stroke-miterlimit="10"/>
<path d="M112.815 151.638C111.36 156.587 110.09 161.634 109.747 166.791C109.405 171.947 110.041 177.239 112.216 181.919" stroke="black" stroke-width="0.611" stroke-miterlimit="10"/>
<path d="M290.2 226.779L303.508 246.404L338.628 205.944L335.708 202.094L290.2 226.779Z" fill="#DBDBDB"/>
<path d="M272.054 194.738V239.328L290.2 226.778L279.068 191.292L272.054 194.738Z" fill="#DBDBDB"/>
<path d="M279.068 191.292C269.182 192.318 257.597 193.442 256.314 193.662C249.52 194.811 242.078 196.839 235.675 199.369C223.834 204.037 212.591 212.224 203.084 220.546C200.677 222.66 198.318 224.994 196.009 227.524C169.992 256.009 152.884 293.805 134.652 327.435C130.729 334.669 126.746 342.074 125.401 350.188C122.933 365.035 129.837 380.237 140.175 391.174C157.015 408.991 173.145 401.585 188.334 386.176C188.506 386.005 188.664 385.846 188.835 385.675C201.055 373.272 213.117 360.514 222.856 346.009C232.852 331.125 237.434 315.373 242.713 298.571C248.176 281.218 248.506 262.058 253.198 244.314C255.52 235.54 258.783 223.675 266.555 214.363C268.021 209.487 269.83 206.567 271.675 201.85C272.799 198.159 277.467 194.811 279.056 191.292H279.068Z" fill="#43573B"/>
<path d="M162.892 270.172C157.833 254.64 152.2 239.292 147.41 223.674C146.456 220.583 145.552 217.479 144.672 214.363C129.092 217.687 113.401 220.497 97.5764 222.147C98.7129 232.558 99.385 243.006 100.118 253.455C100.864 264.025 101.585 274.595 102.464 285.141C103.259 294.685 104.053 304.253 105.483 313.724C107.743 328.73 111.471 343.565 117.299 357.606C121.772 368.384 127.54 378.624 134.481 388.009C136.607 390.025 138.819 391.98 141.141 393.826C147.336 398.787 154.925 403.223 162.77 401.989C182.065 398.958 186.306 379.785 186.428 361.76C183.507 347.072 180.135 332.469 176.42 317.964C172.314 301.931 168.025 285.899 162.905 270.159L162.892 270.172Z" fill="#43573B"/>
<path d="M335.659 270.612C334.241 265.834 326.689 242.31 326.689 242.31C332.286 242.774 337.883 243.422 343.37 244.583C344.934 244.913 346.327 245.952 347.402 244.485C348.258 243.324 346.828 237.764 346.681 236.273C346.107 230.359 345.533 224.457 344.97 218.542C343.981 208.302 342.514 195.556 332.127 190.351C332.689 192.648 333.251 194.945 333.801 197.243C334.889 201.691 334.865 205.345 333.985 209.793C332.262 218.579 327.423 226.387 322.681 233.976C318.416 240.807 314.139 247.638 309.496 254.225C305.488 259.895 277.382 296.506 268.791 310.449C266.604 313.993 264.453 317.585 262.779 321.398C261.459 324.404 260.261 327.496 259.626 330.734C259.944 331.039 260.445 330.734 260.762 330.428C263.61 327.716 266.457 325.003 269.304 322.29C274.082 317.732 278.371 312.868 283.027 308.2C290.506 300.697 297.606 294.905 306.526 289.54C307.467 288.978 335.378 269.744 335.634 270.624L335.659 270.612Z" fill="#253020"/>
<path d="M280.938 191.304C281.206 190.778 281.414 190.192 281.536 189.556C280.595 190.29 279.459 190.717 278.347 191.157C275.109 192.465 271.944 193.968 268.889 195.654C265.993 197.255 263.439 199.161 260.689 200.97C254.041 205.357 247.858 210.416 242.2 216.025C242.701 215.524 255.19 224.493 256.168 225.153L237.593 236.787C236.97 237.178 238.29 244.705 238.388 245.683C238.718 248.775 239.096 251.854 239.512 254.921C240.367 261.068 241.418 267.19 242.677 273.263C245.182 285.422 248.494 297.41 252.563 309.141C253.821 312.746 258.673 327.642 259.479 331.467C262.009 326.665 259.504 318.978 259.944 313.663C260.396 307.039 259.76 300.404 260.432 293.793C261.728 281.17 267.276 226.4 268.424 220.302C269.39 215.182 270.881 210.147 272.848 205.332C274.07 202.339 275.243 199.284 276.942 196.522C278.127 194.603 279.911 193.259 280.901 191.304H280.938Z" fill="#253020"/>
<path opacity="0.3" d="M299.145 122.285C299.353 124.534 299.732 126.758 300.294 128.945C301.223 132.587 304.046 133.332 307.443 133.039C304.901 133.259 302.481 134.701 301.088 136.852C299.695 139.002 299.365 141.801 300.208 144.208C299.451 141.251 298.437 138.733 296.213 136.632C295.137 135.617 293.866 134.542 292.4 134.676C297.96 134.151 298.424 126.538 299.145 122.285Z" fill="white"/>
<path d="M91.051 154.766C90.6721 160.265 90.3789 165.801 90.9043 171.287C91.4298 176.774 92.8229 182.249 95.609 187.014" stroke="black" stroke-width="0.611" stroke-miterlimit="10"/>
<path d="M153.08 186.123C152.542 185.634 152.004 185.133 151.699 184.473C151.271 183.532 151.406 182.395 151.919 181.503C152.432 180.611 153.275 179.939 154.192 179.475C154.791 179.169 155.463 178.949 156.135 179.01C157.723 179.157 158.774 180.892 158.725 182.493" stroke="black" stroke-width="0.611" stroke-miterlimit="10"/>
<path d="M130.925 187.394C131.572 188.567 132.794 189.398 134.114 189.569" stroke="black" stroke-width="0.611" stroke-miterlimit="10"/>
<path d="M101.976 198.892C102.685 199.882 103.381 200.86 104.09 201.85" stroke="black" stroke-width="0.611" stroke-miterlimit="10"/>
<path d="M108.746 196.143C108.929 197.01 109.467 197.793 110.212 198.257" stroke="black" stroke-width="0.611" stroke-miterlimit="10"/>
<path d="M115.711 193.809C115.992 194.652 116.273 195.495 116.554 196.339" stroke="black" stroke-width="0.611" stroke-miterlimit="10"/>
<path d="M98.7495 138.831C99.2139 140.09 98.8595 141.605 97.8819 142.534C96.9043 143.463 95.3768 143.744 94.1426 143.218" stroke="black" stroke-width="0.611" stroke-miterlimit="10"/>
<path d="M109.516 138.33C109.662 139.674 109.027 141.092 107.927 141.874C106.815 142.656 105.275 142.79 104.053 142.204" stroke="black" stroke-width="0.611" stroke-miterlimit="10"/>
<path d="M119.658 144.379C120.318 145.515 119.878 147.153 118.729 147.813C118.045 148.204 117.226 148.24 116.444 148.265C115.748 148.289 115.027 148.289 114.416 147.959" stroke="black" stroke-width="0.611" stroke-miterlimit="10"/>
<path d="M87.1407 152.921C87.764 154.082 87.5807 155.621 86.7131 156.611C85.8454 157.601 84.3424 157.968 83.1082 157.503L83.3281 157.625" stroke="black" stroke-width="0.611" stroke-miterlimit="10"/>
<path d="M353.659 409.981C352.095 410.298 350.518 410.567 348.905 410.8C340.816 411.936 332.836 412.4 324.893 414.319C323.451 414.661 321.985 415.028 320.689 415.736C319.382 416.445 318.245 417.582 317.842 419.011C317.231 421.187 318.624 423.362 320.604 424.193C319.198 424.877 317.793 424.51 316.779 426.16C316.033 427.37 315.911 428.861 315.984 430.278C316.082 431.965 316.547 433.81 317.928 434.775C319.113 435.606 320.555 435.545 321.936 435.545C323.084 435.545 324.783 435.936 325.858 435.765C323.671 436.132 321.52 437.439 320.763 439.517C317.219 449.183 344.262 444.356 347.439 443.94C363.093 441.899 378.612 438.808 393.85 434.714C398.873 433.37 403.981 431.855 408.209 428.836C417.667 422.091 416.103 411.166 407.769 403.969C391.834 390.209 370.29 406.632 353.671 410.005L353.659 409.981Z" fill="#EB9D71"/>
<path d="M551.513 356.995C551.33 355.895 551.122 354.795 550.877 353.671C548.018 340.119 540.332 327.642 529.517 318.991C525.533 315.801 520.767 313.87 516.087 316.681C509.293 320.762 507.741 329.109 503.696 335.329C499.113 342.38 495.655 349.052 487.651 352.999C481.382 356.09 474.417 357.374 467.561 358.742C439.077 364.461 410.616 372.661 385.859 387.765C389.109 404.995 391.846 422.347 393.716 439.785C394.461 439.712 395.195 439.626 395.867 439.59C409.26 438.881 422.616 437.757 435.936 436.18C453.007 434.152 469.981 431.402 486.808 427.92C500.898 425.011 513.411 422.311 525.472 414.245C545.183 401.06 555.472 380.787 551.501 357.007L551.513 356.995Z" fill="#43573B"/>
<path d="M374.078 428.763C368.323 430.779 364.095 435.545 358.913 438.869C351.557 443.586 343.418 447.032 334.926 449.085C334.534 449.183 334.205 449.317 333.899 449.488C329.842 450.429 330.086 457.162 334.693 456.979C339.141 456.796 343.577 456.099 347.867 454.914C353.402 453.386 358.241 450.429 363.044 447.423C368.799 443.818 374.751 440.531 380.861 437.586C381.814 437.121 382.828 436.633 383.378 435.728C384.575 433.822 383.146 431.402 381.765 429.618C381.264 428.971 380.726 428.299 379.956 428.005C379.419 427.798 378.82 427.822 378.245 427.871C376.755 427.993 375.361 428.311 374.066 428.763H374.078Z" fill="#EB9D71"/>
<path d="M349.26 443.659C354.539 441.924 358.791 438.185 364.034 436.352" stroke="#12002C" stroke-width="0.611" stroke-miterlimit="10"/>
<path d="M323.732 435.691C335.769 435.691 344.628 435.691 360.111 429.166" stroke="#12002C" stroke-width="0.611" stroke-miterlimit="10"/>
<path d="M320.494 424.021C333.936 424.681 347.5 422.653 360.16 418.07" stroke="#12002C" stroke-width="0.611" stroke-miterlimit="10"/>
<path d="M318.795 433.492C318.722 431.341 318.795 429.191 319.015 427.052C319.981 426.857 320.958 426.759 321.936 426.759C323.084 426.759 324.319 426.954 325.113 427.773C325.797 428.482 326.017 429.545 325.871 430.523C325.724 431.5 325.26 432.392 324.734 433.223" stroke="#12002C" stroke-width="0.611" stroke-miterlimit="10"/>
<path d="M320.066 422.616C320.237 420.82 320.396 419.011 320.567 417.215C322.058 417.032 323.622 416.848 325.003 417.447C325.418 417.63 325.822 417.887 326.078 418.266C326.31 418.608 326.42 419.011 326.469 419.427C326.592 420.392 326.433 421.394 326.005 422.262" stroke="#12002C" stroke-width="0.611" stroke-miterlimit="10"/>
<path d="M322.84 443.354C322.864 441.618 323.011 439.895 323.28 438.172C324.16 438.148 325.027 438.123 325.907 438.111C326.787 438.087 327.704 438.075 328.486 438.466C329.402 438.918 330.013 439.895 330.135 440.922C330.258 441.948 329.928 442.987 329.341 443.83" stroke="#12002C" stroke-width="0.611" stroke-miterlimit="10"/>
<path d="M332.225 455.659C332.225 454.242 332.249 452.824 332.249 451.407C333.545 450.967 334.987 450.979 336.27 451.468C336.416 451.529 336.563 451.59 336.685 451.688C336.832 451.81 336.917 451.993 336.991 452.176C337.37 453.13 337.321 454.242 336.881 455.17" stroke="#12002C" stroke-width="0.611" stroke-miterlimit="10"/>
<path opacity="0.57" d="M385.761 316.803C382.364 313.907 379.052 310.913 375.826 307.821" stroke="#12002C" stroke-width="1.222" stroke-miterlimit="10"/>
<path opacity="0.57" d="M264.942 194.261C244.375 203.866 222.379 226.583 216.367 249.104" stroke="#12002C" stroke-width="1.222" stroke-miterlimit="10"/>
<path opacity="0.57" d="M163.943 273.997C168.868 289.87 175.418 311.5 178.815 327.593" stroke="#12002C" stroke-width="1.222" stroke-miterlimit="10"/>
<path opacity="0.57" d="M215.133 298.021C213.618 339.704 211.467 350.164 207.324 367.663" stroke="#12002C" stroke-width="1.222" stroke-miterlimit="10"/>
<path d="M351.569 409.993C356.249 409.26 358.816 408.258 362.751 405.63" stroke="#12002C" stroke-width="0.611" stroke-miterlimit="10"/>
<path d="M369.74 413.977C371.011 414.099 372.307 413.989 373.541 413.671" stroke="#12002C" stroke-width="0.611" stroke-miterlimit="10"/>
<path d="M370.376 421.321C371.219 421.101 372.062 420.881 372.893 420.649" stroke="#12002C" stroke-width="0.611" stroke-miterlimit="10"/>
<path d="M374.482 428.861C373.749 429.288 373.003 429.704 372.27 430.131" stroke="#12002C" stroke-width="0.611" stroke-miterlimit="10"/>
<path d="M377.317 434.861C376.681 435.276 376.034 435.692 375.398 436.095" stroke="#12002C" stroke-width="0.611" stroke-miterlimit="10"/>
<path opacity="0.57" d="M460.914 361.015C472.352 357.594 483.875 354.416 495.448 351.484" stroke="#12002C" stroke-width="1.222" stroke-miterlimit="10"/>
<path d="M272.921 500.836L273.153 500.971C271.602 500.066 271.088 498.05 272.017 496.498C272.946 494.971 274.974 494.543 276.514 495.447L287.695 501.985C287.695 501.985 287.952 502.132 287.952 502.119L288.001 497.317C288.074 496.205 288.367 495.117 288.905 494.128C289.785 492.502 291.752 490.022 291.752 490.022C292.803 488.225 295.137 487.663 296.897 488.8C298.559 489.875 298.999 492.111 298.009 493.81C298.009 493.81 296.848 495.802 296.2 496.902C295.944 497.354 295.834 497.904 296.042 498.38C297.532 501.875 298.815 506.959 298.803 511.993C298.803 513.069 298.51 514.12 297.972 515.048L288.929 530.507C288.404 531.411 287.243 531.716 286.339 531.191L277.174 525.826L272.115 522.869L265.626 519.081C264.086 518.177 263.463 516.197 264.343 514.645C265.235 513.069 267.239 512.531 268.791 513.435L267.667 512.775C266.2 511.92 265.565 510.062 266.298 508.535C266.921 507.264 268.229 506.592 269.524 506.714C269.524 506.714 269.536 506.714 269.524 506.702L269.487 506.678C267.948 505.773 267.422 503.781 268.327 502.242L268.461 502.009C269.365 500.458 271.357 499.944 272.897 500.849L272.921 500.836Z" fill="#B7BDBC"/>
<path opacity="0.69" d="M407.598 94.2648C404.763 94.607 402.282 97.7231 402.282 97.7231C402.282 97.7231 400.718 94.0693 398.079 92.9939C390.417 89.89 386.005 95.6945 388.254 101.939C390.417 107.963 399.802 116.151 399.802 116.151C399.802 116.151 411.032 110.688 414.71 105.446C418.523 100.008 415.81 93.2628 407.598 94.2526V94.2648Z" fill="#379773"/>
<path opacity="0.84" d="M400.29 127.76C397.455 128.102 394.975 131.218 394.975 131.218C394.975 131.218 393.41 127.564 390.771 126.489C383.109 123.385 378.698 129.19 380.946 135.434C383.109 141.458 392.494 149.646 392.494 149.646C392.494 149.646 403.724 144.183 407.402 138.941C411.215 133.503 408.502 126.758 400.29 127.748V127.76Z" fill="#379773"/>
<path d="M400.645 161.817C397.064 162.257 393.924 166.204 393.924 166.204C393.924 166.204 391.944 161.585 388.596 160.228C378.905 156.306 373.333 163.65 376.156 171.544C378.881 179.157 390.771 189.52 390.771 189.52C390.771 189.52 404.983 182.615 409.639 175.98C414.466 169.1 411.019 160.571 400.645 161.829V161.817Z" fill="#379773"/>
<path opacity="0.47" d="M402.429 68.4317C400.535 69.5559 399.765 72.5132 399.765 72.5132C399.765 72.5132 397.529 70.4236 395.341 70.4847C388.987 70.6802 387.679 76.1303 391.186 79.833C394.571 83.4012 403.724 86.2607 403.724 86.2607C403.724 86.2607 409.944 78.9409 410.91 74.1018C411.912 69.0916 407.903 65.1812 402.429 68.4317Z" fill="#379773"/>
<path opacity="0.69" d="M234.013 95.2303C231.324 95.1081 228.526 97.6132 228.526 97.6132C228.526 97.6132 227.646 93.9716 225.361 92.5541C218.738 88.4726 213.728 93.1651 214.815 99.3118C215.878 105.251 223.308 114.342 223.308 114.342C223.308 114.342 234.612 111.043 238.852 106.742C243.251 102.293 241.785 95.5847 234.001 95.2181L234.013 95.2303Z" fill="#379773"/>
<path opacity="0.84" d="M226.449 126.452C223.613 126.795 221.133 129.911 221.133 129.911C221.133 129.911 219.569 126.257 216.929 125.182C209.267 122.078 204.856 127.882 207.104 134.127C209.267 140.151 218.652 148.338 218.652 148.338C218.652 148.338 229.882 142.876 233.561 137.634C237.373 132.196 234.66 125.45 226.449 126.44V126.452Z" fill="#379773"/>
<path d="M226.791 160.522C223.21 160.962 220.07 164.909 220.07 164.909C220.07 164.909 218.09 160.289 214.742 158.933C205.051 155.01 199.479 162.355 202.302 170.249C205.027 177.862 216.917 188.224 216.917 188.224C216.917 188.224 231.129 181.32 235.785 174.685C240.612 167.805 237.166 159.275 226.791 160.534V160.522Z" fill="#379773"/>
<path opacity="0.47" d="M240.428 72.892C238.253 72.6231 235.821 74.4928 235.821 74.4928C235.821 74.4928 235.333 71.4745 233.561 70.1791C228.428 66.4398 224.054 69.947 224.555 75.0183C225.043 79.9185 230.53 87.7759 230.53 87.7759C230.53 87.7759 239.927 85.7963 243.654 82.5702C247.516 79.2219 246.746 73.6741 240.428 72.892Z" fill="#379773"/>
<path opacity="0.57" d="M260.469 327.606C247.052 371.488 240.66 421.101 239.438 472.058" stroke="#12002C" stroke-width="1.222" stroke-miterlimit="10"/>
<path d="M555.02 397.467C537.643 416.958 513.387 430.192 487.59 434.249" stroke="#12002C" stroke-width="1.222" stroke-miterlimit="10"/>
<path d="M97.5764 278.212C99.4094 311.158 98.9939 335.084 113.878 362.176" stroke="#12002C" stroke-width="1.222" stroke-miterlimit="10"/>
<path d="M195.007 361.406H165.813C163.21 361.406 160.962 360.294 158.713 359.146C156.282 357.887 155.817 356.897 156.514 354.001C157.772 348.832 159.422 343.797 161.292 338.812C162.856 334.657 167.06 335.61 170.836 335.61H195.007C198.599 335.61 199.968 337.81 201.52 341.708L204.905 355.309C204.905 358.681 198.599 361.406 195.007 361.406Z" fill="black"/>
<path opacity="0.56" d="M192.196 341.476H168.905C167.784 341.476 166.876 342.384 166.876 343.504V346.425C166.876 347.545 167.784 348.453 168.905 348.453H192.196C193.316 348.453 194.225 347.545 194.225 346.425V343.504C194.225 342.384 193.316 341.476 192.196 341.476Z" fill="#617180"/>
<path d="M154.998 420.576H203.988V440.812C203.988 443.378 201.899 445.468 199.332 445.468H159.666C157.1 445.468 155.011 443.378 155.011 440.812V420.576H154.998Z" fill="black"/>
<path d="M248.347 433.847H132.575C129.446 433.847 126.905 431.305 126.905 428.177V358.633C126.905 355.504 129.446 352.962 132.575 352.962H240.978C246.074 358.058 248.921 360.905 254.017 366.001V428.177C254.017 431.305 251.475 433.847 248.347 433.847Z" fill="#379773"/>
<path d="M201.85 365.439H134.725C133.504 365.439 132.514 366.429 132.514 367.651V420.624C132.514 421.846 133.504 422.836 134.725 422.836H201.85C203.071 422.836 204.062 421.846 204.062 420.624V367.651C204.062 366.429 203.071 365.439 201.85 365.439Z" fill="white"/>
<path d="M225.092 367.712H217.235C216.337 367.712 215.61 368.44 215.61 369.337V373.125C215.61 374.023 216.337 374.751 217.235 374.751H225.092C225.99 374.751 226.718 374.023 226.718 373.125V369.337C226.718 368.44 225.99 367.712 225.092 367.712Z" fill="white"/>
<path d="M238.791 367.712H230.933C230.036 367.712 229.308 368.44 229.308 369.337V373.125C229.308 374.023 230.036 374.751 230.933 374.751H238.791C239.688 374.751 240.416 374.023 240.416 373.125V369.337C240.416 368.44 239.688 367.712 238.791 367.712Z" fill="white"/>
<path d="M225.092 376.645H217.235C216.337 376.645 215.61 377.372 215.61 378.27V382.058C215.61 382.956 216.337 383.684 217.235 383.684H225.092C225.99 383.684 226.718 382.956 226.718 382.058V378.27C226.718 377.372 225.99 376.645 225.092 376.645Z" fill="white"/>
<path d="M238.791 376.645H230.933C230.036 376.645 229.308 377.372 229.308 378.27V382.058C229.308 382.956 230.036 383.684 230.933 383.684H238.791C239.688 383.684 240.416 382.956 240.416 382.058V378.27C240.416 377.372 239.688 376.645 238.791 376.645Z" fill="white"/>
<path d="M243.581 404.885C243.581 413.366 236.714 420.233 228.233 420.233C219.752 420.233 212.885 413.366 212.885 404.885C212.885 396.404 219.752 389.537 228.233 389.537C236.714 389.537 243.581 396.404 243.581 404.885Z" fill="black"/>
<path opacity="0.56" d="M238.327 404.885C238.327 410.47 233.805 414.991 228.221 414.991C222.636 414.991 218.115 410.47 218.115 404.885C218.115 399.3 222.636 394.779 228.221 394.779C233.805 394.779 238.327 399.3 238.327 404.885Z" fill="#617180"/>
<path d="M179.878 439.431H179.109C177.651 439.431 176.469 440.613 176.469 442.07V508.877C176.469 510.335 177.651 511.517 179.109 511.517H179.878C181.336 511.517 182.518 510.335 182.518 508.877V442.07C182.518 440.613 181.336 439.431 179.878 439.431Z" fill="black"/>
<path d="M184.192 453.228H174.795C173.081 453.228 171.691 454.617 171.691 456.331V482.995C171.691 484.71 173.081 486.099 174.795 486.099H184.192C185.906 486.099 187.296 484.71 187.296 482.995V456.331C187.296 454.617 185.906 453.228 184.192 453.228Z" fill="black"/>
<path d="M264.172 465.57L198.062 475.224C193.907 475.835 190.045 472.951 189.446 468.808L189.422 468.613C188.811 464.458 191.695 460.596 195.838 459.997L261.948 450.344C266.103 449.733 269.964 452.617 270.563 456.759L270.587 456.955C271.198 461.109 268.314 464.971 264.172 465.57Z" fill="black"/>
<path d="M137.059 343.516C129.801 343.529 122.738 348.099 119.731 354.71" stroke="#12002C" stroke-width="1.222" stroke-miterlimit="10"/>
<path d="M155.707 412.327C155.707 415.443 153.178 417.973 150.061 417.973C146.945 417.973 144.416 415.443 144.416 412.327C144.416 409.211 146.945 406.681 150.061 406.681C153.178 406.681 155.707 409.211 155.707 412.327Z" fill="#379773"/>
<path d="M174.392 406.461H163.369V417.484H174.392V406.461Z" fill="#242EA3"/>
<path d="M182.848 411.973V406.461L187.626 409.223L192.392 411.973L187.626 414.734L182.848 417.484V411.973Z" fill="#253020"/>
<path d="M192.269 386.665C192.269 386.665 181.589 398.274 168.404 398.274C155.218 398.274 144.538 386.665 144.538 386.665C144.538 386.665 155.218 375.056 168.404 375.056C181.589 375.056 192.269 386.665 192.269 386.665Z" stroke="#12002C" stroke-width="1.222" stroke-miterlimit="10"/>
<path d="M168.404 398.274C173.749 398.274 178.082 393.077 178.082 386.665C178.082 380.254 173.749 375.056 168.404 375.056C163.058 375.056 158.725 380.254 158.725 386.665C158.725 393.077 163.058 398.274 168.404 398.274Z" fill="black"/>
<path d="M168.709 473.439C168.049 476.336 167.377 479.281 167.56 482.238C167.744 485.207 168.905 488.238 171.288 490.022" stroke="#12002C" stroke-width="1.222" stroke-miterlimit="10"/>
<g opacity="0.64">
<path d="M320.433 498.698L320.665 498.784C319.15 498.185 318.404 496.462 319.027 494.947C319.638 493.443 321.398 492.784 322.901 493.37L333.826 497.647L334.07 497.733L333.447 493.431C333.349 492.429 333.471 491.403 333.801 490.45C334.351 488.873 335.781 486.368 335.781 486.368C336.465 484.621 338.482 483.777 340.217 484.547C341.854 485.268 342.563 487.211 341.915 488.873C341.915 488.873 341.158 490.816 340.73 491.892C340.559 492.331 340.547 492.832 340.791 493.236C342.612 496.156 344.482 500.531 345.178 505.028C345.325 505.993 345.215 506.971 344.861 507.875L338.946 522.979C338.604 523.859 337.602 524.299 336.722 523.957L327.765 520.45L322.828 518.519L316.486 516.038C314.983 515.452 314.152 513.765 314.714 512.25C315.288 510.71 317.011 509.953 318.526 510.551L317.427 510.124C315.985 509.562 315.154 507.997 315.606 506.519C315.985 505.297 317.06 504.515 318.245 504.441C318.245 504.441 318.245 504.441 318.245 504.429H318.209C316.693 503.818 315.948 502.12 316.547 500.604L316.632 500.384C317.219 498.869 318.93 498.124 320.433 498.722V498.698Z" fill="#B7BDBC"/>
</g>
<g opacity="0.46">
<path d="M367.773 493.565L367.981 493.614C366.624 493.26 365.806 491.867 366.172 490.51C366.539 489.166 367.968 488.408 369.313 488.751L379.089 491.256L379.309 491.305L378.319 487.7C378.135 486.844 378.123 485.964 378.319 485.121C378.624 483.716 379.577 481.431 379.577 481.431C379.981 479.867 381.606 478.938 383.17 479.415C384.637 479.867 385.455 481.443 385.076 482.934C385.076 482.934 384.624 484.681 384.38 485.635C384.282 486.026 384.319 486.465 384.575 486.771C386.445 489.068 388.486 492.612 389.561 496.376C389.793 497.182 389.793 498.026 389.586 498.844L386.127 512.36C385.92 513.154 385.125 513.631 384.331 513.423L376.315 511.37L371.891 510.233L366.221 508.779C364.877 508.437 363.985 507.081 364.315 505.724C364.645 504.356 366.025 503.525 367.394 503.867L366.404 503.61C365.121 503.28 364.241 502.034 364.474 500.726C364.669 499.639 365.5 498.857 366.502 498.673C366.502 498.673 366.502 498.673 366.502 498.661H366.478C365.121 498.307 364.315 496.926 364.657 495.582L364.706 495.386C365.048 494.03 366.429 493.223 367.785 493.565H367.773Z" fill="#B7BDBC"/>
</g>
<g opacity="0.4">
<path d="M407.121 484.523L407.268 484.559C406.266 484.303 405.679 483.276 405.948 482.286C406.217 481.297 407.268 480.747 408.245 481.003L415.406 482.836L415.565 482.873L414.844 480.233C414.71 479.61 414.698 478.963 414.844 478.339C415.064 477.313 415.761 475.639 415.761 475.639C416.054 474.49 417.252 473.806 418.388 474.16C419.463 474.49 420.062 475.651 419.781 476.739C419.781 476.739 419.451 478.009 419.268 478.718C419.195 478.999 419.219 479.329 419.415 479.549C420.783 481.236 422.286 483.826 423.068 486.588C423.239 487.174 423.239 487.798 423.093 488.396L420.551 498.307C420.404 498.881 419.818 499.236 419.231 499.089L413.366 497.586L410.127 496.755L405.973 495.692C404.983 495.435 404.335 494.445 404.567 493.456C404.812 492.454 405.826 491.843 406.816 492.099L406.095 491.916C405.154 491.671 404.518 490.755 404.677 489.802C404.812 489.007 405.435 488.433 406.168 488.299H406.144C405.154 488.042 404.555 487.028 404.812 486.038L404.848 485.891C405.105 484.902 406.107 484.303 407.097 484.559L407.121 484.523Z" fill="#B7BDBC"/>
<path d="M421.305 498.934L424.189 487.676C424.328 487.132 424.879 486.806 425.423 486.945L429.365 487.955C429.91 488.095 430.235 488.645 430.096 489.189L427.212 500.447C427.072 500.992 426.522 501.317 425.977 501.178L422.036 500.168C421.491 500.028 421.165 499.478 421.305 498.934Z" fill="#B7BDBC"/>
</g>
<path d="M486.124 205.956C514.206 205.956 536.971 191.649 536.971 174.001C536.971 156.352 514.206 142.045 486.124 142.045C458.042 142.045 435.276 156.352 435.276 174.001C435.276 191.649 458.042 205.956 486.124 205.956Z" fill="#B7BDBC"/>
<path d="M470.727 190.913L447.802 223.064V180.624L470.727 190.913Z" fill="#B7BDBC"/>
<path d="M455.183 168.196H518.226" stroke="#12002C" stroke-width="1.222" stroke-miterlimit="10"/>
<path d="M455.183 180.892H518.226" stroke="#12002C" stroke-width="1.222" stroke-miterlimit="10"/>
<path d="M135.153 133.662C168.635 133.662 195.777 116.609 195.777 95.5726C195.777 74.5363 168.635 57.4829 135.153 57.4829C101.672 57.4829 74.5298 74.5363 74.5298 95.5726C74.5298 116.609 101.672 133.662 135.153 133.662Z" fill="#B7BDBC"/>
<path d="M153.508 115.748L180.844 154.082V103.479L153.508 115.748Z" fill="#B7BDBC"/>
<path d="M98.481 85.3568H171.178" stroke="#12002C" stroke-width="1.222" stroke-miterlimit="10"/>
<path d="M98.481 95.8048H171.178" stroke="#12002C" stroke-width="1.222" stroke-miterlimit="10"/>
<path d="M98.481 105.776H141.178" stroke="#12002C" stroke-width="1.222" stroke-miterlimit="10"/>
</svg>
