<svg width="326" height="114" viewBox="0 0 326 114" fill="none" xmlns="http://www.w3.org/2000/svg">
<g filter="url(#filter0_di_133_7045)">
<path d="M81.1698 38.4353C81.1698 44.4693 76.3067 49.3602 70.307 49.3602H39.1271C37.4703 49.3602 36.1271 48.0171 36.1271 46.3602V30.5148C36.1271 28.858 37.4703 27.5148 39.1271 27.5148H70.307C76.3067 27.5148 81.1698 32.4057 81.1698 38.4398V38.4353ZM90.1962 19.0914C85.3732 14.2408 78.7093 11.2372 71.35 11.2372H23C21.3431 11.2372 20 12.5804 20 14.2372V75.0833C20 77.6263 22.9654 79.0159 24.9196 77.3888L39.1353 65.5523C39.6743 65.1035 40.3535 64.8578 41.0549 64.8578H71.35C86.0686 64.8578 98.0057 52.8524 98.0057 38.0453C98.0057 30.6439 95.0192 23.9419 90.1962 19.0914Z" fill="#808080"/>
<path d="M267.452 10C246.163 10 228.904 26.5645 228.904 47.0022C228.904 67.44 246.163 84.0045 267.452 84.0045C288.741 84.0045 306 67.44 306 47.0022C306 26.5645 288.741 10 267.452 10ZM267.452 67.0276C257.052 67.0276 248.619 58.0617 248.619 47.0022C248.619 35.9428 257.048 26.9769 267.452 26.9769C277.855 26.9769 286.285 35.9428 286.285 47.0022C286.285 58.0617 277.855 67.0276 267.452 67.0276Z" fill="#808080"/>
<path d="M153.92 33.9725C153.92 33.9717 153.921 33.9713 153.922 33.9719C157.567 37.993 159.394 43.5109 159.394 50.5347V78.4805C159.394 80.1374 158.051 81.4805 156.394 81.4805H145.732C144.075 81.4805 142.732 80.1374 142.732 78.4805V54.5694C142.732 51.0279 141.818 48.2709 139.995 46.3118C138.168 44.3528 135.716 43.371 132.631 43.371C129.547 43.371 127.095 44.3528 125.268 46.3118C123.44 48.2753 122.531 51.0279 122.531 54.5694V78.4805C122.531 80.1374 121.188 81.4805 119.531 81.4805H108.775C107.118 81.4805 105.775 80.1374 105.775 78.4805V14.2372C105.775 12.5804 107.118 11.2372 108.775 11.2372H119.531C121.188 11.2372 122.531 12.5804 122.531 14.2372V25.6764C122.531 27.9788 125.049 29.4589 127.223 28.6985C128.834 28.1347 130.247 27.8084 131.357 27.609C133.255 27.2638 142.411 25.9323 149.859 30.617C152.121 32.0409 153.529 33.5453 153.919 33.9732C153.919 33.9738 153.92 33.9733 153.92 33.9725Z" fill="#808080"/>
<path d="M220.617 46.3612V43.0492C220.617 41.3923 219.274 40.0492 217.617 40.0492H192.611C187.374 40.0492 183.13 35.7814 183.13 30.514V13C183.13 11.3431 181.787 10 180.13 10H167.284C165.627 10 164.284 11.3431 164.284 13V33.2799C164.284 49.8758 177.661 59.6217 194.162 59.6217H197.541C199.198 59.6217 200.541 60.9649 200.541 62.6217V81C200.541 82.6569 201.892 84.0237 203.531 83.7777C213.202 82.3257 220.617 73.9366 220.617 63.8088V46.3567V46.3612Z" fill="#808080"/>
<path d="M217.617 11.2376C219.274 11.2376 220.617 12.5807 220.617 14.2376V24.0988C220.617 26.7728 217.383 28.1107 215.494 26.2181L205.651 16.3569C203.764 14.4662 205.103 11.2376 207.774 11.2376H217.617Z" fill="#808080"/>
</g>
<defs>
<filter id="filter0_di_133_7045" x="0" y="0" width="326" height="114.004" filterUnits="userSpaceOnUse" color-interpolation-filters="sRGB">
<feFlood flood-opacity="0" result="BackgroundImageFix"/>
<feColorMatrix in="SourceAlpha" type="matrix" values="0 0 0 0 0 0 0 0 0 0 0 0 0 0 0 0 0 0 127 0" result="hardAlpha"/>
<feOffset dy="10"/>
<feGaussianBlur stdDeviation="10"/>
<feComposite in2="hardAlpha" operator="out"/>
<feColorMatrix type="matrix" values="0 0 0 0 0.0470588 0 0 0 0 0.0470588 0 0 0 0 0.0509804 0 0 0 0.4 0"/>
<feBlend mode="normal" in2="BackgroundImageFix" result="effect1_dropShadow_133_7045"/>
<feBlend mode="normal" in="SourceGraphic" in2="effect1_dropShadow_133_7045" result="shape"/>
<feColorMatrix in="SourceAlpha" type="matrix" values="0 0 0 0 0 0 0 0 0 0 0 0 0 0 0 0 0 0 127 0" result="hardAlpha"/>
<feOffset dy="10"/>
<feGaussianBlur stdDeviation="2.5"/>
<feComposite in2="hardAlpha" operator="arithmetic" k2="-1" k3="1"/>
<feColorMatrix type="matrix" values="0 0 0 0 0.0470588 0 0 0 0 0.0470588 0 0 0 0 0.0509804 0 0 0 0.4 0"/>
<feBlend mode="normal" in2="shape" result="effect2_innerShadow_133_7045"/>
</filter>
</defs>
</svg>
