<svg width="688" height="684" viewBox="0 0 688 684" fill="none" xmlns="http://www.w3.org/2000/svg">
<path d="M315 646.036C465.794 646.036 588.036 523.793 588.036 373C588.036 222.206 465.794 99.9635 315 99.9635C164.206 99.9635 41.9641 222.206 41.9641 373C41.9641 523.793 164.206 646.036 315 646.036Z" fill="#ECF6F2"/>
<path d="M433.745 621.845H110.342C110.318 621.845 110.208 395.852 110.208 395.852H433.629C433.653 395.852 433.671 395.87 433.671 395.894C433.671 395.894 433.754 621.845 433.745 621.845Z" fill="#455551"/>
<path d="M414.397 608.288H129.721C129.7 608.288 129.685 608.273 129.685 608.253L129.604 413.391H414.296C414.317 413.391 414.332 413.406 414.332 413.427L414.412 608.273C414.412 608.273 414.403 608.288 414.394 608.288H414.397Z" fill="white"/>
<path d="M110.283 621.141L110.271 625.151C110.244 635.034 117.913 643.058 127.39 643.055C198.427 643.04 485.864 642.977 556.704 642.96C566.14 642.96 573.788 634.995 573.815 625.157L573.827 621.039L110.283 621.144V621.141Z" fill="#455551"/>
<path d="M291.865 641.888C291.62 641.888 291.388 641.754 291.274 641.518C291.116 641.193 291.25 640.799 291.576 640.638C297.254 637.86 300.79 632.208 300.808 625.885L300.82 621.934C300.82 621.57 301.116 621.278 301.477 621.278C301.841 621.278 302.133 621.573 302.133 621.937L302.121 625.888C302.1 632.712 298.281 638.818 292.152 641.816C292.059 641.861 291.961 641.882 291.862 641.882L291.865 641.888Z" fill="white"/>
<path d="M454.765 629.248H427.175C426.811 629.248 426.518 628.952 426.518 628.591C426.518 628.23 426.814 627.935 427.175 627.935H454.765C455.129 627.935 455.421 628.23 455.421 628.591C455.421 628.952 455.126 629.248 454.765 629.248Z" fill="white"/>
<path d="M136.829 621C136.465 621 136.172 620.705 136.172 620.344C136.172 619.983 136.468 619.687 136.829 619.687L442.002 619.622C442.366 619.622 442.659 619.917 442.659 620.278C442.659 620.639 442.363 620.935 442.002 620.935L136.829 621Z" fill="white"/>
<path d="M281.49 608.249H140.922V575.703H266.799L281.49 608.249Z" fill="#373E44"/>
<path d="M78.0614 529.812L159.563 496.122L130.547 441.712L56.0574 491.804L78.0614 529.812Z" fill="#E2A18D"/>
<path d="M338.851 486.83L252.834 481.972L256.325 420.406L344.962 434.598L338.851 486.83Z" fill="#E2A18D"/>
<path d="M106.46 455.623C119.163 444.341 151.59 415.62 199.811 410.792C237.55 407.014 278.156 416.184 296.06 421.859C295.625 444.565 294.75 468.58 294.315 491.285C285.581 492.595 280.997 493.249 271.857 494.627V581.083L133.901 581.184L133.781 515.494L118.426 521.197L106.46 455.626V455.623Z" fill="#162B26"/>
<path d="M271.953 495.132C271.589 495.132 271.296 494.833 271.299 494.469C271.332 487.738 271.389 484.345 271.457 480.051C271.49 478.004 271.529 475.775 271.568 472.907C271.574 472.543 271.857 472.263 272.233 472.26C272.597 472.265 272.887 472.564 272.881 472.928C272.842 475.799 272.806 478.028 272.77 480.075C272.699 484.366 272.642 487.752 272.609 494.478C272.609 494.839 272.314 495.132 271.953 495.132Z" fill="white"/>
<path d="M132.516 516.398C132.248 516.398 131.994 516.231 131.899 515.966C131.773 515.625 131.949 515.247 132.292 515.121C138.624 512.815 141.826 511.69 145.882 510.266C147.809 509.589 149.91 508.852 152.607 507.894C152.948 507.772 153.324 507.951 153.446 508.294C153.568 508.637 153.389 509.013 153.046 509.132C150.346 510.09 148.245 510.827 146.314 511.505C142.262 512.928 139.063 514.05 132.74 516.354C132.665 516.38 132.591 516.392 132.516 516.392V516.398Z" fill="white"/>
<path d="M328.983 485.601C324.462 430.233 323.358 390.713 320.111 366.313C318.655 355.362 315.104 344.673 319.831 335.157C321.926 330.938 325.059 326.793 327.998 328.643C332.588 331.531 326.342 343.811 330.147 346.06C333.969 348.322 339.209 339.379 341.546 333.176C343.121 328.998 345.637 324.274 349.763 325.014C355.627 326.068 353.729 334.7 353.669 335.285C356.537 333.489 359.933 333.555 361.741 335.184C364.158 337.359 364.167 342.689 360.109 345.908C360.679 345.604 364.937 343.387 366.859 344.938C368.742 346.463 368.27 351.527 364.358 356.988C367.823 355.371 370.64 355.463 371.568 356.537C374.167 359.548 372.134 366.68 361.207 379.818C362.553 387.637 369.091 418.685 374.214 442.769C379.747 468.771 356.46 492.008 330.564 485.986C330.042 485.864 329.514 485.738 328.983 485.604V485.601Z" fill="#E2A18D"/>
<path d="M327.372 465.34C327.029 465.34 326.742 465.074 326.715 464.728C326.295 458.945 325.916 451.533 325.552 444.365C325.292 439.266 325.044 434.449 324.809 430.767C324.785 430.403 325.062 430.093 325.423 430.069C325.787 430.048 326.098 430.323 326.122 430.684C326.357 434.375 326.605 439.194 326.865 444.3C327.232 451.461 327.608 458.865 328.028 464.633C328.055 464.994 327.784 465.31 327.42 465.337C327.405 465.337 327.387 465.337 327.372 465.337V465.34Z" fill="#363E44"/>
<path d="M343.885 384.273C343.56 384.273 343.279 384.034 343.235 383.703C342.972 381.752 342.85 377.876 344.971 373.859C347.37 369.32 351.187 367.22 353.249 366.369C353.583 366.232 353.968 366.39 354.108 366.727C354.246 367.064 354.087 367.446 353.75 367.587C351.852 368.368 348.34 370.302 346.135 374.474C344.183 378.165 344.297 381.731 344.539 383.527C344.586 383.888 344.336 384.22 343.975 384.267C343.945 384.27 343.915 384.273 343.885 384.273Z" fill="#363E44"/>
<path d="M58.2686 528.263C73.1737 535.795 91.2537 527.627 95.6581 511.52C107.144 469.508 114.523 438.427 121.294 418.494C124.848 408.032 130.401 398.238 127.611 387.985C126.372 383.44 124.105 378.765 120.864 380.009C115.8 381.951 119.545 395.209 115.376 396.68C111.187 398.158 105.27 386.135 105.091 380.904C104.858 374.029 106.46 357.635 100.009 358.16C94.0706 358.643 94.4436 380.961 94.3899 381.546C92.2563 376.965 85.3484 359.38 80.568 361.812C74.8507 364.722 83.1372 385.195 86.0108 390.715C84.4741 388.731 75.4355 368.452 70.0225 371.245C65.0363 373.817 74.4866 390.131 77.2647 396.245C73.0215 391.408 70.4672 384.27 67.1012 385.858C63.5055 387.555 70.1867 408.763 78.3569 423.772C74.8417 432.96 56.5677 475.622 47.0547 497.766C42.2027 509.055 46.7802 522.238 57.6598 527.953C57.8598 528.057 58.0627 528.161 58.2686 528.266V528.263Z" fill="#E2A18D"/>
<path d="M96.8875 504.386C96.8278 504.386 96.7682 504.377 96.7055 504.359C96.3564 504.26 96.1535 503.893 96.2549 503.544C98.0841 497.158 102.823 481.337 106.63 468.625C108.519 462.317 110.142 456.904 110.978 454.078C111.079 453.729 111.446 453.532 111.796 453.634C112.145 453.738 112.342 454.102 112.24 454.451C111.405 457.28 109.781 462.693 107.893 469.004C104.085 481.713 99.3463 497.528 97.5231 503.908C97.4396 504.198 97.177 504.386 96.8905 504.386H96.8875Z" fill="#363E44"/>
<path d="M103.282 418.085C102.966 418.085 102.689 417.858 102.635 417.539C102.304 415.596 102.044 411.729 104.025 407.641C106.263 403.021 110.002 400.783 112.035 399.864C112.366 399.715 112.754 399.861 112.906 400.193C113.055 400.524 112.909 400.915 112.578 401.064C111.074 401.747 107.344 403.809 105.21 408.217C103.39 411.973 103.629 415.533 103.933 417.321C103.993 417.679 103.754 418.019 103.396 418.079C103.36 418.085 103.321 418.088 103.285 418.088L103.282 418.085Z" fill="#363E44"/>
<path d="M364.29 379.403C359.065 383.62 351.035 382.334 346.353 376.533L309.017 329.144L327.381 314.322L365.268 361.267C369.95 367.068 369.512 375.187 364.287 379.403H364.29Z" fill="#84524D"/>
<path d="M413.77 252.774C413.615 252.774 413.46 252.72 413.335 252.61C413.063 252.368 413.036 251.953 413.275 251.682C419.085 245.087 419.389 235.544 413.997 228.989C408.799 222.668 399.611 220.994 392.151 225.008C391.832 225.181 391.432 225.059 391.259 224.739C391.086 224.42 391.208 224.02 391.528 223.847C399.54 219.538 409.417 221.346 415.015 228.15C420.819 235.207 420.505 245.466 414.266 252.55C414.134 252.696 413.955 252.774 413.77 252.774Z" fill="#363E44"/>
<path d="M308.295 291.22L332.561 320.714L430.254 277.028L369.989 203.777L308.295 291.22Z" fill="#63B898"/>
<path d="M308.328 291.297L288.661 307.475L312.861 336.894L332.528 320.717L308.328 291.297Z" fill="#43573B"/>
<path d="M321.69 314.049L307.701 325.555L311.964 330.738L325.953 319.232L321.69 314.049Z" fill="#2B7659"/>
<path d="M315.099 306.045L301.11 317.552L305.374 322.734L319.362 311.228L315.099 306.045Z" fill="#2B7659"/>
<path d="M308.514 298.036L294.525 309.542L298.788 314.725L312.777 303.218L308.514 298.036Z" fill="#2B7659"/>
<path d="M402.819 213.025C402.762 213.025 402.706 213.019 402.649 213.001C402.297 212.908 402.091 212.547 402.183 212.195L407.596 191.973C407.65 191.776 407.79 191.614 407.975 191.537C408.163 191.459 408.375 191.471 408.554 191.57L422.967 199.68L435.437 177.524C435.616 177.208 436.016 177.094 436.332 177.273C436.649 177.452 436.762 177.852 436.583 178.169L423.791 200.898C423.612 201.214 423.209 201.327 422.895 201.148L408.647 193.13L403.452 212.535C403.374 212.831 403.109 213.025 402.816 213.025H402.819Z" fill="#63B898"/>
<path d="M442.264 252.071C442.151 252.071 442.038 252.041 441.936 251.984C441.769 251.889 441.653 251.722 441.617 251.534L439.441 239.732L423.814 243.011C423.459 243.089 423.11 242.859 423.035 242.504C422.961 242.149 423.188 241.8 423.543 241.725L439.829 238.306C440.002 238.267 440.184 238.306 440.331 238.404C440.477 238.503 440.578 238.658 440.611 238.831L442.769 250.537L463.967 242.952C464.31 242.829 464.686 243.008 464.808 243.349C464.931 243.692 464.752 244.068 464.412 244.19L442.485 252.035C442.414 252.062 442.339 252.074 442.264 252.074V252.071Z" fill="#63B898"/>
<path d="M446.194 222.323C446.194 222.323 446.164 222.323 446.15 222.323C445.965 222.311 445.792 222.218 445.678 222.072L437.839 212.115L428.338 219.449C428.052 219.67 427.637 219.619 427.416 219.33C427.195 219.043 427.246 218.629 427.535 218.408L437.553 210.673C437.839 210.453 438.248 210.503 438.472 210.787L446.263 220.685L460.852 206.591C461.114 206.338 461.529 206.347 461.783 206.606C462.036 206.869 462.027 207.284 461.768 207.537L446.654 222.135C446.532 222.254 446.367 222.32 446.197 222.32L446.194 222.323Z" fill="#63B898"/>
<path d="M350.059 338.018C344.449 342.351 342.602 347.725 344.043 349.659C345.365 351.428 350.19 351.297 355.305 348.426C355.376 348.388 355.436 348.477 355.373 348.531C349.984 353.031 347.782 357.901 349.044 359.703C350.196 361.347 354.672 361.076 359.79 358.766C359.864 358.733 359.918 358.832 359.849 358.876C355.239 361.798 353.04 365.378 353.822 366.978C354.648 368.67 360.381 370.317 368.891 364.364L350.065 338.024L350.059 338.018Z" fill="#E2A18D"/>
<path d="M320.112 366.312C317.886 353.932 315.442 344.198 319.831 335.156C321.171 332.393 323.433 328.92 326.178 329.006C331.639 329.176 329.246 337.532 329.986 343.461C330.678 348.987 334.563 351.595 337.252 356.581C339.367 360.502 341.417 366.84 339.955 376.84C333.343 373.331 326.727 369.821 320.115 366.312H320.112Z" fill="#E2A18D"/>
<path d="M205.869 432.355H205.881C215.319 432.984 223.49 425.868 224.164 416.432L226.864 378.506C227.539 369.04 220.413 360.819 210.948 360.145C201.483 359.471 193.262 366.593 192.584 376.059L189.872 413.985C189.191 423.483 196.368 431.722 205.869 432.358V432.355Z" fill="#E2A18D"/>
<path d="M187.055 407.011C198.256 395.81 198.256 377.649 187.055 366.448C175.854 355.247 157.693 355.247 146.492 366.448C135.291 377.649 135.291 395.81 146.492 407.011C157.693 418.212 175.854 418.212 187.055 407.011Z" fill="#B77250"/>
<path d="M166.773 406.287C150.594 406.287 137.431 393.124 137.431 376.945C137.431 360.766 150.594 347.603 166.773 347.603C182.952 347.603 196.115 360.766 196.115 376.945C196.115 393.124 182.952 406.287 166.773 406.287ZM166.773 348.922C151.319 348.922 138.747 361.494 138.747 376.948C138.747 392.402 151.319 404.974 166.773 404.974C182.227 404.974 194.799 392.402 194.799 376.948C194.799 361.494 182.227 348.922 166.773 348.922Z" fill="#B77250"/>
<path d="M157.97 412.156C141.791 412.156 128.628 398.994 128.628 382.815C128.628 366.635 141.791 353.473 157.97 353.473C174.149 353.473 187.312 366.635 187.312 382.815C187.312 398.994 174.149 412.156 157.97 412.156ZM157.97 354.789C142.516 354.789 129.944 367.361 129.944 382.815C129.944 398.269 142.516 410.84 157.97 410.84C173.424 410.84 185.996 398.269 185.996 382.815C185.996 367.361 173.424 354.789 157.97 354.789Z" fill="#B77250"/>
<path d="M189.087 322.237C190.466 321.509 203.768 314.732 215.925 320.742C224.97 325.215 229.401 333.901 234.629 349.594C240.785 368.074 241.883 379.983 238.165 385.656C232.29 394.62 202.638 392.134 186.981 380.219C175.68 371.616 170.449 356.711 172.878 342.617C175.301 328.563 188.21 322.705 189.087 322.24V322.237Z" fill="#E2A18D"/>
<path d="M223.737 392.918C211.792 392.918 195.694 387.676 186.581 380.741C186.291 380.52 186.234 380.108 186.455 379.819C186.676 379.529 187.088 379.473 187.377 379.693C196.541 386.67 212.947 391.892 224.716 391.591C225.062 391.567 225.382 391.868 225.391 392.232C225.399 392.596 225.113 392.898 224.749 392.906C224.415 392.915 224.078 392.918 223.734 392.918H223.737Z" fill="#363E44"/>
<path d="M201.369 355.171C201.369 355.171 205.672 351.686 211.446 350.591C212.676 350.358 212.222 360.629 210.948 360.295C205.356 358.818 201.366 355.171 201.366 355.171H201.369Z" fill="white"/>
<path d="M215.304 350.274C213.974 350.236 212.684 350.367 211.455 350.597C209.554 353.614 209.465 357.281 210.942 360.292C212.216 360.629 213.571 360.853 214.982 360.897C222.591 361.127 228.917 356.001 228.917 356.001C228.917 356.001 222.908 350.504 215.298 350.274H215.304Z" fill="#373E44"/>
<path d="M227.634 373.88C227.076 373.88 226.518 373.773 225.993 373.546C223.752 372.588 223.412 370.103 223.4 369.998C223.355 369.637 223.609 369.309 223.97 369.264C224.328 369.219 224.659 369.473 224.704 369.834C224.704 369.852 224.964 371.678 226.509 372.338C227.742 372.866 229.243 372.457 230.153 371.344C230.383 371.063 230.797 371.022 231.078 371.252C231.358 371.481 231.4 371.896 231.17 372.177C230.272 373.275 228.953 373.877 227.634 373.877V373.88Z" fill="#363E44"/>
<path d="M236.416 363.374C236.264 363.374 236.115 363.323 235.99 363.216C235.712 362.98 235.679 362.565 235.915 362.288C237.058 360.948 237.55 359.856 237.303 359.211C237.18 358.895 236.903 358.722 236.339 358.388C235.861 358.107 235.265 357.758 234.626 357.155C233.686 356.269 232.973 355.138 232.513 353.792C232.397 353.449 232.579 353.073 232.922 352.957C233.262 352.84 233.638 353.022 233.758 353.366C234.149 354.505 234.742 355.457 235.527 356.194C236.058 356.693 236.56 356.988 237.004 357.251C237.64 357.624 238.24 357.976 238.532 358.74C238.977 359.904 238.449 361.345 236.915 363.141C236.784 363.293 236.599 363.371 236.413 363.371L236.416 363.374Z" fill="#363E44"/>
<path d="M205.442 328.944L216.546 340.048C222.69 337.338 228.831 334.629 234.975 331.919C233.456 329.183 230.702 325.029 226.053 321.296C217.575 314.493 208.474 313.642 205.869 313.436C191.161 312.264 175.31 319.992 168.688 332.985C168.357 333.635 166.877 336.595 165.925 341.059C161.84 360.234 176.435 384.769 183.773 384.402C186.064 384.288 188.177 379.257 193.545 350.193C199.815 347.43 206.084 344.664 212.35 341.901L205.442 328.947V328.944Z" fill="#B77250"/>
<path d="M202.134 373.604C205.986 369.371 205.05 362.245 200.042 357.686C195.034 353.128 187.852 352.864 183.999 357.097C180.146 361.33 181.082 368.456 186.09 373.014C191.098 377.573 198.281 377.837 202.134 373.604Z" fill="#E2A18D"/>
<path d="M190.516 370.693C190.394 370.693 190.272 370.661 190.164 370.589C189.782 370.344 189.415 370.064 189.075 369.753C187.729 368.527 186.867 366.928 186.646 365.245C186.419 363.523 186.891 361.92 187.971 360.733C188.52 360.13 189.189 359.673 189.961 359.375C190.299 359.244 190.681 359.414 190.812 359.751C190.943 360.091 190.773 360.47 190.436 360.602C189.854 360.825 189.353 361.165 188.944 361.616C188.129 362.511 187.777 363.738 187.953 365.072C188.135 366.444 188.848 367.76 189.964 368.778C190.248 369.037 190.555 369.27 190.875 369.476C191.182 369.673 191.271 370.079 191.074 370.383C190.949 370.58 190.737 370.687 190.519 370.687L190.516 370.693Z" fill="#363E44"/>
<path d="M499.793 370.383C527.256 370.383 549.519 348.12 549.519 320.657C549.519 293.195 527.256 270.932 499.793 270.932C472.331 270.932 450.068 293.195 450.068 320.657C450.068 348.12 472.331 370.383 499.793 370.383Z" fill="white"/>
<path d="M504.12 364.701C476.339 364.701 453.739 342.1 453.739 314.319C453.739 286.538 476.339 263.938 504.12 263.938C531.901 263.938 554.502 286.538 554.502 314.319C554.502 342.1 531.901 364.701 504.12 364.701ZM504.12 265.25C477.064 265.25 455.054 287.26 455.054 314.316C455.054 341.372 477.064 363.382 504.12 363.382C531.176 363.382 553.186 341.372 553.186 314.316C553.186 287.26 531.176 265.25 504.12 265.25Z" fill="#E2A18D"/>
<path d="M530.517 320.275C532.456 320.758 533.88 322.543 533.793 324.652C533.698 326.989 531.687 328.794 529.347 328.794H528.156C529.875 329.421 531.087 331.101 530.997 333.055C530.893 335.389 528.879 337.182 526.542 337.182H505.583C500.08 337.182 495.118 333.873 493.002 328.794V303.717H493.011L493.002 303.711C493.002 303.711 501.981 299.42 511.163 291.81C513.007 290.283 518.05 293.789 515.197 300.067C514.678 301.21 513.818 302.466 512.822 303.714H526.542C528.929 303.714 531.006 305.665 531 308.049C530.997 309.625 530.15 310.998 528.888 311.75H529.344C531.684 311.75 533.695 313.555 533.79 315.891C533.877 318.001 532.453 319.785 530.514 320.269L530.517 320.275Z" fill="#2B7659"/>
<path d="M491.047 300.049H474.447V333.978H491.047V300.049Z" fill="#2B7659"/>
<path d="M140.911 286.396C158.367 268.94 158.367 240.637 140.911 223.181C123.454 205.724 95.1516 205.724 77.6951 223.181C60.2385 240.637 60.2385 268.94 77.6951 286.396C95.1516 303.853 123.454 303.853 140.911 286.396Z" fill="white"/>
<path d="M139.878 262.97L122.702 250.08L123.585 228.622L106.016 240.972L85.8826 233.503L92.2028 254.027L78.8762 270.869L100.349 271.203L112.246 289.08L119.199 268.759L139.878 262.97Z" fill="#63B898"/>
<path d="M200.461 179.294C214.375 165.38 214.375 142.821 200.461 128.907C186.547 114.993 163.988 114.993 150.074 128.907C136.16 142.821 136.16 165.38 150.074 179.294C163.988 193.208 186.547 193.208 200.461 179.294Z" fill="white"/>
<path d="M179.115 192.387C159.104 192.387 142.826 176.109 142.826 156.098C142.826 136.088 159.104 119.81 179.115 119.81C199.126 119.81 215.403 136.088 215.403 156.098C215.403 176.109 199.126 192.387 179.115 192.387ZM179.115 121.126C159.832 121.126 144.142 136.816 144.142 156.098C144.142 175.381 159.832 191.071 179.115 191.071C198.397 191.071 214.087 175.381 214.087 156.098C214.087 136.816 198.397 121.126 179.115 121.126Z" fill="#E2A18D"/>
<path d="M166.686 174.611H160.682L171.386 139.188H177.387L166.686 174.611Z" fill="#2B7659"/>
<path d="M197.144 152.72L198.869 146.97L161.864 147.039L160.139 152.789L197.144 152.72Z" fill="#2B7659"/>
<path d="M181.953 174.611H175.949L186.652 139.188H192.653L181.953 174.611Z" fill="#2B7659"/>
<path d="M192.755 167.342L194.479 161.592L157.478 161.664L155.753 167.414L192.755 167.342Z" fill="#2B7659"/>
<path d="M560.992 185.439C578.804 167.627 578.804 138.748 560.992 120.936C543.18 103.124 514.301 103.124 496.489 120.936C478.677 138.748 478.677 167.627 496.489 185.439C514.301 203.251 543.18 203.251 560.992 185.439Z" fill="#455551"/>
<path d="M535.357 199.453C535.264 199.453 535.175 199.453 535.082 199.453C522.726 199.381 511.133 194.502 502.443 185.715C493.754 176.927 489.01 165.28 489.081 152.92C489.153 140.564 494.032 128.971 502.819 120.284C511.607 111.595 523.284 106.836 535.614 106.922C561.124 107.068 581.761 127.944 581.615 153.455C581.543 165.811 576.664 177.404 567.877 186.094C559.154 194.717 547.612 199.456 535.357 199.456V199.453ZM535.342 108.235C523.433 108.235 512.222 112.839 503.747 121.218C495.207 129.66 490.469 140.922 490.4 152.926C490.331 164.934 494.942 176.249 503.383 184.787C511.825 193.327 523.087 198.065 535.094 198.134C535.184 198.134 535.273 198.134 535.36 198.134C547.269 198.134 558.48 193.53 566.955 185.151C575.495 176.709 580.233 165.447 580.302 153.44C580.371 141.432 575.76 130.117 567.319 121.579C558.877 113.039 547.615 108.301 535.608 108.232C535.518 108.232 535.429 108.232 535.342 108.232V108.235Z" fill="white"/>
<path d="M535.429 131.719C522.705 131.719 510.199 129.577 499.257 125.522L499.713 124.289C510.509 128.291 522.857 130.404 535.426 130.404C547.994 130.404 560.166 128.321 570.902 124.376L571.356 125.611C560.476 129.607 548.054 131.719 535.426 131.719H535.429Z" fill="white"/>
<path d="M499.298 181.451L498.836 180.218C509.879 176.062 522.535 173.865 535.428 173.865C548.322 173.865 560.846 176.041 571.848 180.156L571.389 181.388C560.533 177.327 548.096 175.181 535.428 175.181C522.761 175.181 510.199 177.351 499.301 181.451H499.298Z" fill="white"/>
<path d="M535.348 199.453C521.929 199.453 511.01 178.696 511.01 153.186C511.01 127.676 521.929 106.919 535.348 106.919C548.767 106.919 559.686 127.676 559.686 153.186C559.686 178.696 548.767 199.453 535.348 199.453ZM535.348 108.235C522.654 108.235 512.326 128.401 512.326 153.186C512.326 177.971 522.654 198.137 535.348 198.137C548.042 198.137 558.37 177.971 558.37 153.186C558.37 128.401 548.042 108.235 535.348 108.235Z" fill="white"/>
<path d="M536.007 107.674H534.691V198.737H536.007V107.674Z" fill="white"/>
<path d="M489.753 151.901L489.743 153.217L581 153.934L581.01 152.618L489.753 151.901Z" fill="white"/>
<path d="M272.801 235.085L230.347 247.456L267.286 186.066L272.801 235.085Z" fill="white"/>
<path d="M301.639 235.307C317.837 219.109 317.837 192.847 301.639 176.649C285.441 160.451 259.179 160.451 242.981 176.649C226.783 192.847 226.783 219.109 242.981 235.307C259.179 251.505 285.441 251.505 301.639 235.307Z" fill="white"/>
<path d="M249.463 198.268C251.176 192.759 256.314 188.761 262.387 188.761C266.313 188.761 269.841 190.444 272.311 193.117C274.782 190.444 278.309 188.761 282.236 188.761C288.309 188.761 293.444 192.759 295.157 198.268C295.551 199.539 295.766 200.891 295.766 202.29C295.766 209.762 286.93 222.447 272.308 227.971C257.69 222.447 248.851 209.762 248.851 202.29C248.851 200.888 249.063 199.539 249.46 198.268H249.463Z" fill="#2B7659"/>
<path d="M379.658 582.097L400.662 562.358H527.667V508.345H379.658V582.097Z" fill="#2B7659"/>
<path d="M416.179 525.467C413.165 522.453 408.277 522.453 405.263 525.467L405.204 525.527L405.159 525.482C402.136 522.459 397.236 522.459 394.214 525.482C391.191 528.505 391.191 533.404 394.214 536.427L405.18 547.393L416.182 536.385C419.196 533.372 419.196 528.484 416.182 525.47L416.179 525.467Z" fill="white"/>
<path d="M462.267 537.561L451.348 531.939L476.62 523.205L467.885 548.476L462.267 537.561Z" fill="white"/>
<path d="M430.926 541.744C430.561 541.744 430.269 541.449 430.269 541.088V526.251C430.269 525.887 430.564 525.595 430.926 525.595C431.287 525.595 431.582 525.89 431.582 526.251V541.088C431.582 541.452 431.287 541.744 430.926 541.744Z" fill="white"/>
<path d="M438.344 534.326H423.507C423.143 534.326 422.851 534.031 422.851 533.67C422.851 533.309 423.146 533.013 423.507 533.013H438.344C438.708 533.013 439 533.309 439 533.67C439 534.031 438.705 534.326 438.344 534.326Z" fill="white"/>
<path d="M490.14 541.744C489.776 541.744 489.484 541.449 489.484 541.088V526.251C489.484 525.887 489.779 525.595 490.14 525.595C490.501 525.595 490.797 525.89 490.797 526.251V541.088C490.797 541.452 490.501 541.744 490.14 541.744Z" fill="white"/>
<path d="M497.559 534.326H482.722C482.358 534.326 482.066 534.031 482.066 533.67C482.066 533.309 482.361 533.013 482.722 533.013H497.559C497.923 533.013 498.215 533.309 498.215 533.67C498.215 534.031 497.92 534.326 497.559 534.326Z" fill="white"/>
<path d="M510.703 541.744C510.339 541.744 510.047 541.449 510.047 541.088V526.251C510.047 525.887 510.342 525.595 510.703 525.595C511.064 525.595 511.36 525.89 511.36 526.251V541.088C511.36 541.452 511.064 541.744 510.703 541.744Z" fill="white"/>
<path d="M518.121 534.326H503.285C502.921 534.326 502.628 534.031 502.628 533.67C502.628 533.309 502.924 533.013 503.285 533.013H518.121C518.485 533.013 518.778 533.309 518.778 533.67C518.778 534.031 518.482 534.326 518.121 534.326Z" fill="white"/>
<path d="M529.967 403.625H453.443C443.897 403.625 436.156 411.362 436.156 420.911C436.156 430.436 443.858 438.159 453.374 438.194L449.211 465.987L468.661 438.194H529.967C539.513 438.194 547.254 430.457 547.254 420.908C547.254 411.362 539.516 403.622 529.967 403.622V403.625Z" fill="white"/>
<path d="M453.64 472.307C453.559 472.307 453.476 472.292 453.395 472.259C453.112 472.146 452.945 471.854 452.989 471.552L457.042 444.493C447.538 444.058 439.928 436.171 439.928 426.571C439.928 416.972 447.976 408.629 457.871 408.629H534.396C544.291 408.629 552.339 416.677 552.339 426.571C552.339 436.466 544.291 444.514 534.396 444.514H473.433L454.18 472.027C454.055 472.206 453.852 472.307 453.64 472.307ZM457.871 409.945C448.701 409.945 441.244 417.405 441.244 426.571C441.244 435.738 448.675 443.162 457.806 443.198C457.997 443.198 458.179 443.282 458.301 443.428C458.426 443.574 458.48 443.765 458.453 443.953L454.705 468.98L472.553 443.479C472.675 443.303 472.878 443.198 473.093 443.198H534.399C543.566 443.198 551.026 435.738 551.026 426.571C551.026 417.405 543.566 409.945 534.399 409.945H457.874H457.871Z" fill="#D3BBA3"/>
</svg>
