<svg preserveAspectRatio="none" width="100%" height="100%" overflow="visible" style="display: block;" viewBox="0 0 12.9913 12.9836" fill="none" xmlns="http://www.w3.org/2000/svg">
<g id="Group">
<path id="Vector" d="M11.3913 12.6951H1.61499C0.89325 12.6951 0.302734 12.1049 0.302734 11.3836V1.59999C0.302734 0.878677 0.89325 0.288513 1.61499 0.288513H11.4044C12.1262 0.288513 12.7167 0.878677 12.7167 1.59999V11.3836C12.7036 12.1049 12.1131 12.6951 11.3913 12.6951Z" fill="var(--fill-0, #001A0A)"/>
<path id="Vector_2" d="M11.3904 12.9836H1.60096C0.721743 12.9836 0 12.2623 0 11.3836V1.6C0 0.721313 0.721743 0 1.60096 0H11.3904C12.2696 0 12.9913 0.721313 12.9913 1.6V11.3836C12.9913 12.2623 12.2696 12.9836 11.3904 12.9836ZM1.60096 0.590164C1.03669 0.590164 0.590516 1.04918 0.590516 1.6V11.3836C0.590516 11.9475 1.04981 12.3934 1.60096 12.3934H11.3904C11.9547 12.3934 12.4008 11.9344 12.4008 11.3836V1.6C12.4008 1.03607 11.9415 0.590164 11.3904 0.590164H1.60096Z" fill="var(--fill-0, white)"/>
</g>
</svg>
