<svg preserveAspectRatio="none" width="100%" height="100%" overflow="visible" style="display: block;" viewBox="0 0 18.3847 8.81311" fill="none" xmlns="http://www.w3.org/2000/svg">
<g id="Group">
<path id="Vector" d="M17.2697 8.52458H1.11579C0.656501 8.52458 0.289062 8.15737 0.289062 7.69835V1.11475C0.289062 0.655733 0.656501 0.288513 1.11579 0.288513H17.2697C17.729 0.288513 18.0964 0.655733 18.0964 1.11475V7.69835C18.0964 8.15737 17.729 8.52458 17.2697 8.52458Z" fill="var(--fill-0, #001A0A)"/>
<path id="Vector_2" d="M17.2693 8.81311H1.11542C0.498658 8.81311 0 8.31475 0 7.69835V1.11475C0 0.498361 0.498658 0 1.11542 0H17.2693C17.8861 0 18.3847 0.498361 18.3847 1.11475V7.69835C18.3847 8.31475 17.8861 8.81311 17.2693 8.81311ZM1.11542 0.577044C0.826722 0.577044 0.577397 0.813115 0.577397 1.11475V7.69835C0.577397 7.98688 0.8136 8.23606 1.11542 8.23606H17.2693C17.558 8.23606 17.8073 7.99999 17.8073 7.69835V1.11475C17.8073 0.82623 17.5711 0.577044 17.2693 0.577044H1.11542Z" fill="var(--fill-0, white)"/>
</g>
</svg>
