<svg preserveAspectRatio="none" width="100%" height="100%" overflow="visible" style="display: block;" viewBox="0 0 16 16" fill="none" xmlns="http://www.w3.org/2000/svg">
<path id="Vector" d="M0.175788 0.175474C0.0741726 0.277066 0.0123894 0.411751 0.00167212 0.55504C-0.00904517 0.698329 0.0320152 0.840707 0.117387 0.956285L0.175788 1.02349L3.40302 4.25153C1.83015 5.35516 0.707031 6.98802 0.238988 8.85159C0.202971 9.00503 0.228779 9.16649 0.310833 9.30106C0.392888 9.43563 0.524599 9.53251 0.677502 9.57077C0.830405 9.60902 0.992219 9.58557 1.12797 9.50549C1.26373 9.4254 1.36252 9.29512 1.403 9.14279C1.81885 7.48871 2.84109 6.05128 4.26703 5.11554L5.71505 6.56356C5.13663 7.16796 4.81791 7.97484 4.82713 8.81137C4.83636 9.64789 5.17281 10.4475 5.76441 11.039C6.35601 11.6305 7.15572 11.9668 7.99225 11.9759C8.82877 11.985 9.63559 11.6661 10.2399 11.0876L14.9751 15.8237C15.0822 15.931 15.2259 15.9939 15.3774 15.9996C15.529 16.0053 15.677 15.9534 15.7918 15.8544C15.9066 15.7554 15.9797 15.6166 15.9964 15.4659C16.013 15.3152 15.972 15.1638 15.8816 15.0421L15.8231 14.9749L10.9327 10.0836L10.9335 10.082L9.97349 9.12359L7.67747 6.82756H7.67907L5.37504 4.52593L5.37584 4.52433L4.46943 3.62032L1.0238 0.175474C0.911295 0.0631125 0.758794 0 0.599792 0C0.44079 0 0.288289 0.0631125 0.175788 0.175474ZM6.56305 7.41157L9.39108 10.2404C9.01388 10.6047 8.50867 10.8063 7.98427 10.8018C7.45987 10.7972 6.95824 10.5869 6.58742 10.216C6.2166 9.84522 6.00626 9.34359 6.0017 8.81919C5.99714 8.29479 6.19873 7.78878 6.56305 7.41157ZM7.99987 2.79951C7.19986 2.79951 6.42385 2.91791 5.68865 3.13951L6.67825 4.12833C8.38991 3.78941 10.1664 4.12119 11.6403 5.05508C13.1142 5.98897 14.1729 7.45354 14.5975 9.14599C14.639 9.29714 14.7379 9.42607 14.8732 9.50521C15.0085 9.58435 15.1694 9.60741 15.3214 9.56948C15.4735 9.53154 15.6047 9.43561 15.6869 9.3022C15.7692 9.16879 15.796 9.00849 15.7615 8.85559C15.3281 7.12533 14.3288 5.58955 12.9226 4.49228C11.5163 3.39501 9.78359 2.7992 7.99987 2.79951ZM8.15587 5.60755L11.1967 8.64759C11.1574 7.85389 10.8243 7.10318 10.2624 6.54134C9.70037 5.9795 8.94957 5.64667 8.15587 5.60755Z" fill="var(--fill-0, #656565)"/>
</svg>
