<svg preserveAspectRatio="none" width="100%" height="100%" overflow="visible" style="display: block;" viewBox="0 0 12.9914 12.9836" fill="none" xmlns="http://www.w3.org/2000/svg">
<g id="Group">
<path id="Vector" d="M11.3908 12.6951H1.60132C0.879578 12.6951 0.289062 12.1049 0.289062 11.3836V1.59999C0.289062 0.878677 0.879578 0.288513 1.60132 0.288513H11.3908C12.1125 0.288513 12.703 0.878677 12.703 1.59999V11.3836C12.6899 12.118 12.1125 12.6951 11.3908 12.6951Z" fill="var(--fill-0, #001A0A)"/>
<path id="Vector_2" d="M11.3904 12.9836H1.60095C0.721735 12.9836 0 12.2623 0 11.3836V1.59999C0 0.721305 0.721735 0 1.60095 0H11.3904C12.2696 0 12.9914 0.721305 12.9914 1.59999V11.3836C12.9782 12.2754 12.2696 12.9836 11.3904 12.9836ZM1.60095 0.590164C1.03668 0.590164 0.590516 1.04917 0.590516 1.59999V11.3836C0.590516 11.9475 1.0498 12.3934 1.60095 12.3934H11.3904C11.9547 12.3934 12.4008 11.9344 12.4008 11.3836V1.59999C12.4008 1.03606 11.9415 0.590164 11.3904 0.590164H1.60095Z" fill="var(--fill-0, white)"/>
</g>
</svg>
