<svg preserveAspectRatio="none" width="100%" height="100%" overflow="visible" style="display: block;" viewBox="0 0 136.839 184.06" fill="none" xmlns="http://www.w3.org/2000/svg">
<g id="Group">
<path id="Vector" d="M26.236 121.949C20.7245 129.582 16.5122 142.631 13.3103 157.792C13.1003 158.789 10.6989 176.402 11.6831 176.717C32.01 183.104 33.4666 183.104 47.114 183.969C50.5521 184.192 65.1182 183.969 75.2226 183.681C76.1018 183.654 76.8498 183.09 76.8104 182.212C75.5638 159.261 73.3723 131.589 73.3723 131.589L26.236 121.949Z" fill="var(--fill-0, #001A0A)"/>
<path id="Vector_2" d="M76.7964 182.513C76.639 182.513 76.5209 182.395 76.5077 182.238C75.3267 160.625 73.3058 134.487 73.0959 131.838L26.3664 122.277C21.4192 129.215 17.1281 141.189 13.5981 157.858C13.2963 159.3 11.236 175.261 11.8397 176.481C11.9447 176.546 11.9972 176.677 11.9578 176.808C11.9053 176.966 11.7478 177.045 11.5904 176.992C11.2492 176.887 10.7374 176.73 11.761 167.484C12.2465 163.025 12.9157 158.277 13.0207 157.74C16.5901 140.861 20.9599 128.756 25.9989 121.779C26.0646 121.687 26.1827 121.648 26.2876 121.661L73.4108 131.313C73.542 131.34 73.6339 131.445 73.647 131.576C73.6733 131.851 75.8385 159.51 77.0851 182.212C77.0983 182.369 76.967 182.513 76.8096 182.513H76.7964Z" fill="var(--fill-0, white)"/>
<g id="Group_2">
<g id="Group_3">
<path id="Vector_3" d="M85.1032 64.8609C85.1032 64.8609 97.8452 73.4249 103.803 71.8118C112.188 69.5429 115.876 48.2052 116.23 46.3167C116.584 44.4282 118.211 34.815 119.878 31.2347C121.453 27.8642 122.411 24.415 122.909 22.3036C123.211 21.0314 124.09 20.4019 124.943 20.5331C125.704 20.6511 126.203 21.2413 125.783 23.1429C125.285 25.3462 124.851 27.5626 124.445 29.4511C124.313 30.0413 124.077 30.6052 124.497 30.1855C125.468 29.2019 127.043 28.1134 128.631 27.5757C129.326 27.3396 134.877 21.3331 136.36 22.0675C137.685 22.7232 130.153 30.9724 130.455 31.956C131.203 34.3823 130.77 37.6347 129.589 40.5593C127.581 45.5429 124.366 44.9921 123.815 47.3396C123.264 49.6872 120.364 79.4839 118.054 84.9396C114.721 92.7822 82.7674 87.0642 82.7674 87.0642L85.1032 64.8609Z" fill="var(--fill-0, #001A0A)"/>
<path id="Vector_4" d="M103.777 89.3855C94.2372 89.3855 83.4898 87.497 82.7156 87.3527C82.5713 87.3265 82.4663 87.1822 82.4794 87.038L84.8152 64.8216C84.8283 64.7167 84.894 64.638 84.9858 64.5855C85.0777 64.5462 85.1827 64.5462 85.2745 64.6118C85.4057 64.6904 97.964 73.0839 103.725 71.5232C110.877 69.5822 114.617 53.3855 115.903 46.5003L115.955 46.2511C115.994 46.0413 116.047 45.7265 116.126 45.3331C116.677 42.3167 118.133 34.3167 119.629 31.1036C121.152 27.8511 122.11 24.4806 122.648 22.2249C122.976 20.874 123.92 20.074 125.01 20.2445C125.43 20.3101 125.745 20.4937 125.954 20.7954C126.296 21.2937 126.335 22.0806 126.086 23.2085C125.771 24.5986 125.495 25.9626 125.22 27.3003C125.062 28.074 124.905 28.8085 124.76 29.5167C124.76 29.5429 124.747 29.556 124.747 29.5822C125.679 28.756 127.057 27.8117 128.566 27.3134C128.736 27.2478 129.524 26.5265 130.206 25.897C133.001 23.3396 135.403 21.2675 136.518 21.8183C136.676 21.897 136.767 22.0281 136.82 22.1986C137.017 23.0249 135.639 24.9527 133.356 28.0085C132.253 29.4773 130.757 31.4839 130.77 31.8904C131.492 34.2249 131.164 37.5167 129.891 40.6773C128.697 43.6281 127.057 44.7298 125.85 45.5298C124.97 46.1068 124.34 46.5396 124.13 47.4183C123.973 48.074 123.606 51.156 123.146 55.038C121.978 64.8085 120.023 81.1495 118.357 85.0708C116.9 88.4019 110.654 89.3855 103.777 89.3855ZM83.083 86.8281C86.1537 87.3527 114.735 92.0085 117.779 84.8347C119.406 80.9921 121.362 64.7036 122.53 54.9593C123.015 50.9068 123.369 47.9691 123.527 47.274C123.789 46.1724 124.577 45.6478 125.495 45.0314C126.702 44.2314 128.198 43.2347 129.314 40.4544C130.534 37.4249 130.849 34.2773 130.167 32.0347C130.009 31.5232 130.77 30.4216 132.844 27.6544C134.195 25.8445 136.453 22.8281 136.203 22.3167C135.363 21.9101 132.122 24.8872 130.561 26.3167C129.471 27.3265 128.973 27.7724 128.71 27.8511C127.044 28.4019 125.508 29.5691 124.695 30.3822C124.59 30.4872 124.367 30.7101 124.13 30.579C123.881 30.4347 123.96 30.1724 124.065 29.779C124.091 29.6609 124.13 29.5298 124.157 29.3986C124.301 28.7036 124.459 27.956 124.616 27.1954C124.892 25.8708 125.18 24.4937 125.495 23.1036C125.705 22.1593 125.692 21.5036 125.456 21.1495C125.338 20.979 125.167 20.874 124.905 20.8347C124.13 20.7167 123.448 21.3331 123.199 22.3822C122.661 24.6642 121.69 28.074 120.141 31.3659C118.671 34.5134 117.228 42.4609 116.677 45.4511C116.611 45.8445 116.546 46.1593 116.506 46.3691L116.454 46.6183C115.155 53.6085 111.336 70.0675 103.869 72.0872C103.331 72.2314 102.741 72.297 102.111 72.297C96.35 72.297 87.361 66.6708 85.3401 65.3593L83.083 86.8281Z" fill="var(--fill-0, white)"/>
</g>
<path id="Vector_5" d="M31.4846 53.2675C46.838 46.4216 76.5212 47.838 97.3468 70.1724C99.8007 72.7954 92.7276 92.5987 86.4157 91.2478C80.8386 90.0413 76.2982 88.6511 75.8782 91.8773C75.2877 96.3364 79.2901 132.035 73.4637 142.107C63.0706 160.1 32.0488 157.412 16.0918 148.638C11.8794 146.317 16.3017 139.956 19.3987 119.169C21.7082 103.681 23.0467 90.8544 20.1991 95.8118C18.795 98.238 4.12398 83.6282 5.65932 79.2741C9.00558 69.6741 14.9107 60.6511 31.4846 53.2675Z" fill="var(--fill-0, white)"/>
<path id="Vector_6" d="M112.857 48.2183L125.153 49.8839C125.993 78.2118 123.29 98.579 86.4023 91.2347L91.3889 64.8872C105.141 74.474 110.259 62.815 112.857 48.2183Z" fill="var(--fill-0, white)"/>
<path id="Vector_7" d="M9.05857 72.179C-8.86687 98.2249 1.43435 151.471 25.7374 151.864L25.1075 128.848C23.0735 126.277 22.0499 100.874 25.8948 92.8085L9.05857 72.179Z" fill="var(--fill-0, white)"/>
<path id="Vector_8" d="M15.017 148.1C14.9907 148.1 14.9645 148.1 14.9382 148.087C14.7808 148.048 14.6889 147.89 14.7414 147.733C18.3632 134.749 20.3841 113.963 21.0665 98.8412C21.0796 98.6839 21.2108 98.5527 21.3683 98.5658C21.5258 98.5789 21.657 98.7101 21.6439 98.8675C20.9615 114.028 18.9406 134.854 15.3057 147.89C15.2663 148.008 15.1482 148.1 15.017 148.1Z" fill="var(--fill-0, #001A0A)"/>
</g>
<g id="Group_4">
<g id="Group_5">
<path id="Vector_9" d="M40.7899 50.92C40.9604 50.3036 46.9968 45.3068 45.409 34.0544C45.409 34.0544 37.2336 22.9593 39.7269 18.0544C42.2071 13.1626 41.9971 5.92323 50.3431 5.85766C58.689 5.79208 63.5969 9.54291 65.5259 14.4085C67.4549 19.2741 67.9536 24.1527 68.1373 26.9855C68.2685 29.0839 67.993 33.7659 67.8355 36.0609C67.783 36.8478 67.2318 37.5167 66.4707 37.7265L63.9512 38.4347C63.1245 38.6708 62.5733 39.4183 62.5865 40.2708L62.6783 44.7691C63.072 55.7855 59.5026 54.2511 56.8913 54.8413C50.2119 56.3757 39.9106 54.1462 40.7899 50.92Z" fill="var(--fill-0, #001A0A)"/>
<path id="Vector_10" d="M52.0363 55.6413C47.4827 55.6413 42.8111 54.5265 41.1052 52.756C40.5409 52.1658 40.3309 51.497 40.5015 50.8413C40.5409 50.6839 40.6853 50.5265 40.9871 50.1593C42.3387 48.5199 46.4329 43.5626 45.1338 34.1724C44.4252 33.1888 36.9978 22.7888 39.4648 17.9363C40.0554 16.7691 40.5015 15.4445 40.9346 14.1593C42.3387 9.96257 43.8084 5.62159 50.3435 5.58224C57.9414 5.52979 63.571 8.70356 65.7887 14.3167C67.2322 17.9757 68.1246 22.238 68.4133 26.9724C68.5445 29.0445 68.282 33.5691 68.1114 36.0872C68.0458 36.9921 67.4159 37.7659 66.5367 38.015L64.0172 38.7232C63.3217 38.9199 62.8493 39.5626 62.8624 40.2839L62.9543 44.7822C63.2954 54.4478 60.5397 54.7363 58.0989 54.9855C57.6921 55.0249 57.2984 55.0642 56.9441 55.156C55.4481 55.4839 53.7553 55.6413 52.0363 55.6413ZM41.0658 50.9986C40.9477 51.4577 41.092 51.9036 41.5251 52.3495C43.7034 54.6183 51.5639 55.7593 56.8129 54.5658C57.2197 54.474 57.6396 54.4347 58.0464 54.3954C60.3429 54.1593 62.7049 53.9101 62.3769 44.7822L62.285 40.2708C62.2588 39.2872 62.9149 38.4085 63.8597 38.1462L66.3793 37.438C67.0223 37.2544 67.4816 36.6904 67.534 36.0216C67.7046 33.5167 67.9671 29.0314 67.8359 26.9855C67.5472 22.3036 66.668 18.1068 65.2507 14.5003C63.1249 9.13634 57.7052 6.09372 50.3435 6.13306C44.2152 6.17241 42.8898 10.1331 41.4857 14.3167C41.0527 15.615 40.5934 16.9658 39.9898 18.1724C37.6146 22.8544 45.5669 33.7527 45.6456 33.8708C45.6718 33.9101 45.6981 33.9495 45.6981 34.0019C47.0628 43.6937 42.8242 48.8216 41.4332 50.5134C41.2758 50.7232 41.1052 50.9331 41.0658 50.9986Z" fill="var(--fill-0, white)"/>
</g>
<path id="Vector_11" d="M62.691 21.9363C63.7014 21.5167 64.3575 20.5331 64.3838 19.4314C64.41 18.1199 63.6095 15.1036 65.5254 14.4085C70.6695 12.5462 68.6749 6.35601 65.6042 4.07405C62.5466 1.79208 50.5526 -2.0112 44.4768 1.29372C44.4768 1.29372 42.0754 3.30028 42.6134 5.29372C42.6134 5.29372 37.7843 5.43798 36.6558 9.0052C35.5272 12.5724 33.6245 25.7134 45.671 35.6413C45.671 35.6413 48.781 36.0085 52.2323 35.0904C54.24 34.5527 55.7097 32.8347 55.9984 30.7757C56.4315 27.615 57.7044 22.7888 58.5836 21.3462C58.5836 21.3462 58.0324 19.1036 59.2791 18.5396C60.0927 18.1724 61.09 19.1167 61.5231 19.8904L62.691 21.9363Z" fill="var(--fill-0, white)"/>
<path id="Vector_12" d="M67.4938 37.1888C67.4807 37.1888 67.4676 37.1888 67.4413 37.1888C67.402 37.1757 62.914 36.3757 61.8774 31.5101C61.838 31.3527 61.943 31.1954 62.1004 31.1691C62.2579 31.1298 62.4154 31.2347 62.4416 31.3921C63.4127 35.8773 67.4938 36.6117 67.5332 36.6117C67.6907 36.638 67.7956 36.7822 67.7694 36.9396C67.7563 37.0839 67.6382 37.1888 67.4938 37.1888Z" fill="var(--fill-0, white)"/>
<path id="Vector_13" d="M61.8386 26.8937C61.6811 26.8937 58.0593 26.7364 57.1013 20.3364C57.0751 20.179 57.1932 20.0347 57.3506 20.0085C57.5081 19.9823 57.6525 20.1003 57.6787 20.2577C58.5579 26.1462 61.7205 26.3167 61.8517 26.3298C62.0092 26.3298 62.1404 26.4741 62.1273 26.6314C62.1141 26.7757 61.996 26.8937 61.8386 26.8937Z" fill="var(--fill-0, white)"/>
</g>
</g>
</svg>
