<svg preserveAspectRatio="none" width="100%" height="100%" overflow="visible" style="display: block;" viewBox="0 0 21.8228 21.823" fill="none" xmlns="http://www.w3.org/2000/svg">
<path id="Vector" d="M21.7966 9.03607L21.2323 6.99017L18.9096 7.0951C18.6997 6.64919 18.4503 6.2164 18.1616 5.80984L19.3952 3.84263L17.8861 2.34754L15.9308 3.59345C15.524 3.31804 15.091 3.06886 14.6448 2.85902L14.7235 0.537718L12.6633 0L11.6004 2.05903C11.1148 2.01968 10.6162 2.01968 10.1175 2.07214L9.02833 0.0262391L6.9812 0.590164L7.08619 2.91149C6.64002 3.12132 6.20698 3.3705 5.8133 3.65902L3.84491 2.42623L2.34894 3.93443L3.59558 5.88853C3.32001 6.29509 3.07068 6.72788 2.86072 7.17378L0.538022 7.0951L0 9.15411L2.06024 10.2164C2.02087 10.7016 2.02088 11.2 2.07337 11.6984L0.0262387 12.7869L0.590516 14.8328L2.91321 14.7279C3.12317 15.1738 3.3725 15.6066 3.66119 16.0131L2.42768 17.9803L3.93677 19.4754L5.89203 18.2295C6.29883 18.5049 6.73188 18.7541 7.17804 18.9639L7.09931 21.2853L9.15956 21.823L10.2225 19.7639C10.708 19.8033 11.2067 19.8033 11.7053 19.7508L12.7945 21.7967L14.8416 21.2328L14.7366 18.9115C15.1828 18.7017 15.6159 18.4525 16.0095 18.1639L17.9779 19.3967L19.4739 17.8885L18.2273 15.9344C18.5028 15.5279 18.7522 15.0951 18.9621 14.6492L21.2848 14.7279L21.8228 12.6689L19.7626 11.6066C19.802 11.1213 19.802 10.623 19.7495 10.1246L21.7966 9.03607ZM12.3615 16.1836C9.44825 16.9836 6.44319 15.2656 5.64271 12.3541C4.84223 9.44263 6.56128 6.42623 9.47449 5.63934C12.3877 4.83934 15.3928 6.55739 16.1933 9.46886C16.9806 12.3803 15.2747 15.3836 12.3615 16.1836Z" fill="var(--fill-0, white)"/>
</svg>
