<svg preserveAspectRatio="none" width="100%" height="100%" overflow="visible" style="display: block;" viewBox="0 0 34.6174 34.6605" fill="none" xmlns="http://www.w3.org/2000/svg">
<g id="Group">
<path id="Vector" d="M10.9907 33.3359L14.1795 34.254L15.9116 31.0802C16.6859 31.1589 17.4601 31.172 18.2212 31.1196L19.8484 34.3458L23.0634 33.5458L22.9847 29.9261C23.6802 29.6114 24.3626 29.231 25.0056 28.8114L28.0369 30.7917L30.4252 28.4966L28.5487 25.4146C28.9948 24.7982 29.3885 24.1294 29.7297 23.4343L33.3384 23.6441L34.257 20.4572L31.0813 18.713C31.1601 17.9392 31.1732 17.1655 31.1207 16.4048L34.3489 14.7786L33.5484 11.5655L29.9266 11.6441C29.6116 10.9491 29.2311 10.2671 28.8111 9.62446L30.7926 6.59496L28.4962 4.20807L25.4124 6.08348C24.7956 5.63758 24.1264 5.24414 23.4309 4.90315L23.6408 1.29659L20.4521 0.378562L18.7068 3.57857C17.9325 3.49988 17.1583 3.48676 16.3972 3.53922L14.77 0.312988L11.5549 1.11299L11.6337 4.73266C10.9382 5.04742 10.2558 5.42774 9.61281 5.84742L6.58149 3.86709L4.19318 6.16217L6.06971 9.24414C5.62354 9.86053 5.22987 10.5294 4.88868 11.2245L1.27997 11.0146L0.361389 14.2015L3.53705 15.9327C3.45832 16.7064 3.4452 17.4802 3.49769 18.2409L0.269531 19.8671L1.07001 23.0802L4.69184 23.0015C5.00678 23.6966 5.38734 24.3786 5.80726 25.0212L3.82575 28.0507L6.1222 30.4376L9.206 28.5622C9.82277 29.0081 10.492 29.4015 11.1875 29.7425L10.9907 33.3359ZM9.11415 14.9884C10.4133 10.4638 15.1374 7.84086 19.6647 9.13922C24.192 10.4376 26.8165 15.1589 25.5174 19.6835C24.2182 24.2081 19.4941 26.831 14.9668 25.5327C10.4264 24.2343 7.81501 19.513 9.11415 14.9884Z" fill="var(--fill-0, #001A0A)"/>
<path id="Vector_2" d="M19.8479 34.6474C19.7429 34.6474 19.6379 34.5818 19.5854 34.49L18.0501 31.4343C17.4071 31.4736 16.7378 31.4605 16.0817 31.3949L14.4414 34.3982C14.3758 34.5163 14.2314 34.5818 14.1002 34.5425L10.9114 33.6245C10.7802 33.5851 10.6883 33.4671 10.7015 33.3228L10.8983 29.8999C10.3078 29.5982 9.74351 29.2572 9.20549 28.89L6.27915 30.6605C6.16105 30.7261 6.0167 30.713 5.92484 30.6081L3.62839 28.2212C3.53653 28.1294 3.52341 27.972 3.58902 27.854L5.46555 24.995C5.11124 24.4441 4.78318 23.8671 4.5076 23.2769L1.08261 23.3556C0.951387 23.3556 0.833284 23.2638 0.807039 23.1326L0.00656128 19.9195C-0.0196839 19.7884 0.0328065 19.6572 0.164032 19.5917L3.22159 18.0572C3.18223 17.4146 3.19535 16.7458 3.26096 16.09L0.25589 14.4507C0.137787 14.3851 0.0852966 14.2408 0.111542 14.1097L1.03012 10.9228C1.06949 10.7917 1.17447 10.6999 1.33194 10.713L4.75693 10.9097C5.05875 10.3195 5.39994 9.7556 5.76737 9.2179L3.99582 6.29331C3.93021 6.17528 3.94333 6.03101 4.04831 5.93921L6.43662 3.64413C6.52848 3.55232 6.68595 3.53921 6.80406 3.60479L9.66478 5.48019C10.2159 5.1261 10.7933 4.79823 11.3838 4.52282L11.3051 1.09986C11.3051 0.968715 11.397 0.850689 11.5282 0.811344L14.7432 0.0113395C14.8744 -0.0280048 15.0057 0.0375706 15.0713 0.168718L16.6066 3.22445C17.2496 3.18511 17.9189 3.19822 18.575 3.2638L20.2285 0.260523C20.2941 0.14249 20.4384 0.0900264 20.5696 0.116256L23.7584 1.03429C23.8897 1.07363 23.9815 1.19167 23.9684 1.33593L23.7191 4.75888C24.3096 5.06052 24.8738 5.40151 25.4119 5.76872L28.3382 3.99823C28.4563 3.93265 28.6007 3.94576 28.6925 4.05068L30.989 6.43757C31.0808 6.52937 31.0939 6.68675 31.0283 6.80478L29.1518 9.6638C29.5061 10.2146 29.8342 10.7917 30.1098 11.3818L33.5347 11.3031C33.666 11.3031 33.7841 11.3949 33.8103 11.5261L34.6108 14.7392C34.637 14.8704 34.5845 15.0015 34.4533 15.0671L31.3958 16.6015C31.4351 17.2441 31.422 17.913 31.3564 18.5687L34.3615 20.2212C34.4796 20.2868 34.5321 20.431 34.5058 20.5622L33.5872 23.7491C33.5479 23.8802 33.4298 23.972 33.2854 23.9589L29.8604 23.7622C29.5586 24.3523 29.2174 24.9163 28.85 25.454L30.6215 28.3786C30.6871 28.4966 30.674 28.6409 30.569 28.7327L28.1807 31.0277C28.0889 31.1195 27.9314 31.1327 27.8133 31.0671L24.9526 29.1917C24.4014 29.5458 23.824 29.8736 23.2335 30.149L23.3123 33.572C23.3123 33.7031 23.2204 33.8212 23.0892 33.8605L19.8741 34.6605C19.9004 34.6474 19.8741 34.6474 19.8479 34.6474ZM18.2207 30.831C18.3257 30.831 18.4307 30.8966 18.4831 30.9884L20.0054 34.0048L22.7742 33.3097L22.6955 29.9261C22.6955 29.8081 22.7611 29.7032 22.8661 29.6507C23.5485 29.3359 24.2177 28.9687 24.8345 28.5622C24.9263 28.4966 25.0576 28.4966 25.1494 28.5622L27.9839 30.4245L30.031 28.4441L28.2726 25.5589C28.207 25.454 28.2201 25.3359 28.2857 25.2441C28.7188 24.6408 29.1124 23.9851 29.4405 23.3031C29.493 23.1982 29.598 23.1326 29.7161 23.1458L33.1017 23.3425L33.8891 20.6015L30.9234 18.9753C30.8184 18.9228 30.7659 18.8048 30.779 18.6867C30.8577 17.9261 30.8709 17.1654 30.8184 16.431C30.8052 16.313 30.8709 16.2081 30.9758 16.1556L33.994 14.6343L33.2985 11.8671L29.9129 11.9458C29.7948 11.9458 29.6898 11.8802 29.6373 11.7753C29.3355 11.0933 28.955 10.4245 28.5482 9.80806C28.4826 9.71626 28.4826 9.58511 28.5482 9.49331L30.4116 6.66052L28.4432 4.61462L25.5562 6.372C25.4512 6.43757 25.3331 6.42446 25.2413 6.35888C24.6376 5.9261 23.9815 5.53266 23.2991 5.20479C23.1942 5.15233 23.1285 5.04741 23.1417 4.92937L23.3385 1.54577L20.5959 0.758882L18.9687 3.72281C18.9162 3.82773 18.8112 3.8802 18.68 3.86708C17.9189 3.78839 17.1578 3.77528 16.4229 3.82774C16.3048 3.84085 16.1998 3.77528 16.1473 3.67036L14.6251 0.653966L11.8562 1.34905L11.935 4.73265C11.935 4.85068 11.8694 4.95561 11.7644 5.00807C11.082 5.30971 10.4128 5.69003 9.796 6.09659C9.70414 6.16216 9.57292 6.16216 9.48106 6.09659L6.63346 4.23429L4.58634 6.20151L6.34477 9.08675C6.41038 9.19167 6.39726 9.30971 6.33164 9.40151C5.8986 10.0048 5.50492 10.6605 5.17686 11.3425C5.12437 11.4474 5.01939 11.513 4.90128 11.4999L1.51566 11.3031L0.728303 14.0441L3.69401 15.6704C3.79899 15.7228 3.85148 15.8409 3.83835 15.9589C3.75962 16.7195 3.7465 17.4802 3.79899 18.2146C3.81211 18.3326 3.7465 18.4376 3.64151 18.49L0.623322 20.0113L1.31882 22.7786L4.70444 22.6999C4.82255 22.6999 4.92753 22.7654 4.98002 22.8704C5.28184 23.5523 5.64927 24.2212 6.06919 24.8376C6.1348 24.9294 6.1348 25.0605 6.06919 25.1523L4.20579 27.9851L6.1873 30.031L9.07426 28.2736C9.17924 28.2081 9.29735 28.2212 9.3892 28.2868C9.99284 28.7195 10.6358 29.113 11.3313 29.4408C11.4363 29.4933 11.5019 29.5982 11.4888 29.7163L11.292 33.0999L14.0346 33.8867L15.6618 30.9228C15.7143 30.8179 15.8324 30.7654 15.9505 30.7786C16.7116 30.8572 17.4727 30.8704 18.2076 30.8179C18.2076 30.831 18.2207 30.831 18.2207 30.831ZM17.3284 26.149C16.5148 26.149 15.688 26.031 14.8876 25.8081C10.2159 24.4704 7.49955 19.5786 8.83806 14.9097C9.48106 12.6409 10.977 10.7654 13.0373 9.62445C15.0975 8.48347 17.4858 8.20806 19.7429 8.8638C24.4146 10.2015 27.1309 15.0933 25.7924 19.7622C25.1494 22.031 23.6534 23.9064 21.5932 25.0474C20.2547 25.7818 18.7981 26.149 17.3284 26.149ZM9.3892 15.0671C8.14256 19.4343 10.6752 23.9982 15.0319 25.2572C17.1446 25.8605 19.3755 25.6113 21.2914 24.549C23.2204 23.4868 24.6114 21.7294 25.215 19.6179C26.4617 15.2507 23.929 10.6867 19.5723 9.42773C17.4596 8.82445 15.2287 9.07364 13.3129 10.1359C11.397 11.1982 9.99284 12.9425 9.3892 15.0671Z" fill="var(--fill-0, white)"/>
</g>
</svg>
