<svg preserveAspectRatio="none" width="100%" height="100%" overflow="visible" style="display: block;" viewBox="0 0 216.007 182.502" fill="none" xmlns="http://www.w3.org/2000/svg">
<g id="Group">
<g id="Group_2">
<path id="Vector" d="M117.906 177.964C117.761 177.964 117.63 177.859 117.617 177.715C117.591 177.557 117.709 177.413 117.866 177.387C143.219 174.226 170.409 153.426 170.685 153.216C170.816 153.124 171 153.138 171.091 153.269C171.183 153.4 171.17 153.584 171.039 153.675C170.763 153.885 143.442 174.777 117.932 177.951C117.932 177.964 117.919 177.964 117.906 177.964Z" fill="var(--fill-0, white)"/>
<path id="Vector_2" d="M115.727 182.502C115.57 182.502 115.438 182.384 115.438 182.226C115.425 182.069 115.557 181.925 115.714 181.925C135.529 181.007 161.236 164.993 161.499 164.823C161.63 164.744 161.814 164.784 161.905 164.915C161.997 165.046 161.945 165.23 161.814 165.321C161.551 165.479 135.713 181.584 115.753 182.502C115.74 182.502 115.727 182.502 115.727 182.502Z" fill="var(--fill-0, white)"/>
<path id="Vector_3" d="M113.496 180.784C112.971 180.784 112.446 180.587 112.052 180.193C111.238 179.393 111.225 178.082 112.026 177.269C112.826 176.456 114.139 176.443 114.952 177.243C115.766 178.043 115.779 179.354 114.978 180.167C114.572 180.574 114.034 180.784 113.496 180.784ZM112.446 179.774C113.036 180.351 113.981 180.338 114.558 179.747C115.136 179.157 115.123 178.213 114.532 177.636C113.942 177.059 112.997 177.072 112.42 177.662C111.855 178.252 111.855 179.21 112.446 179.774Z" fill="var(--fill-0, white)"/>
<path id="Vector_4" d="M176.103 152.482H176.09C175.985 152.482 175.893 152.416 175.841 152.325L173.321 147.21C173.282 147.118 173.282 147.026 173.334 146.934C173.387 146.856 173.465 146.79 173.557 146.79L179.777 146.239C179.882 146.226 180 146.279 180.053 146.384C180.105 146.475 180.105 146.593 180.053 146.685L176.365 152.364C176.287 152.429 176.195 152.482 176.103 152.482ZM174.03 147.328L176.142 151.603L179.226 146.856L174.03 147.328Z" fill="var(--fill-0, white)"/>
</g>
<g id="Group_3">
<path id="Vector_5" d="M210.879 5.41311C210.8 5.41311 210.734 5.38689 210.669 5.33443C210.551 5.21639 210.551 5.03279 210.669 4.92787L211.679 3.91803C211.797 3.8 211.981 3.8 212.086 3.91803C212.204 4.03606 212.204 4.21967 212.086 4.32459L211.075 5.33443C211.023 5.38689 210.944 5.41311 210.879 5.41311Z" fill="var(--fill-0, white)"/>
<path id="Vector_6" d="M214.697 1.58361C214.618 1.58361 214.553 1.55738 214.487 1.50492C214.369 1.38688 214.369 1.20328 214.487 1.09836L215.497 0.0885246C215.616 -0.0295082 215.799 -0.0295082 215.904 0.0885246C216.022 0.206557 216.022 0.390161 215.904 0.495079L214.894 1.50492C214.854 1.55738 214.776 1.58361 214.697 1.58361Z" fill="var(--fill-0, white)"/>
<path id="Vector_7" d="M215.721 5.41311C215.642 5.41311 215.577 5.38688 215.511 5.33443L214.501 4.32459C214.383 4.20655 214.383 4.02295 214.501 3.91803C214.619 3.81311 214.803 3.8 214.907 3.91803L215.918 4.92787C216.036 5.0459 216.036 5.22951 215.918 5.33443C215.865 5.38688 215.787 5.41311 215.721 5.41311Z" fill="var(--fill-0, white)"/>
<path id="Vector_8" d="M211.889 1.58361C211.81 1.58361 211.745 1.55738 211.679 1.50492L210.669 0.495079C210.551 0.377046 210.551 0.193443 210.669 0.0885246C210.787 -0.0295082 210.97 -0.0295082 211.075 0.0885246L212.086 1.09836C212.204 1.21639 212.204 1.4 212.086 1.50492C212.033 1.55738 211.955 1.58361 211.889 1.58361Z" fill="var(--fill-0, white)"/>
</g>
<g id="Group_4">
<path id="Vector_9" d="M1.9813 48.1934C1.94194 48.1934 1.90257 48.1803 1.8632 48.1672C1.71885 48.1016 1.65324 47.9311 1.71885 47.7869L2.30937 46.4885C2.37498 46.3443 2.54558 46.2787 2.68992 46.3443C2.83427 46.4098 2.89988 46.5803 2.83427 46.7246L2.24376 48.0229C2.20439 48.1279 2.09941 48.1934 1.9813 48.1934Z" fill="var(--fill-0, white)"/>
<path id="Vector_10" d="M4.22544 43.2754C4.18608 43.2754 4.14671 43.2623 4.10734 43.2492C3.96299 43.1836 3.89738 43.0131 3.96299 42.8689L4.55351 41.5705C4.61912 41.4262 4.78972 41.3607 4.93406 41.4262C5.07841 41.4918 5.14403 41.6623 5.07841 41.8066L4.4879 43.1049C4.44853 43.2098 4.34355 43.2754 4.22544 43.2754Z" fill="var(--fill-0, white)"/>
<path id="Vector_11" d="M6.52067 46.5017C6.48131 46.5017 6.44194 46.4885 6.40257 46.4754L5.10344 45.8853C4.95909 45.8197 4.89347 45.6492 4.95909 45.5049C5.0247 45.3607 5.19529 45.2951 5.33964 45.3607L6.63878 45.9508C6.78313 46.0164 6.84874 46.1869 6.78313 46.3312C6.73063 46.4361 6.62565 46.5017 6.52067 46.5017Z" fill="var(--fill-0, white)"/>
<path id="Vector_12" d="M1.58708 44.259C1.54771 44.259 1.50834 44.2459 1.46898 44.2328L0.169842 43.6426C0.0254935 43.577 -0.0401194 43.4066 0.0254935 43.2623C0.0911064 43.118 0.2617 43.0525 0.406048 43.118L1.70518 43.7082C1.84953 43.7738 1.91514 43.9443 1.84953 44.0885C1.81016 44.1934 1.70518 44.259 1.58708 44.259Z" fill="var(--fill-0, white)"/>
</g>
<path id="Vector_13" d="M15.024 64.1016C13.8692 64.1016 12.9375 63.1705 12.9375 62.0164C12.9375 60.8623 13.8692 59.9312 15.024 59.9312C16.1788 59.9312 17.1105 60.8623 17.1105 62.0164C17.1236 63.1705 16.1788 64.1016 15.024 64.1016ZM15.024 60.5082C14.1973 60.5082 13.5149 61.1902 13.5149 62.0164C13.5149 62.8426 14.1973 63.5246 15.024 63.5246C15.8507 63.5246 16.5331 62.8426 16.5331 62.0164C16.5331 61.1771 15.8638 60.5082 15.024 60.5082Z" fill="var(--fill-0, white)"/>
</g>
</svg>
