<svg preserveAspectRatio="none" width="100%" height="100%" overflow="visible" style="display: block;" viewBox="0 0 68.9199 42.518" fill="none" xmlns="http://www.w3.org/2000/svg">
<g id="Group">
<path id="Vector" d="M66.4531 42.2295H2.46742C1.26014 42.2295 0.289062 41.259 0.289062 40.0525V2.46556C0.289062 1.259 1.26014 0.288513 2.46742 0.288513H66.4531C67.6604 0.288513 68.6314 1.259 68.6314 2.46556V40.0525C68.6314 41.259 67.6604 42.2295 66.4531 42.2295Z" fill="var(--fill-0, #001A0A)"/>
<path id="Vector_2" d="M66.4527 42.518H2.46705C1.1023 42.518 0 41.4164 0 40.0525V2.46557C0 1.10164 1.1023 0 2.46705 0H66.4527C67.8175 0 68.9198 1.10164 68.9198 2.46557V40.0525C68.9329 41.4164 67.8175 42.518 66.4527 42.518ZM2.46705 0.577049C1.43037 0.577049 0.577397 1.42951 0.577397 2.46557V40.0525C0.577397 41.0885 1.43037 41.941 2.46705 41.941H66.4527C67.4894 41.941 68.3424 41.0885 68.3424 40.0525V2.46557C68.3424 1.42951 67.4894 0.577049 66.4527 0.577049H2.46705Z" fill="var(--fill-0, white)"/>
</g>
</svg>
