<svg width="220" height="240" viewBox="0 0 220 240" fill="none" xmlns="http://www.w3.org/2000/svg">
<g clip-path="url(#clip0_8_2760)">
<path d="M18.8969 153.298L22.0857 154.216L23.8179 151.043C24.5921 151.121 25.3664 151.134 26.1275 151.082L27.7547 154.308L30.9697 153.508L30.891 149.889C31.5865 149.574 32.2688 149.193 32.9118 148.774L35.9432 150.754L38.3315 148.459L36.4549 145.377C36.9011 144.761 37.2948 144.092 37.636 143.397L41.2447 143.607L42.1633 140.42L38.9876 138.675C39.0663 137.902 39.0794 137.128 39.027 136.367L42.2551 134.741L41.4546 131.528L37.8328 131.607C37.5179 130.911 37.1373 130.23 36.7174 129.587L38.6989 126.557L36.4024 124.171L33.3186 126.046C32.7019 125.6 32.0326 125.207 31.3371 124.866L31.5471 121.259L28.3583 120.341L26.613 123.541C25.8388 123.462 25.0645 123.449 24.3034 123.502L22.6762 120.275L19.4612 121.075L19.5399 124.695C18.8444 125.01 18.1621 125.39 17.5191 125.81L14.4877 123.83L12.0994 126.125L13.976 129.207C13.5298 129.823 13.1361 130.492 12.7949 131.187L9.18622 130.977L8.26764 134.164L11.4433 135.895C11.3646 136.669 11.3514 137.443 11.4039 138.203L8.17578 139.83L8.97626 143.043L12.5981 142.964C12.913 143.659 13.2936 144.341 13.7135 144.984L11.732 148.013L14.0285 150.4L17.1123 148.525C17.729 148.971 18.3983 149.364 19.0938 149.705L18.8969 153.298ZM17.0204 134.951C18.3195 130.426 23.0437 127.803 27.5709 129.102C32.0982 130.4 34.7228 135.121 33.4236 139.646C32.1245 144.171 27.4004 146.793 22.8731 145.495C18.3327 144.197 15.7213 139.475 17.0204 134.951Z" fill="#001A0A"/>
<path d="M27.7541 154.61C27.6492 154.61 27.5442 154.544 27.4917 154.452L25.9564 151.397C25.3133 151.436 24.6441 151.423 23.988 151.357L22.3476 154.361C22.282 154.479 22.1377 154.544 22.0065 154.505L18.8177 153.587C18.6864 153.548 18.5946 153.43 18.6077 153.285L18.8046 149.862C18.214 149.561 17.6498 149.22 17.1117 148.852L14.1854 150.623C14.0673 150.689 13.923 150.675 13.8311 150.57L11.5346 148.184C11.4428 148.092 11.4297 147.934 11.4953 147.816L13.3718 144.957C13.0175 144.407 12.6894 143.83 12.4139 143.239L8.98886 143.318C8.85764 143.318 8.73953 143.226 8.71329 143.095L7.91281 139.882C7.88657 139.751 7.93906 139.62 8.07028 139.554L11.1278 138.02C11.0885 137.377 11.1016 136.708 11.1672 136.052L8.16214 134.413C8.04404 134.348 7.99155 134.203 8.01779 134.072L8.93637 130.885C8.97574 130.754 9.08072 130.662 9.23819 130.675L12.6632 130.872C12.965 130.282 13.3062 129.718 13.6736 129.18L11.9021 126.256C11.8365 126.138 11.8496 125.993 11.9546 125.902L14.3429 123.607C14.4347 123.515 14.5922 123.502 14.7103 123.567L17.571 125.443C18.1222 125.089 18.6996 124.761 19.2901 124.485L19.2113 121.062C19.2113 120.931 19.3032 120.813 19.4344 120.774L22.6495 119.974C22.7807 119.934 22.9119 120 22.9775 120.131L24.5129 123.187C25.1559 123.148 25.8251 123.161 26.4813 123.226L28.1347 120.223C28.2003 120.105 28.3447 120.052 28.4759 120.079L31.6647 120.997C31.7959 121.036 31.8878 121.154 31.8746 121.298L31.6253 124.721C32.2158 125.023 32.7801 125.364 33.3181 125.731L36.2445 123.961C36.3626 123.895 36.5069 123.908 36.5988 124.013L38.8952 126.4C38.9871 126.492 39.0002 126.649 38.9346 126.767L37.0581 129.626C37.4124 130.177 37.7404 130.754 38.016 131.344L41.441 131.266C41.5722 131.266 41.6903 131.357 41.7166 131.489L42.517 134.702C42.5433 134.833 42.4908 134.964 42.3596 135.03L39.302 136.564C39.3414 137.207 39.3283 137.875 39.2626 138.531L42.2677 140.184C42.3858 140.249 42.4383 140.393 42.4121 140.525L41.4935 143.711C41.4541 143.843 41.336 143.934 41.1917 143.921L37.7667 143.725C37.4649 144.315 37.1237 144.879 36.7562 145.416L38.5278 148.341C38.5934 148.459 38.5803 148.603 38.4753 148.695L36.087 150.99C35.9951 151.082 35.8377 151.095 35.7196 151.03L32.8588 149.154C32.3077 149.508 31.7303 149.836 31.1398 150.111L31.2185 153.534C31.2185 153.666 31.1266 153.784 30.9954 153.823L27.7804 154.623C27.8066 154.61 27.7804 154.61 27.7541 154.61ZM26.1269 150.793C26.2319 150.793 26.3369 150.859 26.3894 150.951L27.9116 153.967L30.6805 153.272L30.6017 149.889C30.6017 149.771 30.6674 149.666 30.7723 149.613C31.4547 149.298 32.124 148.931 32.7407 148.525C32.8326 148.459 32.9638 148.459 33.0557 148.525L35.8901 150.387L37.9373 148.407L36.1788 145.521C36.1132 145.416 36.1263 145.298 36.192 145.207C36.625 144.603 37.0187 143.948 37.3468 143.266C37.3992 143.161 37.5042 143.095 37.6223 143.108L41.0079 143.305L41.7953 140.564L38.8296 138.938C38.7246 138.885 38.6721 138.767 38.6853 138.649C38.764 137.889 38.7771 137.128 38.7246 136.393C38.7115 136.275 38.7771 136.17 38.8821 136.118L41.9003 134.597L41.2048 131.83L37.8192 131.908C37.7011 131.908 37.5961 131.843 37.5436 131.738C37.2418 131.056 36.8612 130.387 36.4544 129.77C36.3888 129.679 36.3888 129.548 36.4544 129.456L38.3178 126.623L36.3494 124.577L33.4625 126.334C33.3575 126.4 33.2394 126.387 33.1475 126.321C32.5439 125.889 31.8878 125.495 31.2054 125.167C31.1004 125.115 31.0348 125.01 31.0479 124.892L31.2448 121.508L28.5021 120.721L26.8749 123.685C26.8224 123.79 26.7175 123.843 26.5862 123.83C25.8251 123.751 25.064 123.738 24.3292 123.79C24.2111 123.803 24.1061 123.738 24.0536 123.633L22.5314 120.616L19.7625 121.311L19.8412 124.695C19.8412 124.813 19.7756 124.918 19.6706 124.97C18.9883 125.272 18.319 125.652 17.7023 126.059C17.6104 126.125 17.4792 126.125 17.3873 126.059L14.5397 124.197L12.4926 126.164L14.251 129.049C14.3166 129.154 14.3035 129.272 14.2379 129.364C13.8048 129.967 13.4112 130.623 13.0831 131.305C13.0306 131.41 12.9256 131.475 12.8075 131.462L9.42191 131.266L8.63455 134.007L11.6003 135.633C11.7052 135.685 11.7577 135.803 11.7446 135.921C11.6659 136.682 11.6527 137.443 11.7052 138.177C11.7184 138.295 11.6527 138.4 11.5478 138.452L8.52957 139.974L9.22507 142.741L12.6107 142.662C12.7288 142.662 12.8338 142.728 12.8863 142.833C13.1881 143.515 13.5555 144.184 13.9754 144.8C14.0411 144.892 14.0411 145.023 13.9754 145.115L12.112 147.948L14.0935 149.993L16.9805 148.236C17.0855 148.171 17.2036 148.184 17.2955 148.249C17.8991 148.682 18.5421 149.075 19.2376 149.403C19.3426 149.456 19.4082 149.561 19.3951 149.679L19.1982 153.062L21.9408 153.849L23.568 150.885C23.6205 150.78 23.7386 150.728 23.8567 150.741C24.6179 150.82 25.379 150.833 26.1138 150.78C26.1138 150.793 26.1269 150.793 26.1269 150.793ZM25.2346 146.111C24.421 146.111 23.5943 145.993 22.7938 145.77C18.1222 144.433 15.4058 139.541 16.7443 134.872C17.3873 132.603 18.8833 130.728 20.9435 129.587C23.0038 128.446 25.3921 128.17 27.6492 128.826C32.3208 130.164 35.0372 135.056 33.6987 139.725C33.0557 141.993 31.5597 143.869 29.4995 145.01C28.1609 145.744 26.7043 146.111 25.2346 146.111ZM17.2955 135.03C16.0488 139.397 18.5815 143.961 22.9382 145.22C25.0509 145.823 27.2817 145.574 29.1976 144.511C31.1266 143.449 32.5176 141.692 33.1213 139.58C34.3679 135.213 31.8353 130.649 27.4786 129.39C25.3658 128.787 23.135 129.036 21.2191 130.098C19.3032 131.161 17.8991 132.905 17.2955 135.03Z" fill="white"/>
<path d="M18.6193 216.302L24.0652 217.862L27.044 212.433C28.3694 212.564 29.6948 212.59 30.9939 212.512L33.7759 218.033L39.2743 216.669L39.1299 210.479C40.3372 209.941 41.4789 209.298 42.5812 208.564L47.7646 211.961L51.8457 208.026L48.6307 202.741C49.3918 201.679 50.0742 200.551 50.6647 199.357L56.8454 199.712L58.407 194.269L52.9742 191.292C53.1055 189.967 53.1317 188.643 53.053 187.344L58.5776 184.564L57.2128 179.069L51.019 179.213C50.481 178.007 49.838 176.866 49.1031 175.764L52.5018 170.584L48.5651 166.505L43.2767 169.718C42.2137 168.957 41.0852 168.275 39.891 167.685L40.2453 161.508L34.7995 159.948L31.8207 165.377C30.4953 165.246 29.1699 165.22 27.8708 165.298L25.0888 159.777L19.5904 161.141L19.7348 167.331C18.5275 167.869 17.3858 168.512 16.2835 169.246L11.1001 165.849L7.01899 169.784L10.234 175.069C9.47291 176.131 8.79054 177.259 8.20002 178.452L2.01929 178.098L0.457703 183.541L5.89045 186.518C5.75922 187.843 5.73298 189.167 5.81171 190.466L0.287109 193.246L1.65186 198.741L7.84571 198.597C8.38374 199.803 9.02674 200.944 9.76161 202.046L6.36286 207.226L10.2996 211.305L15.588 208.092C16.651 208.852 17.7795 209.534 18.9737 210.125L18.6193 216.302ZM15.4043 184.879C17.622 177.141 25.7055 172.656 33.461 174.885C41.2033 177.102 45.6912 185.18 43.4604 192.931C41.2427 200.669 33.1592 205.154 25.4037 202.925C17.6614 200.695 13.1866 192.616 15.4043 184.879Z" fill="#001A0A"/>
<path d="M33.7768 218.321C33.6718 218.321 33.5669 218.256 33.5144 218.164L30.8242 212.813C29.6432 212.879 28.4228 212.852 27.2155 212.748L24.3286 218.007C24.2629 218.125 24.1186 218.19 23.9874 218.151L18.5415 216.59C18.4103 216.551 18.3184 216.433 18.3315 216.289L18.6727 210.308C17.5836 209.757 16.5469 209.141 15.5758 208.459L10.458 211.567C10.3399 211.633 10.1955 211.62 10.1037 211.515L6.16691 207.436C6.07505 207.344 6.06193 207.187 6.12754 207.069L9.42131 202.059C8.76518 201.049 8.17466 200 7.67601 198.898L1.67899 199.029C1.53464 199.029 1.42966 198.938 1.39029 198.807L0.0124207 193.311C-0.0138245 193.18 0.0386658 193.049 0.169892 192.984L5.51078 190.295C5.44517 189.115 5.47141 187.895 5.57639 186.689L0.31424 183.803C0.196137 183.738 0.143646 183.593 0.169892 183.462L1.73148 178.02C1.77085 177.889 1.87583 177.797 2.0333 177.81L8.03032 178.151C8.58146 177.062 9.19823 176.026 9.8806 175.056L6.77055 169.941C6.70494 169.823 6.71806 169.679 6.82304 169.587L10.9042 165.652C10.996 165.561 11.1535 165.548 11.2716 165.613L16.2844 168.905C17.2949 168.249 18.3447 167.659 19.447 167.161L19.3157 161.167C19.3157 161.036 19.4076 160.918 19.5388 160.879L25.0372 159.515C25.1684 159.475 25.2996 159.541 25.3652 159.672L28.0554 165.023C29.2364 164.957 30.4568 164.984 31.6641 165.089L34.551 159.829C34.6167 159.711 34.761 159.659 34.8922 159.685L40.3381 161.246C40.4693 161.285 40.5612 161.403 40.5481 161.548L40.2069 167.528C41.2961 168.079 42.3327 168.695 43.3038 169.377L48.4216 166.269C48.5397 166.203 48.6841 166.216 48.7759 166.321L52.7127 170.4C52.8046 170.492 52.8177 170.649 52.7521 170.767L49.4583 175.777C50.1144 176.787 50.7049 177.836 51.2036 178.938L57.2006 178.807C57.3318 178.807 57.4499 178.898 57.4762 179.03L58.8409 184.525C58.8672 184.656 58.8147 184.787 58.6835 184.852L53.3295 187.541C53.3951 188.721 53.3688 189.941 53.2638 191.148L58.526 194.033C58.6441 194.098 58.6966 194.243 58.6703 194.374L57.1088 199.816C57.0694 199.948 56.9513 200.039 56.8069 200.026L50.823 199.685C50.2719 200.774 49.6551 201.81 48.9728 202.78L52.0828 207.895C52.1484 208.013 52.1353 208.157 52.0303 208.249L47.9492 212.184C47.8573 212.275 47.6999 212.289 47.5818 212.223L42.5689 208.931C41.5585 209.587 40.5087 210.177 39.4064 210.675L39.5376 216.669C39.5376 216.8 39.4458 216.918 39.3145 216.957L33.8162 218.321C33.8293 218.321 33.8031 218.321 33.7768 218.321ZM30.9948 212.21C31.0998 212.21 31.2048 212.275 31.2573 212.367L33.9343 217.679L38.9865 216.42L38.8553 210.466C38.8553 210.348 38.9209 210.243 39.0258 210.19C40.2069 209.652 41.3617 209.023 42.4377 208.302C42.5296 208.236 42.6608 208.236 42.7527 208.302L47.7392 211.567L51.4792 207.948L48.3822 202.859C48.3166 202.754 48.3298 202.636 48.3954 202.544C49.1434 201.508 49.8126 200.38 50.4031 199.2C50.4556 199.095 50.5606 199.029 50.6787 199.043L56.6232 199.384L58.0536 194.387L52.8308 191.528C52.7258 191.475 52.6733 191.357 52.6865 191.239C52.8177 189.928 52.8439 188.616 52.7652 187.344C52.7521 187.226 52.8177 187.121 52.9227 187.069L58.2373 184.393L56.9775 179.344L51.0199 179.475C50.9018 179.475 50.7968 179.41 50.7443 179.305C50.2063 178.125 49.5764 176.97 48.8547 175.895C48.789 175.803 48.789 175.672 48.8547 175.58L52.1222 170.597L48.5003 166.859L43.435 169.967C43.3301 170.033 43.2119 170.02 43.1201 169.954C42.0834 169.207 40.9549 168.538 39.7738 167.948C39.6689 167.895 39.6032 167.79 39.6164 167.672L39.9576 161.731L34.9578 160.302L32.0971 165.521C32.0446 165.626 31.9265 165.679 31.8084 165.666C30.4962 165.534 29.1839 165.508 27.911 165.587C27.7929 165.6 27.6879 165.534 27.6354 165.43L24.9584 160.118L19.9062 161.377L20.0375 167.331C20.0375 167.449 19.9719 167.554 19.8669 167.607C18.6858 168.144 17.5442 168.774 16.455 169.495C16.3632 169.561 16.2319 169.561 16.1401 169.495L11.1535 166.23L7.41355 169.849L10.5105 174.938C10.5761 175.043 10.563 175.161 10.4974 175.252C9.74937 176.289 9.08012 177.416 8.4896 178.597C8.43711 178.702 8.33214 178.767 8.21403 178.754L2.2695 178.413L0.839143 183.41L6.06193 186.269C6.16691 186.321 6.2194 186.439 6.20628 186.557C6.07505 187.869 6.04881 189.18 6.12754 190.452C6.14066 190.57 6.07505 190.675 5.97007 190.728L0.655427 193.403L1.91519 198.452L7.87285 198.321C7.99095 198.321 8.09593 198.387 8.14842 198.492C8.68644 199.672 9.31633 200.813 10.0381 201.902C10.1037 201.993 10.1037 202.125 10.0381 202.216L6.77055 207.2L10.3924 210.938L15.4839 207.843C15.5889 207.777 15.707 207.79 15.7989 207.856C16.8356 208.603 17.9641 209.272 19.1451 209.862C19.2501 209.915 19.3157 210.02 19.3026 210.138L18.9614 216.079L23.9611 217.508L26.8218 212.289C26.8743 212.184 26.9793 212.131 27.1105 212.144C28.4228 212.275 29.7351 212.302 31.0079 212.223C30.9817 212.223 30.9948 212.21 30.9948 212.21ZM29.4332 203.777C28.0816 203.777 26.7037 203.593 25.339 203.2C21.5203 202.098 18.3447 199.58 16.4288 196.105C14.4997 192.63 14.0405 188.616 15.1428 184.787C16.245 180.97 18.7646 177.797 22.2421 175.882C25.7196 173.954 29.7351 173.495 33.5669 174.597C37.3855 175.698 40.5612 178.216 42.4771 181.692C44.4061 185.167 44.8654 189.18 43.7631 193.01C41.8734 199.528 35.9027 203.777 29.4332 203.777ZM15.4052 184.879L15.6808 184.957C14.631 188.63 15.064 192.485 16.9143 195.829C18.7646 199.174 21.809 201.587 25.4833 202.636C26.7956 203.016 28.121 203.187 29.4201 203.187C35.6402 203.187 41.3748 199.095 43.1726 192.826C44.2224 189.154 43.7893 185.298 41.9391 181.954C40.0888 178.61 37.0443 176.197 33.37 175.148C29.6957 174.098 25.8377 174.531 22.4914 176.38C19.1451 178.23 16.7306 181.272 15.6808 184.944L15.4052 184.879Z" fill="white"/>
<path d="M132.525 141.639C134.861 138.531 119.428 132.971 119.638 122.046C119.822 112.066 132.853 109.508 132.472 100.367C132.065 90.5836 116.948 88.6689 116.935 78.7017C116.935 71.0164 125.898 69.8623 126.633 61.6394C127.512 51.764 114.822 50.4525 110.689 37.4164C106.831 25.2459 115.688 19.3836 109.232 9.74427C108.392 8.49837 103.143 0.996729 95.7159 0.891811C83.6169 0.708204 67.9879 20.118 70.2975 36.918C72.2265 51.0558 85.4278 52.7607 86.202 67.7902C86.8582 80.5246 77.5411 82.6492 80.5724 92.5246C84.1549 104.21 98.3929 105.128 101.319 118.308C102.855 125.207 99.4296 127.134 102.238 132.013C108.169 142.321 129.94 145.062 132.525 141.639Z" fill="#001A0A"/>
<path d="M126.974 143.331C126.41 143.331 125.819 143.318 125.19 143.279C118.182 142.846 106.214 139.528 101.976 132.157C100.414 129.443 100.716 127.58 101.07 125.43C101.372 123.593 101.713 121.508 101.018 118.374C99.5087 111.567 94.8502 108.026 90.336 104.59C86.2417 101.469 82.0032 98.2557 80.271 92.6164C78.6831 87.4361 80.3891 84.3803 82.3575 80.8525C84.1553 77.6131 86.2024 73.941 85.8874 67.8164C85.4938 60.0918 81.8457 56.0262 77.9876 51.7246C74.5102 47.8426 70.9277 43.8426 69.9829 36.9705C68.5394 26.4262 73.9984 15.9344 79.5755 9.62623C84.7195 3.81639 90.5984 0.537701 95.69 0.61639C103.117 0.721308 108.458 8.13114 109.442 9.61311C112.959 14.859 112.014 19.0951 111.004 23.5672C110.099 27.5934 109.167 31.7508 110.938 37.3508C112.907 43.5803 116.87 47.1082 120.347 50.2164C124.1 53.5607 127.355 56.459 126.882 61.6918C126.515 65.8885 124.074 68.2623 121.712 70.5574C119.376 72.8262 117.185 74.9771 117.185 78.7148C117.185 83.6197 120.898 86.4787 124.835 89.4951C128.615 92.3934 132.512 95.3967 132.722 100.354C132.919 105.023 129.809 107.934 126.502 111.03C123.3 114.033 119.98 117.141 119.888 122.046C119.77 128.42 125.111 132.944 129.008 136.249C131.803 138.623 133.824 140.328 132.709 141.81C132.013 142.793 129.953 143.331 126.974 143.331ZM95.5588 1.18032C90.7297 1.18032 84.9426 4.45901 80.0348 9.99344C74.5364 16.1967 69.1562 26.518 70.5734 36.8656C71.492 43.5541 75.0219 47.4885 78.4338 51.3049C82.1869 55.5016 86.0712 59.8295 86.478 67.7639C86.806 74.059 84.7195 77.8098 82.8692 81.1148C80.9665 84.5377 79.3261 87.4885 80.8352 92.4328C82.5149 97.9016 86.4911 100.918 90.7034 104.118C95.2963 107.607 100.034 111.213 101.595 118.23C102.317 121.469 101.963 123.62 101.648 125.508C101.293 127.633 101.018 129.325 102.474 131.856C106.595 139.03 118.34 142.256 125.216 142.689C128.825 142.911 131.541 142.439 132.276 141.456C133.063 140.42 131.121 138.78 128.654 136.695C124.665 133.311 119.206 128.682 119.324 122.033C119.416 116.879 122.827 113.692 126.121 110.597C129.323 107.593 132.341 104.774 132.158 100.367C131.961 95.6721 128.339 92.8918 124.507 89.941C120.636 86.9639 116.634 83.882 116.634 78.7016C116.634 74.7148 119.022 72.3803 121.332 70.1246C123.615 67.8951 125.977 65.6 126.331 61.6131C126.764 56.6688 123.628 53.8623 119.98 50.6229C116.437 47.4623 112.421 43.8951 110.4 37.5082C108.576 31.7508 109.574 27.3311 110.453 23.423C111.476 18.8852 112.356 14.9508 108.983 9.91475C108.012 8.47213 102.842 1.28524 95.7031 1.18032C95.6506 1.18032 95.5981 1.18032 95.5588 1.18032Z" fill="white"/>
<path d="M127.604 139.882C127.578 139.882 127.552 139.882 127.513 139.869C118.156 136.97 112.264 132.892 109.981 127.738C108.249 123.83 109.233 120.669 110.27 117.325C111.319 113.967 112.395 110.492 110.847 105.862C109.207 100.957 106.254 98.7541 103.406 96.6295C100.638 94.5574 98.0262 92.6033 96.8583 88.4197C95.218 82.5049 98.2886 78.2951 101.267 74.2295C104.154 70.2951 107.133 66.2164 105.978 60.4984C105.047 55.882 102.042 53.1934 98.8529 50.3475C95.4017 47.2656 91.4911 43.7771 89.6671 37.2721C88.3024 32.4328 88.4467 27.2656 90.087 21.8885C90.1395 21.7311 90.297 21.6525 90.4545 21.6918C90.6119 21.7443 90.6907 21.9016 90.6513 22.059C89.0503 27.318 88.906 32.3803 90.2314 37.1148C92.016 43.4492 95.6904 46.741 99.2466 49.9148C102.514 52.8262 105.598 55.5803 106.556 60.3934C107.75 66.3607 104.692 70.5443 101.74 74.5836C98.7086 78.7148 95.8478 82.623 97.4226 88.2754C98.538 92.2623 101.071 94.1639 103.748 96.1705C106.674 98.3607 109.692 100.616 111.385 105.692C112.999 110.505 111.884 114.072 110.808 117.508C109.797 120.748 108.839 123.803 110.493 127.515C112.71 132.498 118.484 136.472 127.67 139.318C127.828 139.371 127.906 139.528 127.867 139.685C127.841 139.803 127.736 139.882 127.604 139.882Z" fill="white"/>
<path d="M138.075 184.066C139.125 181.666 125.753 178.072 114.507 161.154C107.696 150.911 105.072 140.905 102.697 131.515C96.8177 108.275 101.647 103.725 95.4005 92.9049C87.9075 79.9213 78.4592 84.918 67.7906 71.5541C54.6417 55.0688 64.4837 41.7836 50.9937 26.9377C43.6319 18.8197 30.5356 11.6065 19.0271 15.3049C12.0721 17.5475 4.78906 24.0656 4.60534 31.1738C4.42163 38.0328 10.9698 40.3147 16.1007 48.6557C25.2603 63.5541 14.3423 72.4852 20.1687 87.5934C28.0816 108.092 52.9489 103.961 63.5913 128.38C67.8693 138.216 64.195 139.711 67.9874 149.102C80.795 180.8 135.989 188.813 138.075 184.066Z" fill="#001A0A"/>
<path d="M132.708 185.626C132.537 185.626 132.38 185.626 132.209 185.626C124.493 185.508 111.016 182.846 98.3005 177.128C87.54 172.288 73.4989 163.515 67.7118 149.22C65.8484 144.616 65.7697 141.862 65.6778 139.187C65.586 136.275 65.4941 133.521 63.3158 128.498C57.8568 115.948 48.6841 111.029 39.8263 106.282C31.5722 101.862 23.7643 97.6787 19.9063 87.6983C17.2161 80.7213 18.056 75.0295 18.8696 69.5344C19.8407 62.9902 20.7724 56.8 15.8514 48.8131C13.8436 45.5475 11.6259 43.2262 9.67067 41.1672C6.61311 37.9672 4.19855 35.4361 4.31665 31.1606C4.51349 23.9475 11.9015 17.2852 18.9483 15.0295C30.4568 11.3311 43.7369 18.5049 51.2167 26.741C58.093 34.3213 58.9459 41.377 59.8383 48.8393C60.6912 55.9344 61.5705 63.2787 68.0268 71.3705C73.1708 77.8098 77.9212 79.9082 82.5272 81.941C87.2776 84.0393 91.7655 86.0065 95.6629 92.7606C98.9829 98.5049 99.206 102.439 99.5341 108.38C99.8359 113.757 100.203 120.446 102.998 131.436C105.269 140.407 107.841 150.584 114.769 160.997C121.869 171.685 129.742 176.97 134.44 180.131C137.288 182.046 138.849 183.095 138.364 184.197C137.826 185.351 135.096 185.626 132.708 185.626ZM25.4965 14.6098C23.3444 14.6098 21.2054 14.9115 19.1189 15.5803C12.2689 17.7836 5.07776 24.2229 4.89405 31.1738C4.78907 35.2131 7.12489 37.6656 10.0906 40.7606C12.0721 42.8328 14.3161 45.1934 16.3501 48.4983C21.376 56.6688 20.4312 62.9639 19.447 69.6131C18.6334 75.0295 17.8067 80.6426 20.4443 87.4754C24.2236 97.259 31.9397 101.39 40.1019 105.757C49.0515 110.557 58.3161 115.515 63.8669 128.249C66.0977 133.377 66.1896 136.302 66.2815 139.148C66.3602 141.77 66.4521 144.472 68.2761 148.984C78.2361 173.639 115.452 184.787 132.236 185.036C135.989 185.089 137.576 184.511 137.826 183.948C138.114 183.292 136.435 182.164 134.112 180.603C129.375 177.416 121.449 172.092 114.284 161.311C107.303 150.82 104.717 140.59 102.434 131.58C99.639 120.538 99.2585 113.81 98.9567 108.407C98.6286 102.544 98.4186 98.6623 95.1643 93.0361C91.3587 86.4525 87.1595 84.6033 82.3041 82.4524C77.8556 80.4984 72.8165 78.2688 67.5806 71.7115C61.0324 63.5016 60.1401 56.0787 59.274 48.8918C58.3948 41.5213 57.5549 34.5443 50.7968 27.1082C44.7867 20.5246 35.0104 14.6098 25.4965 14.6098Z" fill="white"/>
<path d="M128.443 182.925C128.403 182.925 128.364 182.911 128.324 182.898C117.341 178.295 108.549 172.852 102.197 166.741C97.0534 161.784 93.3922 156.249 91.2794 150.269C89.0748 144.013 88.8255 138.098 88.5893 132.38C88.235 123.816 87.8938 115.725 81.0701 107.541C76.2672 101.77 71.2413 99.4885 66.3859 97.2852C60.9663 94.8196 55.8616 92.4983 52.3447 85.4688C49.9039 80.577 49.8515 76.6426 49.8121 72.0787C49.7596 67.5803 49.7071 62.4918 47.4894 55.0033C45.2848 47.5934 41.7548 40.5377 36.9782 34.0328C36.8864 33.9016 36.9126 33.718 37.0438 33.6262C37.175 33.5344 37.3588 33.5606 37.4506 33.6918C42.2666 40.2492 45.836 47.3705 48.0537 54.8459C50.2976 62.4131 50.3501 67.5541 50.4026 72.0918C50.4551 76.7606 50.4945 80.4459 52.8828 85.2196C56.3078 92.0787 61.0975 94.2557 66.6484 96.7737C71.3331 98.8983 76.6609 101.311 81.5425 107.187C88.4843 115.528 88.8255 123.711 89.1929 132.38C89.4292 138.059 89.6785 143.934 91.8568 150.098C96.4891 163.252 108.837 174.125 128.574 182.387C128.718 182.452 128.797 182.623 128.731 182.767C128.666 182.859 128.561 182.925 128.443 182.925Z" fill="white"/>
<path d="M204.712 185.666H113.392V0H204.043C206.654 0 208.767 2.11148 208.767 4.72131V181.626C208.767 183.856 206.956 185.666 204.712 185.666Z" fill="white"/>
<path d="M199.254 185.823H111.451C109.365 185.823 107.672 184.131 107.672 182.046V4.10493C107.672 2.01968 109.365 0.327881 111.451 0.327881H199.254C201.341 0.327881 203.034 2.01968 203.034 4.10493V182.046C203.047 184.131 201.354 185.823 199.254 185.823Z" fill="#001A0A"/>
<path d="M136.043 71.2H125.269C124.548 71.2 123.957 70.6099 123.957 69.8885V60.1049C123.957 59.3836 124.548 58.7935 125.269 58.7935H136.043C136.765 58.7935 137.355 59.3836 137.355 60.1049V69.8885C137.342 70.6099 136.765 71.2 136.043 71.2Z" fill="white"/>
<path d="M153.023 71.2H142.105C141.383 71.2 140.793 70.6099 140.793 69.8885V60.1049C140.793 59.3836 141.383 58.7935 142.105 58.7935H153.023C153.745 58.7935 154.335 59.3836 154.335 60.1049V69.8885C154.335 70.6099 153.745 71.2 153.023 71.2Z" fill="white"/>
<path d="M169.912 71.3574H159.283C158.561 71.3574 157.971 70.7672 157.971 70.0459V60.2623C157.971 59.541 158.561 58.9508 159.283 58.9508H169.912C170.634 58.9508 171.225 59.541 171.225 60.2623V70.0459C171.225 70.7672 170.634 71.3574 169.912 71.3574Z" fill="white"/>
<path d="M186.604 71.3574H175.974C175.253 71.3574 174.662 70.7672 174.662 70.0459V60.2623C174.662 59.541 175.253 58.9508 175.974 58.9508H186.604C187.325 58.9508 187.916 59.541 187.916 60.2623V70.0459C187.916 70.7672 187.325 71.3574 186.604 71.3574Z" fill="white"/>
<path d="M136.043 88.0394H125.269C124.548 88.0394 123.957 87.4492 123.957 86.7279V76.9443C123.957 76.223 124.548 75.6328 125.269 75.6328H136.043C136.765 75.6328 137.355 76.223 137.355 76.9443V86.7279C137.342 87.4492 136.765 88.0394 136.043 88.0394Z" fill="white"/>
<path d="M153.023 88.0394H142.105C141.383 88.0394 140.793 87.4492 140.793 86.7279V76.9443C140.793 76.223 141.383 75.6328 142.105 75.6328H153.023C153.745 75.6328 154.335 76.223 154.335 76.9443V86.7279C154.335 87.4492 153.745 88.0394 153.023 88.0394Z" fill="white"/>
<path d="M169.912 88.1967H159.283C158.561 88.1967 157.971 87.6066 157.971 86.8853V77.1148C157.971 76.3934 158.561 75.8033 159.283 75.8033H169.912C170.634 75.8033 171.225 76.3934 171.225 77.1148V86.8984C171.225 87.6066 170.634 88.1967 169.912 88.1967Z" fill="white"/>
<path d="M186.604 88.1967H175.974C175.253 88.1967 174.662 87.6066 174.662 86.8853V77.1148C174.662 76.3934 175.253 75.8033 175.974 75.8033H186.604C187.325 75.8033 187.916 76.3934 187.916 77.1148V86.8984C187.916 87.6066 187.325 88.1967 186.604 88.1967Z" fill="white"/>
<path d="M136.385 104.879H125.611C124.889 104.879 124.299 104.289 124.299 103.567V93.7836C124.299 93.0623 124.889 92.4722 125.611 92.4722H136.385C137.106 92.4722 137.697 93.0623 137.697 93.7836V103.567C137.684 104.289 137.106 104.879 136.385 104.879Z" fill="white"/>
<path d="M153.09 104.879H142.172C141.45 104.879 140.859 104.289 140.859 103.567V93.7836C140.859 93.0623 141.45 92.4722 142.172 92.4722H153.09C153.811 92.4722 154.402 93.0623 154.402 93.7836V103.567C154.389 104.289 153.811 104.879 153.09 104.879Z" fill="white"/>
<path d="M170.254 105.036H159.625C158.903 105.036 158.312 104.446 158.312 103.725V93.941C158.312 93.2197 158.903 92.6295 159.625 92.6295H170.254C170.976 92.6295 171.566 93.2197 171.566 93.941V103.738C171.566 104.459 170.976 105.036 170.254 105.036Z" fill="white"/>
<path d="M186.945 105.036H176.316C175.594 105.036 175.004 104.446 175.004 103.725V93.941C175.004 93.2197 175.594 92.6295 176.316 92.6295H186.945C187.667 92.6295 188.258 93.2197 188.258 93.941V103.738C188.245 104.459 187.667 105.036 186.945 105.036Z" fill="white"/>
<path d="M136.385 121.718H125.611C124.889 121.718 124.299 121.128 124.299 120.407V110.623C124.299 109.902 124.889 109.311 125.611 109.311H136.385C137.106 109.311 137.697 109.902 137.697 110.623V120.407C137.684 121.128 137.106 121.718 136.385 121.718Z" fill="white"/>
<path d="M153.379 121.718H142.461C141.739 121.718 141.148 121.128 141.148 120.407V110.623C141.148 109.902 141.739 109.311 142.461 109.311H153.379C154.1 109.311 154.691 109.902 154.691 110.623V120.407C154.678 121.128 154.1 121.718 153.379 121.718Z" fill="white"/>
<path d="M170.254 121.875H159.625C158.903 121.875 158.312 121.285 158.312 120.564V110.78C158.312 110.059 158.903 109.469 159.625 109.469H170.254C170.976 109.469 171.566 110.059 171.566 110.78V120.564C171.566 121.298 170.976 121.875 170.254 121.875Z" fill="white"/>
<path d="M186.945 121.875H176.316C175.594 121.875 175.004 121.285 175.004 120.564V110.78C175.004 110.059 175.594 109.469 176.316 109.469H186.945C187.667 109.469 188.258 110.059 188.258 110.78V120.564C188.245 121.298 187.667 121.875 186.945 121.875Z" fill="white"/>
<path d="M134.704 71.6984H124.927C124.206 71.6984 123.615 71.1082 123.615 70.3869V60.6033C123.615 59.882 124.206 59.2918 124.927 59.2918H134.717C135.439 59.2918 136.029 59.882 136.029 60.6033V70.3869C136.016 71.1082 135.426 71.6984 134.704 71.6984Z" fill="#001A0A"/>
<path d="M134.703 71.9869H124.913C124.034 71.9869 123.312 71.2656 123.312 70.3869V60.6033C123.312 59.7246 124.034 59.0033 124.913 59.0033H134.703C135.582 59.0033 136.304 59.7246 136.304 60.6033V70.3869C136.304 71.2656 135.582 71.9869 134.703 71.9869ZM124.913 59.5935C124.349 59.5935 123.903 60.0525 123.903 60.6033V70.3869C123.903 70.9508 124.362 71.3967 124.913 71.3967H134.703C135.267 71.3967 135.713 70.9377 135.713 70.3869V60.6033C135.713 60.0394 135.254 59.5935 134.703 59.5935H124.913Z" fill="white"/>
<path d="M151.553 71.6984H141.763C141.041 71.6984 140.451 71.1082 140.451 70.3869V60.6033C140.451 59.882 141.041 59.2918 141.763 59.2918H151.553C152.274 59.2918 152.865 59.882 152.865 60.6033V70.3869C152.865 71.1082 152.274 71.6984 151.553 71.6984Z" fill="#001A0A"/>
<path d="M151.552 71.9869H141.763C140.884 71.9869 140.162 71.2656 140.162 70.3869V60.6033C140.162 59.7246 140.884 59.0033 141.763 59.0033H151.552C152.431 59.0033 153.153 59.7246 153.153 60.6033V70.3869C153.153 71.2656 152.431 71.9869 151.552 71.9869ZM141.776 59.5935C141.212 59.5935 140.766 60.0525 140.766 60.6033V70.3869C140.766 70.9508 141.225 71.3967 141.776 71.3967H151.565C152.13 71.3967 152.576 70.9377 152.576 70.3869V60.6033C152.576 60.0394 152.117 59.5935 151.565 59.5935H141.776Z" fill="white"/>
<path d="M168.717 71.8558H158.927C158.206 71.8558 157.615 71.2656 157.615 70.5443V60.7607C157.615 60.0394 158.206 59.4492 158.927 59.4492H168.717C169.439 59.4492 170.029 60.0394 170.029 60.7607V70.5443C170.029 71.2656 169.439 71.8558 168.717 71.8558Z" fill="#001A0A"/>
<path d="M168.717 72.1443H158.927C158.048 72.1443 157.326 71.423 157.326 70.5443V60.7607C157.326 59.882 158.048 59.1607 158.927 59.1607H168.717C169.596 59.1607 170.318 59.882 170.318 60.7607V70.5443C170.318 71.4361 169.609 72.1443 168.717 72.1443ZM158.94 59.7508C158.376 59.7508 157.93 60.2099 157.93 60.7607V70.5443C157.93 71.1082 158.389 71.5541 158.94 71.5541H168.73C169.294 71.5541 169.74 71.0951 169.74 70.5443V60.7607C169.74 60.1967 169.281 59.7508 168.73 59.7508H158.94Z" fill="white"/>
<path d="M185.408 71.8558H175.619C174.897 71.8558 174.307 71.2656 174.307 70.5443V60.7607C174.307 60.0394 174.897 59.4492 175.619 59.4492H185.408C186.13 59.4492 186.721 60.0394 186.721 60.7607V70.5443C186.721 71.2656 186.13 71.8558 185.408 71.8558Z" fill="#001A0A"/>
<path d="M185.408 72.1443H175.619C174.739 72.1443 174.018 71.423 174.018 70.5443V60.7607C174.018 59.882 174.739 59.1607 175.619 59.1607H185.408C186.287 59.1607 187.009 59.882 187.009 60.7607V70.5443C187.009 71.423 186.287 72.1443 185.408 72.1443ZM175.632 59.7509C175.067 59.7509 174.621 60.2099 174.621 60.7607V70.5443C174.621 71.1082 175.081 71.5541 175.632 71.5541H185.421C185.985 71.5541 186.432 71.0951 186.432 70.5443V60.7607C186.432 60.1968 185.972 59.7509 185.421 59.7509H175.632Z" fill="white"/>
<path d="M134.703 88.5377H124.914C124.192 88.5377 123.602 87.9476 123.602 87.2262V77.4426C123.602 76.7213 124.192 76.1312 124.914 76.1312H134.703C135.425 76.1312 136.016 76.7213 136.016 77.4426V87.2262C136.016 87.9476 135.425 88.5377 134.703 88.5377Z" fill="#001A0A"/>
<path d="M134.703 88.8263H124.913C124.034 88.8263 123.312 88.1049 123.312 87.2263V77.4427C123.312 76.564 124.034 75.8427 124.913 75.8427H134.703C135.582 75.8427 136.304 76.564 136.304 77.4427V87.2263C136.304 88.1049 135.582 88.8263 134.703 88.8263ZM124.913 76.4328C124.349 76.4328 123.903 76.8918 123.903 77.4427V87.2263C123.903 87.7902 124.362 88.2361 124.913 88.2361H134.703C135.267 88.2361 135.713 87.7771 135.713 87.2263V77.4427C135.713 76.8787 135.254 76.4328 134.703 76.4328H124.913Z" fill="white"/>
<path d="M151.553 88.5377H141.763C141.041 88.5377 140.451 87.9476 140.451 87.2262V77.4426C140.451 76.7213 141.041 76.1312 141.763 76.1312H151.553C152.274 76.1312 152.865 76.7213 152.865 77.4426V87.2262C152.865 87.9476 152.274 88.5377 151.553 88.5377Z" fill="#001A0A"/>
<path d="M151.552 88.8263H141.763C140.884 88.8263 140.162 88.1049 140.162 87.2263V77.4427C140.162 76.564 140.884 75.8427 141.763 75.8427H151.552C152.431 75.8427 153.153 76.564 153.153 77.4427V87.2263C153.153 88.1049 152.431 88.8263 151.552 88.8263ZM141.763 76.4328C141.199 76.4328 140.752 76.8918 140.752 77.4427V87.2263C140.752 87.7902 141.212 88.2361 141.763 88.2361H151.552C152.117 88.2361 152.563 87.7771 152.563 87.2263V77.4427C152.563 76.8787 152.103 76.4328 151.552 76.4328H141.763Z" fill="white"/>
<path d="M168.717 88.6951H158.927C158.206 88.6951 157.615 88.1049 157.615 87.3836V77.6C157.615 76.8787 158.206 76.2885 158.927 76.2885H168.717C169.439 76.2885 170.029 76.8787 170.029 77.6V87.3836C170.029 88.1049 169.439 88.6951 168.717 88.6951Z" fill="#001A0A"/>
<path d="M168.717 88.9836H158.927C158.048 88.9836 157.326 88.2623 157.326 87.3836V77.6C157.326 76.7213 158.048 76 158.927 76H168.717C169.596 76 170.318 76.7213 170.318 77.6V87.3836C170.318 88.2754 169.609 88.9836 168.717 88.9836ZM158.94 76.5902C158.376 76.5902 157.93 77.0492 157.93 77.6V87.3836C157.93 87.9476 158.389 88.3935 158.94 88.3935H168.73C169.294 88.3935 169.74 87.9345 169.74 87.3836V77.6C169.74 77.0361 169.281 76.5902 168.73 76.5902H158.94Z" fill="white"/>
<path d="M185.408 88.6951H175.619C174.897 88.6951 174.307 88.1049 174.307 87.3836V77.6C174.307 76.8787 174.897 76.2885 175.619 76.2885H185.408C186.13 76.2885 186.721 76.8787 186.721 77.6V87.3836C186.721 88.1049 186.13 88.6951 185.408 88.6951Z" fill="#001A0A"/>
<path d="M185.408 88.9836H175.619C174.739 88.9836 174.018 88.2623 174.018 87.3836V77.6C174.018 76.7213 174.739 76 175.619 76H185.408C186.287 76 187.009 76.7213 187.009 77.6V87.3836C187.009 88.2754 186.287 88.9836 185.408 88.9836ZM175.632 76.5902C175.067 76.5902 174.621 77.0492 174.621 77.6V87.3836C174.621 87.9475 175.081 88.3934 175.632 88.3934H185.421C185.985 88.3934 186.432 87.9344 186.432 87.3836V77.6C186.432 77.0361 185.972 76.5902 185.421 76.5902H175.632Z" fill="white"/>
<path d="M135.018 105.377H125.228C124.507 105.377 123.916 104.787 123.916 104.066V94.2951C123.916 93.5737 124.507 92.9836 125.228 92.9836H135.018C135.739 92.9836 136.33 93.5737 136.33 94.2951V104.079C136.33 104.787 135.739 105.377 135.018 105.377Z" fill="#001A0A"/>
<path d="M135.017 105.666H125.228C124.349 105.666 123.627 104.944 123.627 104.066V94.2951C123.627 93.4164 124.349 92.6951 125.228 92.6951H135.017C135.897 92.6951 136.618 93.4164 136.618 94.2951V104.079C136.618 104.957 135.897 105.666 135.017 105.666ZM125.241 93.2721C124.677 93.2721 124.231 93.7311 124.231 94.282V104.066C124.231 104.629 124.69 105.075 125.241 105.075H135.03C135.595 105.075 136.041 104.616 136.041 104.066V94.2951C136.041 93.7311 135.582 93.2852 135.03 93.2852H125.241V93.2721Z" fill="white"/>
<path d="M151.867 105.377H142.078C141.356 105.377 140.766 104.787 140.766 104.066V94.2951C140.766 93.5737 141.356 92.9836 142.078 92.9836H151.867C152.589 92.9836 153.18 93.5737 153.18 94.2951V104.079C153.18 104.787 152.589 105.377 151.867 105.377Z" fill="#001A0A"/>
<path d="M151.867 105.666H142.078C141.198 105.666 140.477 104.944 140.477 104.066V94.2951C140.477 93.4164 141.198 92.6951 142.078 92.6951H151.867C152.746 92.6951 153.468 93.4164 153.468 94.2951V104.079C153.468 104.957 152.746 105.666 151.867 105.666ZM142.091 93.2721C141.526 93.2721 141.08 93.7311 141.08 94.282V104.066C141.08 104.629 141.539 105.075 142.091 105.075H151.88C152.444 105.075 152.891 104.616 152.891 104.066V94.2951C152.891 93.7311 152.431 93.2852 151.88 93.2852H142.091V93.2721Z" fill="white"/>
<path d="M169.045 105.534H159.256C158.534 105.534 157.943 104.944 157.943 104.223V94.4394C157.943 93.718 158.534 93.1279 159.256 93.1279H169.045C169.767 93.1279 170.357 93.718 170.357 94.4394V104.223C170.344 104.957 169.767 105.534 169.045 105.534Z" fill="#001A0A"/>
<path d="M169.045 105.823H159.255C158.376 105.823 157.654 105.102 157.654 104.223V94.4394C157.654 93.5607 158.376 92.8394 159.255 92.8394H169.045C169.924 92.8394 170.646 93.5607 170.646 94.4394V104.223C170.633 105.115 169.924 105.823 169.045 105.823ZM159.255 93.4295C158.691 93.4295 158.245 93.8885 158.245 94.4394V104.223C158.245 104.787 158.704 105.233 159.255 105.233H169.045C169.609 105.233 170.055 104.774 170.055 104.223V94.4394C170.055 93.8754 169.596 93.4295 169.045 93.4295H159.255Z" fill="white"/>
<path d="M185.736 105.534H175.947C175.225 105.534 174.635 104.944 174.635 104.223V94.4393C174.635 93.718 175.225 93.1279 175.947 93.1279H185.736C186.458 93.1279 187.049 93.718 187.049 94.4393V104.223C187.036 104.957 186.458 105.534 185.736 105.534Z" fill="#001A0A"/>
<path d="M185.736 105.823H175.947C175.067 105.823 174.346 105.102 174.346 104.223V94.4393C174.346 93.5607 175.067 92.8394 175.947 92.8394H185.736C186.615 92.8394 187.337 93.5607 187.337 94.4393V104.223C187.324 105.115 186.615 105.823 185.736 105.823ZM175.947 93.4295C175.382 93.4295 174.936 93.8885 174.936 94.4393V104.223C174.936 104.787 175.396 105.233 175.947 105.233H185.736C186.3 105.233 186.747 104.774 186.747 104.223V94.4393C186.747 93.8754 186.287 93.4295 185.736 93.4295H175.947Z" fill="white"/>
<path d="M135.018 122.216H125.228C124.507 122.216 123.916 121.626 123.916 120.905V111.121C123.916 110.4 124.507 109.81 125.228 109.81H135.018C135.739 109.81 136.33 110.4 136.33 111.121V120.905C136.33 121.626 135.739 122.216 135.018 122.216Z" fill="#001A0A"/>
<path d="M135.017 122.505H125.228C124.349 122.505 123.627 121.784 123.627 120.905V111.121C123.627 110.243 124.349 109.521 125.228 109.521H135.017C135.897 109.521 136.618 110.243 136.618 111.121V120.905C136.618 121.797 135.897 122.505 135.017 122.505ZM125.241 110.111C124.677 110.111 124.231 110.57 124.231 111.121V120.905C124.231 121.469 124.69 121.915 125.241 121.915H135.03C135.595 121.915 136.041 121.456 136.041 120.905V111.121C136.041 110.557 135.582 110.111 135.03 110.111H125.241Z" fill="white"/>
<path d="M151.867 122.216H142.078C141.356 122.216 140.766 121.626 140.766 120.905V111.121C140.766 110.4 141.356 109.81 142.078 109.81H151.867C152.589 109.81 153.18 110.4 153.18 111.121V120.905C153.18 121.626 152.589 122.216 151.867 122.216Z" fill="#001A0A"/>
<path d="M151.867 122.505H142.078C141.198 122.505 140.477 121.784 140.477 120.905V111.121C140.477 110.243 141.198 109.521 142.078 109.521H151.867C152.746 109.521 153.468 110.243 153.468 111.121V120.905C153.468 121.797 152.746 122.505 151.867 122.505ZM142.091 110.111C141.526 110.111 141.08 110.57 141.08 111.121V120.905C141.08 121.469 141.539 121.915 142.091 121.915H151.88C152.444 121.915 152.891 121.456 152.891 120.905V111.121C152.891 110.557 152.431 110.111 151.88 110.111H142.091Z" fill="white"/>
<path d="M169.045 122.374H159.256C158.534 122.374 157.943 121.784 157.943 121.062V111.279C157.943 110.557 158.534 109.967 159.256 109.967H169.045C169.767 109.967 170.357 110.557 170.357 111.279V121.062C170.344 121.797 169.767 122.374 169.045 122.374Z" fill="#001A0A"/>
<path d="M169.045 122.662H159.255C158.376 122.662 157.654 121.941 157.654 121.062V111.279C157.654 110.4 158.376 109.679 159.255 109.679H169.045C169.924 109.679 170.646 110.4 170.646 111.279V121.062C170.633 121.954 169.924 122.662 169.045 122.662ZM159.255 110.269C158.691 110.269 158.245 110.728 158.245 111.279V121.062C158.245 121.626 158.704 122.072 159.255 122.072H169.045C169.609 122.072 170.055 121.613 170.055 121.062V111.279C170.055 110.715 169.596 110.269 169.045 110.269H159.255Z" fill="white"/>
<path d="M185.736 122.374H175.947C175.225 122.374 174.635 121.784 174.635 121.062V111.279C174.635 110.557 175.225 109.967 175.947 109.967H185.736C186.458 109.967 187.049 110.557 187.049 111.279V121.062C187.036 121.797 186.458 122.374 185.736 122.374Z" fill="#001A0A"/>
<path d="M185.736 122.662H175.947C175.067 122.662 174.346 121.941 174.346 121.062V111.279C174.346 110.4 175.067 109.679 175.947 109.679H185.736C186.615 109.679 187.337 110.4 187.337 111.279V121.062C187.324 121.954 186.615 122.662 185.736 122.662ZM175.947 110.269C175.382 110.269 174.936 110.728 174.936 111.279V121.062C174.936 121.626 175.396 122.072 175.947 122.072H185.736C186.3 122.072 186.747 121.613 186.747 121.062V111.279C186.747 110.715 186.287 110.269 185.736 110.269H175.947Z" fill="white"/>
<path d="M164.637 134.61H148.483C148.024 134.61 147.656 134.243 147.656 133.784V127.2C147.656 126.741 148.024 126.374 148.483 126.374H164.637C165.096 126.374 165.464 126.741 165.464 127.2V133.784C165.464 134.243 165.096 134.61 164.637 134.61Z" fill="#001A0A"/>
<path d="M164.636 134.898H148.483C147.866 134.898 147.367 134.4 147.367 133.784V127.2C147.367 126.584 147.866 126.085 148.483 126.085H164.636C165.253 126.085 165.752 126.584 165.752 127.2V133.784C165.752 134.4 165.253 134.898 164.636 134.898ZM148.483 126.662C148.194 126.662 147.945 126.898 147.945 127.2V133.784C147.945 134.072 148.181 134.321 148.483 134.321H164.636C164.925 134.321 165.175 134.085 165.175 133.784V127.2C165.175 126.911 164.938 126.662 164.636 126.662H148.483Z" fill="white"/>
<path d="M199.253 186.125H111.45C109.206 186.125 107.369 184.302 107.369 182.046V4.10511C107.369 1.86249 109.193 0.0264206 111.45 0.0264206H199.253C201.497 0.0264206 203.335 1.84937 203.335 4.10511V182.046C203.335 184.289 201.511 186.125 199.253 186.125ZM111.45 0.60347C109.521 0.60347 107.96 2.16413 107.96 4.09199V182.033C107.96 183.961 109.521 185.521 111.45 185.521H199.253C201.182 185.521 202.744 183.961 202.744 182.033V4.10511C202.744 2.17724 201.182 0.616584 199.253 0.616584H111.45V0.60347Z" fill="white"/>
<path d="M168.231 187.738H145.726C145.175 187.738 144.729 187.292 144.729 186.741V151.672C144.729 149.639 146.382 147.987 148.416 147.987H166.709C168.179 147.987 169.373 149.18 169.373 150.649V186.597C169.373 187.226 168.861 187.738 168.231 187.738Z" fill="#001A0A"/>
<path d="M168.231 188.026H145.725C145.017 188.026 144.439 187.449 144.439 186.741V151.672C144.439 149.482 146.224 147.698 148.416 147.698H166.708C168.336 147.698 169.661 149.023 169.661 150.649V186.597C169.661 187.384 169.018 188.026 168.231 188.026ZM148.416 148.275C146.539 148.275 145.03 149.797 145.03 151.659V186.728C145.03 187.121 145.345 187.436 145.739 187.436H168.231C168.703 187.436 169.084 187.056 169.084 186.584V150.636C169.084 149.325 168.021 148.262 166.708 148.262H148.416V148.275Z" fill="white"/>
<path d="M160.372 165.626H153.207C152.301 165.626 151.566 164.892 151.566 163.987V156.826C151.566 155.921 152.301 155.187 153.207 155.187H160.372C161.277 155.187 162.012 155.921 162.012 156.826V163.987C162.012 164.892 161.277 165.626 160.372 165.626Z" fill="white"/>
<path d="M187.654 53.0623H123.669C122.461 53.0623 121.49 52.0918 121.49 50.8852V13.2983C121.49 12.0918 122.461 11.1213 123.669 11.1213H187.654C188.862 11.1213 189.833 12.0918 189.833 13.2983V50.8852C189.833 52.0918 188.862 53.0623 187.654 53.0623Z" fill="#001A0A"/>
<path d="M187.654 53.3508H123.668C122.303 53.3508 121.201 52.2492 121.201 50.8852V13.2983C121.201 11.9344 122.303 10.8328 123.668 10.8328H187.654C189.019 10.8328 190.121 11.9344 190.121 13.2983V50.8852C190.134 52.2492 189.019 53.3508 187.654 53.3508ZM123.668 11.4098C122.632 11.4098 121.779 12.2623 121.779 13.2983V50.8852C121.779 51.9213 122.632 52.7737 123.668 52.7737H187.654C188.691 52.7737 189.544 51.9213 189.544 50.8852V13.2983C189.544 12.2623 188.691 11.4098 187.654 11.4098H123.668Z" fill="white"/>
<path d="M137.314 36.7082C138.995 36.7082 140.358 35.3459 140.358 33.6655C140.358 31.9852 138.995 30.6229 137.314 30.6229C135.633 30.6229 134.27 31.9852 134.27 33.6655C134.27 35.3459 135.633 36.7082 137.314 36.7082Z" fill="white"/>
<path d="M146.894 36.5639C148.575 36.5639 149.938 35.2017 149.938 33.5213C149.938 31.8409 148.575 30.4786 146.894 30.4786C145.213 30.4786 143.85 31.8409 143.85 33.5213C143.85 35.2017 145.213 36.5639 146.894 36.5639Z" fill="white"/>
<path d="M156.617 36.4197C158.298 36.4197 159.661 35.0574 159.661 33.377C159.661 31.6966 158.298 30.3344 156.617 30.3344C154.935 30.3344 153.572 31.6966 153.572 33.377C153.572 35.0574 154.935 36.4197 156.617 36.4197Z" fill="white"/>
<path d="M166.21 36.2754C167.892 36.2754 169.255 34.9131 169.255 33.2327C169.255 31.5524 167.892 30.1901 166.21 30.1901C164.529 30.1901 163.166 31.5524 163.166 33.2327C163.166 34.9131 164.529 36.2754 166.21 36.2754Z" fill="white"/>
<path d="M175.646 35.9869C177.327 35.9869 178.69 34.6246 178.69 32.9442C178.69 31.2638 177.327 29.9016 175.646 29.9016C173.965 29.9016 172.602 31.2638 172.602 32.9442C172.602 34.6246 173.965 35.9869 175.646 35.9869Z" fill="white"/>
<path d="M121.896 225.639C121.752 225.639 121.62 225.534 121.607 225.39C121.581 225.233 121.699 225.088 121.857 225.062C147.209 221.902 174.399 201.102 174.675 200.892C174.806 200.8 174.99 200.813 175.082 200.944C175.174 201.075 175.16 201.259 175.029 201.351C174.754 201.561 147.432 222.452 121.922 225.626C121.922 225.639 121.909 225.639 121.896 225.639Z" fill="white"/>
<path d="M119.717 230.177C119.56 230.177 119.429 230.059 119.429 229.902C119.416 229.744 119.547 229.6 119.704 229.6C139.519 228.682 165.226 212.669 165.489 212.498C165.62 212.42 165.804 212.459 165.896 212.59C165.988 212.721 165.935 212.905 165.804 212.997C165.541 213.154 139.703 229.259 119.744 230.177C119.73 230.177 119.717 230.177 119.717 230.177Z" fill="white"/>
<path d="M117.486 228.459C116.961 228.459 116.436 228.262 116.042 227.869C115.229 227.069 115.216 225.757 116.016 224.944C116.817 224.131 118.129 224.118 118.942 224.918C119.756 225.718 119.769 227.029 118.969 227.843C118.562 228.249 118.024 228.459 117.486 228.459ZM116.436 227.449C117.027 228.026 117.971 228.013 118.549 227.423C119.126 226.833 119.113 225.888 118.522 225.311C117.932 224.734 116.987 224.748 116.41 225.338C115.845 225.928 115.845 226.885 116.436 227.449Z" fill="white"/>
<path d="M180.093 200.157H180.08C179.975 200.157 179.883 200.092 179.831 200L177.311 194.885C177.272 194.793 177.272 194.702 177.324 194.61C177.377 194.531 177.456 194.466 177.547 194.466L183.768 193.915C183.873 193.902 183.991 193.954 184.043 194.059C184.096 194.151 184.096 194.269 184.043 194.361L180.356 200.039C180.277 200.105 180.185 200.157 180.093 200.157ZM178.02 195.003L180.133 199.279L183.216 194.531L178.02 195.003Z" fill="white"/>
<path d="M214.869 53.0885C214.79 53.0885 214.725 53.0623 214.659 53.0098C214.541 52.8918 214.541 52.7082 214.659 52.6033L215.669 51.5934C215.787 51.4754 215.971 51.4754 216.076 51.5934C216.194 51.7115 216.194 51.8951 216.076 52L215.066 53.0098C215.013 53.0623 214.934 53.0885 214.869 53.0885Z" fill="white"/>
<path d="M218.687 49.259C218.608 49.259 218.543 49.2328 218.477 49.1803C218.359 49.0623 218.359 48.8787 218.477 48.7738L219.488 47.7639C219.606 47.6459 219.789 47.6459 219.894 47.7639C220.013 47.882 220.013 48.0656 219.894 48.1705L218.884 49.1803C218.845 49.2328 218.766 49.259 218.687 49.259Z" fill="white"/>
<path d="M219.711 53.0885C219.633 53.0885 219.567 53.0623 219.501 53.0098L218.491 52C218.373 51.882 218.373 51.6984 218.491 51.5934C218.609 51.4885 218.793 51.4754 218.898 51.5934L219.908 52.6033C220.026 52.7213 220.026 52.9049 219.908 53.0098C219.856 53.0623 219.777 53.0885 219.711 53.0885Z" fill="white"/>
<path d="M215.879 49.259C215.801 49.259 215.735 49.2328 215.669 49.1803L214.659 48.1705C214.541 48.0525 214.541 47.8689 214.659 47.7639C214.777 47.6459 214.961 47.6459 215.066 47.7639L216.076 48.7738C216.194 48.8918 216.194 49.0754 216.076 49.1803C216.024 49.2328 215.945 49.259 215.879 49.259Z" fill="white"/>
<path d="M5.97154 95.8689C5.93217 95.8689 5.8928 95.8557 5.85344 95.8426C5.70909 95.7771 5.64347 95.6066 5.70909 95.4623L6.2996 94.1639C6.36522 94.0197 6.53581 93.9541 6.68016 94.0197C6.82451 94.0853 6.89012 94.2557 6.82451 94.4L6.23399 95.6984C6.19462 95.8033 6.08964 95.8689 5.97154 95.8689Z" fill="white"/>
<path d="M8.21568 90.9508C8.17631 90.9508 8.13694 90.9377 8.09758 90.9246C7.95323 90.859 7.88761 90.6885 7.95323 90.5443L8.54374 89.2459C8.60936 89.1016 8.77995 89.0361 8.9243 89.1017C9.06865 89.1672 9.13426 89.3377 9.06865 89.482L8.47813 90.7803C8.43876 90.8853 8.33378 90.9508 8.21568 90.9508Z" fill="white"/>
<path d="M10.5109 94.1771C10.4715 94.1771 10.4322 94.164 10.3928 94.1509L9.09367 93.5607C8.94932 93.4951 8.88371 93.3246 8.94932 93.1804C9.01493 93.0361 9.18553 92.9705 9.32988 93.0361L10.629 93.6263C10.7734 93.6918 10.839 93.8623 10.7734 94.0066C10.7209 94.1115 10.6159 94.1771 10.5109 94.1771Z" fill="white"/>
<path d="M5.57731 91.9344C5.53795 91.9344 5.49858 91.9213 5.45921 91.9082L4.16008 91.318C4.01573 91.2525 3.95011 91.082 4.01573 90.9377C4.08134 90.7935 4.25193 90.7279 4.39628 90.7935L5.69542 91.3836C5.83977 91.4492 5.90538 91.6197 5.83977 91.7639C5.8004 91.8689 5.69542 91.9344 5.57731 91.9344Z" fill="white"/>
<path d="M19.0142 111.777C17.8594 111.777 16.9277 110.846 16.9277 109.692C16.9277 108.538 17.8594 107.607 19.0142 107.607C20.169 107.607 21.1007 108.538 21.1007 109.692C21.1138 110.846 20.169 111.777 19.0142 111.777ZM19.0142 108.184C18.1875 108.184 17.5051 108.866 17.5051 109.692C17.5051 110.518 18.1875 111.2 19.0142 111.2C19.8409 111.2 20.5233 110.518 20.5233 109.692C20.5233 108.852 19.8541 108.184 19.0142 108.184Z" fill="white"/>
<path d="M58.197 177.889C52.6855 185.521 48.4731 198.571 45.2712 213.731C45.0613 214.728 42.6598 232.341 43.644 232.656C63.9709 239.043 65.4275 239.043 79.075 239.908C82.5131 240.131 97.0791 239.908 107.184 239.62C108.063 239.593 108.811 239.03 108.771 238.151C107.525 215.2 105.333 187.528 105.333 187.528L58.197 177.889Z" fill="#001A0A"/>
<path d="M108.757 238.452C108.6 238.452 108.482 238.334 108.469 238.177C107.288 216.564 105.267 190.426 105.057 187.777L58.3273 178.216C53.3801 185.154 49.089 197.128 45.559 213.797C45.2572 215.239 43.197 231.2 43.8006 232.42C43.9056 232.485 43.9581 232.616 43.9187 232.748C43.8662 232.905 43.7088 232.984 43.5513 232.931C43.2101 232.826 42.6983 232.669 43.7219 223.423C44.2074 218.964 44.8767 214.216 44.9817 213.679C48.551 196.8 52.9208 184.695 57.9599 177.718C58.0255 177.626 58.1436 177.587 58.2486 177.6L105.372 187.252C105.503 187.279 105.595 187.384 105.608 187.515C105.634 187.79 107.799 215.449 109.046 238.151C109.059 238.308 108.928 238.452 108.771 238.452H108.757Z" fill="white"/>
<path d="M117.064 120.8C117.064 120.8 129.806 129.364 135.764 127.751C144.149 125.482 147.837 104.144 148.191 102.256C148.545 100.367 150.172 90.7541 151.839 87.1738C153.414 83.8033 154.372 80.3541 154.87 78.2427C155.172 76.9705 156.051 76.341 156.904 76.4722C157.665 76.5902 158.164 77.1804 157.744 79.082C157.245 81.2853 156.812 83.5017 156.406 85.3902C156.274 85.9804 156.038 86.5443 156.458 86.1246C157.429 85.141 159.004 84.0525 160.592 83.5148C161.287 83.2787 166.838 77.2722 168.321 78.0066C169.646 78.6623 162.114 86.9115 162.416 87.8951C163.164 90.3213 162.731 93.5738 161.55 96.4984C159.542 101.482 156.327 100.931 155.776 103.279C155.225 105.626 152.324 135.423 150.015 140.879C146.682 148.721 114.728 143.003 114.728 143.003L117.064 120.8Z" fill="#001A0A"/>
<path d="M135.738 145.325C126.198 145.325 115.451 143.436 114.677 143.292C114.532 143.266 114.427 143.121 114.44 142.977L116.776 120.761C116.789 120.656 116.855 120.577 116.947 120.525C117.039 120.485 117.144 120.485 117.235 120.551C117.367 120.63 129.925 129.023 135.686 127.462C142.838 125.521 146.578 109.325 147.864 102.439L147.916 102.19C147.955 101.98 148.008 101.666 148.087 101.272C148.638 98.2558 150.094 90.2558 151.59 87.0426C153.113 83.7902 154.07 80.4197 154.609 78.164C154.937 76.8131 155.881 76.0131 156.971 76.1836C157.391 76.2492 157.705 76.4328 157.915 76.7344C158.257 77.2328 158.296 78.0197 158.047 79.1476C157.732 80.5377 157.456 81.9017 157.181 83.2394C157.023 84.0131 156.866 84.7476 156.721 85.4558C156.721 85.482 156.708 85.4951 156.708 85.5213C157.64 84.6951 159.018 83.7508 160.527 83.2525C160.697 83.1869 161.485 82.4656 162.167 81.8361C164.962 79.2787 167.364 77.2066 168.479 77.7574C168.637 77.8361 168.728 77.9672 168.781 78.1377C168.978 78.964 167.6 80.8918 165.317 83.9476C164.214 85.4164 162.718 87.423 162.731 87.8295C163.453 90.164 163.125 93.4558 161.852 96.6164C160.658 99.5672 159.018 100.669 157.81 101.469C156.931 102.046 156.301 102.479 156.091 103.357C155.934 104.013 155.566 107.095 155.107 110.977C153.939 120.748 151.984 137.089 150.317 141.01C148.861 144.341 142.614 145.325 135.738 145.325ZM115.044 142.767C118.115 143.292 146.696 147.948 149.74 140.774C151.367 136.931 153.323 120.643 154.49 110.898C154.976 106.846 155.33 103.908 155.488 103.213C155.75 102.111 156.538 101.587 157.456 100.971C158.663 100.171 160.159 99.1738 161.275 96.3935C162.495 93.364 162.81 90.2164 162.128 87.9738C161.97 87.4623 162.731 86.3607 164.805 83.5935C166.156 81.7836 168.413 78.7672 168.164 78.2558C167.324 77.8492 164.083 80.8263 162.521 82.2558C161.432 83.2656 160.934 83.7115 160.671 83.7902C159.005 84.341 157.469 85.5082 156.656 86.3213C156.551 86.4263 156.328 86.6492 156.091 86.5181C155.842 86.3738 155.921 86.1115 156.026 85.7181C156.052 85.6 156.091 85.4689 156.118 85.3377C156.262 84.6426 156.419 83.8951 156.577 83.1344C156.852 81.8099 157.141 80.4328 157.456 79.0426C157.666 78.0984 157.653 77.4426 157.417 77.0885C157.299 76.9181 157.128 76.8131 156.866 76.7738C156.091 76.6558 155.409 77.2722 155.16 78.3213C154.622 80.6033 153.651 84.0131 152.102 87.3049C150.632 90.4525 149.189 98.4 148.638 101.39C148.572 101.784 148.507 102.098 148.467 102.308L148.415 102.557C147.116 109.548 143.297 126.007 135.83 128.026C135.292 128.171 134.702 128.236 134.072 128.236C128.311 128.236 119.322 122.61 117.301 121.298L115.044 142.767Z" fill="white"/>
<path d="M63.4455 109.207C78.7989 102.361 108.482 103.777 129.308 126.112C131.762 128.734 124.689 148.538 118.377 147.187C112.799 145.98 108.259 144.59 107.839 147.816C107.249 152.275 111.251 187.974 105.425 198.046C95.0315 216.039 64.0098 213.351 48.0527 204.577C43.8404 202.256 48.2627 195.895 51.3596 175.108C53.6692 159.62 55.0077 146.793 52.1601 151.751C50.756 154.177 36.0849 139.567 37.6203 135.213C40.9665 125.613 46.8717 116.59 63.4455 109.207Z" fill="white"/>
<path d="M144.818 104.157L157.114 105.823C157.954 134.151 155.251 154.518 118.363 147.174L123.35 120.826C137.102 130.413 142.22 118.754 144.818 104.157Z" fill="white"/>
<path d="M41.0195 128.118C23.0941 154.164 33.3953 207.41 57.6983 207.803L57.0684 184.787C55.0344 182.216 54.0109 156.813 57.8558 148.748L41.0195 128.118Z" fill="white"/>
<path d="M46.9779 204.039C46.9517 204.039 46.9254 204.039 46.8992 204.026C46.7417 203.987 46.6498 203.83 46.7023 203.672C50.3242 190.689 52.345 169.902 53.0274 154.78C53.0405 154.623 53.1718 154.492 53.3292 154.505C53.4867 154.518 53.6179 154.649 53.6048 154.807C52.9224 169.967 50.9016 190.793 47.2666 203.83C47.2272 203.948 47.1091 204.039 46.9779 204.039Z" fill="#001A0A"/>
<path d="M72.7508 106.859C72.9214 106.243 78.9578 101.246 77.3699 89.9935C77.3699 89.9935 69.1946 78.8984 71.6879 73.9935C74.168 69.1017 73.9581 61.8623 82.304 61.7967C90.65 61.7312 95.5578 65.482 97.4868 70.3476C99.4159 75.2131 99.9145 80.0918 100.098 82.9246C100.229 85.023 99.9539 89.7049 99.7964 92C99.7439 92.7869 99.1928 93.4558 98.4317 93.6656L95.9121 94.3738C95.0854 94.6099 94.5343 95.3574 94.5474 96.2099L94.6392 100.708C95.0329 111.725 91.4636 110.19 88.8522 110.78C82.1728 112.315 71.8716 110.085 72.7508 106.859Z" fill="#001A0A"/>
<path d="M83.9972 111.58C79.4437 111.58 74.772 110.466 73.0661 108.695C72.5018 108.105 72.2919 107.436 72.4625 106.78C72.5018 106.623 72.6462 106.466 72.948 106.098C74.2996 104.459 78.3939 99.5017 77.0947 90.1115C76.3861 89.1279 68.9587 78.7279 71.4258 73.8754C72.0163 72.7082 72.4625 71.3836 72.8955 70.0984C74.2996 65.9017 75.7694 61.5607 82.3044 61.5213C89.9024 61.4689 95.532 64.6426 97.7497 70.2558C99.1932 73.9148 100.085 78.1771 100.374 82.9115C100.505 84.9836 100.243 89.5082 100.072 92.0262C100.007 92.9312 99.3769 93.7049 98.4977 93.9541L95.9781 94.6623C95.2826 94.859 94.8102 95.5017 94.8233 96.223L94.9152 100.721C95.2564 110.387 92.5006 110.675 90.0598 110.925C89.653 110.964 89.2594 111.003 88.9051 111.095C87.4091 111.423 85.7163 111.58 83.9972 111.58ZM73.0267 106.938C72.9086 107.397 73.053 107.843 73.486 108.289C75.6644 110.557 83.5248 111.698 88.7738 110.505C89.1806 110.413 89.6006 110.374 90.0074 110.334C92.3038 110.098 94.6659 109.849 94.3378 100.721L94.2459 96.2099C94.2197 95.2262 94.8758 94.3476 95.8207 94.0853L98.3402 93.3771C98.9832 93.1935 99.4425 92.6295 99.495 91.9607C99.6656 89.4558 99.928 84.9705 99.7968 82.9246C99.5081 78.2426 98.6289 74.0459 97.2116 70.4394C95.0858 65.0754 89.6662 62.0328 82.3044 62.0721C76.1762 62.1115 74.8508 66.0722 73.4467 70.2558C73.0136 71.5541 72.5543 72.9049 71.9507 74.1115C69.5755 78.7935 77.5278 89.6918 77.6065 89.8099C77.6328 89.8492 77.659 89.8885 77.659 89.941C79.0238 99.6328 74.7852 104.761 73.3942 106.452C73.2367 106.662 73.0661 106.872 73.0267 106.938Z" fill="white"/>
<path d="M94.6519 77.8754C95.6623 77.4558 96.3185 76.4721 96.3447 75.3705C96.371 74.059 95.5705 71.0426 97.4864 70.3476C102.63 68.4853 100.636 62.2951 97.5651 60.0131C94.5075 57.7312 82.5135 53.9279 76.4378 57.2328C76.4378 57.2328 74.0363 59.2394 74.5744 61.2328C74.5744 61.2328 69.7453 61.3771 68.6167 64.9443C67.4882 68.5115 65.5854 81.6525 77.6319 91.5803C77.6319 91.5803 80.742 91.9476 84.1932 91.0295C86.201 90.4918 87.6707 88.7738 87.9594 86.7148C88.3924 83.5541 89.6653 78.7279 90.5445 77.2853C90.5445 77.2853 89.9934 75.0426 91.24 74.4787C92.0536 74.1115 93.0509 75.0558 93.484 75.8295L94.6519 77.8754Z" fill="white"/>
<path d="M99.4548 93.1279C99.4417 93.1279 99.4286 93.1279 99.4024 93.1279C99.363 93.1148 94.8751 92.3148 93.8384 87.4492C93.799 87.2918 93.904 87.1344 94.0615 87.1082C94.2189 87.0689 94.3764 87.1738 94.4027 87.3312C95.3737 91.8164 99.4548 92.5508 99.4942 92.5508C99.6517 92.5771 99.7567 92.7213 99.7304 92.8787C99.7173 93.023 99.5992 93.1279 99.4548 93.1279Z" fill="white"/>
<path d="M93.7995 82.8328C93.642 82.8328 90.0202 82.6754 89.0623 76.2754C89.036 76.1181 89.1541 75.9738 89.3116 75.9476C89.4691 75.9213 89.6134 76.0394 89.6396 76.1968C90.5189 82.0853 93.6814 82.2558 93.8126 82.2689C93.9701 82.2689 94.1013 82.4131 94.0882 82.5705C94.0751 82.7148 93.957 82.8328 93.7995 82.8328Z" fill="white"/>
<path d="M145.857 202.439L145.293 200.393L142.97 200.498C142.76 200.053 142.511 199.62 142.222 199.213L143.456 197.246L141.947 195.751L139.991 196.997C139.585 196.721 139.152 196.472 138.705 196.262L138.784 193.941L136.724 193.403L135.661 195.462C135.175 195.423 134.677 195.423 134.178 195.475L133.089 193.43L131.042 193.993L131.147 196.315C130.701 196.525 130.268 196.774 129.874 197.062L127.905 195.83L126.409 197.338L127.656 199.292C127.381 199.698 127.131 200.131 126.921 200.577L124.599 200.498L124.061 202.557L126.121 203.62C126.081 204.105 126.081 204.603 126.134 205.102L124.087 206.19L124.651 208.236L126.974 208.131C127.184 208.577 127.433 209.01 127.722 209.416L126.488 211.384L127.997 212.879L129.953 211.633C130.359 211.908 130.792 212.157 131.239 212.367L131.16 214.689L133.22 215.226L134.283 213.167C134.769 213.207 135.267 213.207 135.766 213.154L136.855 215.2L138.902 214.636L138.797 212.315C139.243 212.105 139.676 211.856 140.07 211.567L142.038 212.8L143.534 211.292L142.288 209.338C142.563 208.931 142.813 208.498 143.023 208.053L145.345 208.131L145.883 206.072L143.823 205.01C143.863 204.525 143.863 204.026 143.81 203.528L145.857 202.439ZM136.422 209.587C133.509 210.387 130.504 208.669 129.703 205.757C128.903 202.846 130.622 199.83 133.535 199.043C136.448 198.243 139.453 199.961 140.254 202.872C141.041 205.784 139.335 208.787 136.422 209.587Z" fill="white"/>
<path d="M46.1381 61.9148C56.8136 61.9148 65.4677 53.2658 65.4677 42.5967C65.4677 31.9277 56.8136 23.2787 46.1381 23.2787C35.4627 23.2787 26.8086 31.9277 26.8086 42.5967C26.8086 53.2658 35.4627 61.9148 46.1381 61.9148Z" fill="white"/>
<path d="M50.6279 39.882L50.5361 33.7574C50.4967 31.7771 48.922 30.1508 46.9405 30.059C44.7621 29.9541 42.9512 31.7377 43.0037 33.9279L43.0431 35.8295C43.0562 36.4984 42.505 37.0361 41.8489 37.0099C41.2453 36.9836 40.7597 36.4853 40.7466 35.882L40.7204 34.0721C40.6416 30.5705 43.4499 27.6853 47.0717 27.8295C50.0636 27.9476 52.8063 30.5836 52.8719 33.7836L52.9506 39.9738L50.6279 39.882Z" fill="#001A0A"/>
<path d="M52.9371 40.2623C52.924 40.2623 52.924 40.2623 52.9371 40.2623L50.6144 40.1705C50.457 40.1705 50.3389 40.0394 50.3389 39.882L50.247 33.7574C50.2076 31.9344 48.751 30.4394 46.927 30.3476C45.9559 30.3082 45.0374 30.6492 44.3419 31.3312C43.6464 32.0131 43.2658 32.9443 43.292 33.9148L43.3314 35.8164C43.3445 36.2099 43.1871 36.6033 42.8984 36.8787C42.6097 37.1541 42.2291 37.3115 41.8354 37.2853C41.0743 37.259 40.4707 36.6295 40.4576 35.8689L40.4313 34.059C40.392 32.2623 41.0612 30.5705 42.3341 29.3246C43.5939 28.0918 45.2736 27.4492 47.0845 27.5279C47.0976 27.5279 47.1107 27.5279 47.1238 27.5279C50.3258 27.6853 53.0815 30.5312 53.1602 33.7574L53.239 39.9476C53.239 40.0262 53.2127 40.1049 53.1471 40.1574C53.0815 40.2361 53.0028 40.2623 52.9371 40.2623ZM50.9031 39.5935L52.6353 39.659L52.5566 33.7705C52.491 30.8197 49.9583 28.223 47.032 28.1049C47.0189 28.1049 47.0057 28.1049 46.9926 28.1049C45.3654 28.0525 43.8432 28.6295 42.7147 29.7443C41.5599 30.8721 40.9431 32.4066 40.9825 34.0459L41.0087 35.8558C41.0087 36.3148 41.3762 36.682 41.8354 36.7082C42.0716 36.7213 42.3079 36.6295 42.4785 36.459C42.649 36.2885 42.7409 36.0656 42.7409 35.8295L42.7015 33.9279C42.6753 32.8 43.1215 31.7115 43.9351 30.9246C44.7487 30.1246 45.8116 29.718 46.9532 29.7705C49.0791 29.8623 50.7719 31.6197 50.8244 33.7443L50.9031 39.5935Z" fill="white"/>
<path d="M48.0553 56.7213L45.4701 56.8262C41.8877 56.7344 38.7251 52.459 39.0663 47.4361L39.6043 39.3967L54.8265 39.2787C56.1781 39.2787 57.3067 40.4721 57.2148 41.8229L56.7424 48.6164C56.4406 53.1803 52.6482 56.7213 48.0553 56.7213Z" fill="#001A0A"/>
<path d="M45.561 56.6033C40.522 56.6033 36.5327 52.341 36.8739 47.3049L37.3988 39.5016H53.5002C54.2351 39.5016 54.8256 40.1312 54.7731 40.8656L54.2613 48.4721C53.9464 53.0492 50.1408 56.6033 45.561 56.6033Z" fill="#001A0A"/>
<path d="M45.5617 56.8918C43.0422 56.8918 40.7064 55.882 38.9873 54.0328C37.2682 52.1967 36.4153 49.7967 36.5859 47.2787L37.1108 39.4754C37.1239 39.318 37.242 39.2 37.3995 39.2H53.5009C53.9339 39.2 54.3538 39.3836 54.6425 39.6984C54.9444 40.0131 55.0887 40.4459 55.0625 40.8787L54.5507 48.4853C54.2226 53.2066 50.2858 56.8918 45.5617 56.8918ZM37.675 39.8033L37.1633 47.3312C37.0058 49.6787 37.8063 51.9213 39.4072 53.6525C41.0213 55.3705 43.1997 56.3279 45.5617 56.3279C49.9709 56.3279 53.6715 52.8787 53.9602 48.4721L54.4719 40.8656C54.4851 40.5902 54.3932 40.3279 54.2095 40.118C54.0258 39.9213 53.7633 39.8033 53.4877 39.8033H37.675Z" fill="white"/>
<path d="M45.3663 51.6721C44.9595 51.6721 44.6315 51.3311 44.6577 50.9115L45.0383 44.8524C45.0645 44.4721 45.3795 44.1836 45.7469 44.1836C46.1537 44.1836 46.4818 44.5246 46.4555 44.9443L46.075 51.0033C46.0487 51.3705 45.7338 51.6721 45.3663 51.6721Z" fill="white"/>
<path d="M45.6147 48.0262C47.0642 48.0262 48.2393 46.8519 48.2393 45.4033C48.2393 43.9547 47.0642 42.7803 45.6147 42.7803C44.1653 42.7803 42.9902 43.9547 42.9902 45.4033C42.9902 46.8519 44.1653 48.0262 45.6147 48.0262Z" fill="white"/>
</g>
<defs>
<clipPath id="clip0_8_2760">
<rect width="220" height="240" fill="white"/>
</clipPath>
</defs>
</svg>
