<svg width="280" height="408" viewBox="0 0 280 408" fill="none" xmlns="http://www.w3.org/2000/svg">
<g clip-path="url(#clip0_1122_7597)">
<rect width="280" height="408" rx="24" fill="#001A0A"/>
<g filter="url(#filter0_f_1122_7597)">
<ellipse cx="341.763" cy="502.145" rx="302.5" ry="309.693" transform="rotate(27.8533 341.763 502.145)" fill="#16A34A" fill-opacity="0.28"/>
</g>
<path d="M36.3561 26.148C36.3561 27.4526 35.0558 28.51 33.4515 28.51H25.1144C24.6713 28.51 24.3122 28.2196 24.3122 27.8614V24.4356C24.3122 24.0774 24.6713 23.787 25.1144 23.787H33.4515C35.0558 23.787 36.3561 24.8444 36.3561 26.149V26.148ZM38.7697 21.9658C37.4801 20.9171 35.6982 20.2677 33.7304 20.2677H20.8022C20.3591 20.2677 20 20.5581 20 20.9163V34.0714C20 34.6213 20.7929 34.9217 21.3154 34.5699L25.1165 32.0108C25.2607 31.9138 25.4423 31.8606 25.6299 31.8606H33.7304C37.666 31.8606 40.8578 29.2651 40.8578 26.0637C40.8578 24.4635 40.0593 23.0145 38.7697 21.9658Z" fill="white"/>
<path d="M86.1651 20C80.473 20 75.8578 23.5813 75.8578 28C75.8578 32.4187 80.473 36 86.1651 36C91.8579 36 96.4725 32.4187 96.4725 28C96.4725 23.5813 91.8579 20 86.1651 20ZM86.1651 32.3296C83.3848 32.3296 81.1297 30.3911 81.1297 28C81.1297 25.6089 83.3832 23.6705 86.1651 23.6705C88.9471 23.6705 91.2011 25.6089 91.2011 28C91.2011 30.3911 88.9471 32.3296 86.1651 32.3296Z" fill="white"/>
<path d="M55.8088 25.1832C56.7835 26.0525 57.2724 27.2454 57.2724 28.764V34.8059C57.2724 35.1641 56.9133 35.4545 56.4703 35.4545H53.6194C53.1764 35.4545 52.8172 35.1641 52.8172 34.8059V29.6363C52.8172 28.8706 52.5729 28.2745 52.0854 27.8509C51.5967 27.4274 50.9412 27.2151 50.1164 27.2151C49.2916 27.2151 48.6361 27.4274 48.1474 27.8509C47.6588 28.2755 47.4156 28.8706 47.4156 29.6363V34.8059C47.4156 35.1641 47.0565 35.4545 46.6135 35.4545H43.7375C43.2945 35.4545 42.9354 35.1641 42.9354 34.8059V20.9163C42.9354 20.5581 43.2945 20.2677 43.7375 20.2677H46.6135C47.0565 20.2677 47.4156 20.5581 47.4156 20.9163V23.3895C47.4156 23.8873 48.0891 24.2073 48.6702 24.0429C49.1011 23.921 49.4789 23.8504 49.7756 23.8073C50.2833 23.7327 52.7314 23.4448 54.7231 24.4577C55.3278 24.7655 55.7046 25.0907 55.8088 25.1832Z" fill="white"/>
<path d="M73.6422 27.8614V27.1453C73.6422 26.7871 73.2834 26.4967 72.8401 26.4967H66.1539C64.7534 26.4967 63.6187 25.574 63.6187 24.4352V20.6486C63.6187 20.2904 63.2596 20 62.8166 20H59.3816C58.9386 20 58.5795 20.2904 58.5795 20.6486V25.0332C58.5795 28.6213 62.1563 30.7284 66.5686 30.7284H67.472C67.915 30.7284 68.2741 31.0188 68.2741 31.377V35.3504C68.2741 35.7086 68.6357 36.0042 69.0736 35.951C71.6598 35.637 73.6422 33.8233 73.6422 31.6336V27.8604V27.8614Z" fill="white"/>
<path fill-rule="evenodd" clip-rule="evenodd" d="M72.8413 20.2677C73.2846 20.2677 73.6435 20.5581 73.6435 20.9163V23.0484C73.6435 23.6265 72.7787 23.9157 72.2739 23.5065L69.6417 21.3746C69.1374 20.9658 69.4952 20.2677 70.2097 20.2677H72.8413Z" fill="#45B289"/>
<path d="M21.7614 87V72.4545H23.5227V78.9318H31.2784V72.4545H33.0398V87H31.2784V80.4943H23.5227V87H21.7614ZM40.7706 87.2273C39.7857 87.2273 38.9216 86.9929 38.1783 86.5241C37.4396 86.0554 36.862 85.3996 36.4453 84.5568C36.0334 83.714 35.8274 82.7292 35.8274 81.6023C35.8274 80.4659 36.0334 79.474 36.4453 78.6264C36.862 77.7789 37.4396 77.1207 38.1783 76.652C38.9216 76.1832 39.7857 75.9489 40.7706 75.9489C41.7554 75.9489 42.6172 76.1832 43.3558 76.652C44.0992 77.1207 44.6768 77.7789 45.0888 78.6264C45.5054 79.474 45.7138 80.4659 45.7138 81.6023C45.7138 82.7292 45.5054 83.714 45.0888 84.5568C44.6768 85.3996 44.0992 86.0554 43.3558 86.5241C42.6172 86.9929 41.7554 87.2273 40.7706 87.2273ZM40.7706 85.7216C41.5187 85.7216 42.1342 85.5298 42.6172 85.1463C43.1001 84.7628 43.4576 84.2585 43.6896 83.6335C43.9216 83.0085 44.0376 82.3314 44.0376 81.6023C44.0376 80.8731 43.9216 80.1937 43.6896 79.5639C43.4576 78.9342 43.1001 78.4252 42.6172 78.0369C42.1342 77.6487 41.5187 77.4545 40.7706 77.4545C40.0225 77.4545 39.407 77.6487 38.924 78.0369C38.4411 78.4252 38.0836 78.9342 37.8516 79.5639C37.6196 80.1937 37.5036 80.8731 37.5036 81.6023C37.5036 82.3314 37.6196 83.0085 37.8516 83.6335C38.0836 84.2585 38.4411 84.7628 38.924 85.1463C39.407 85.5298 40.0225 85.7216 40.7706 85.7216ZM48.2724 87V76.0909H49.8917V77.7955H50.0337C50.261 77.2131 50.628 76.7609 51.1346 76.4389C51.6412 76.1122 52.2496 75.9489 52.9599 75.9489C53.6796 75.9489 54.2785 76.1122 54.7567 76.4389C55.2397 76.7609 55.6161 77.2131 55.886 77.7955H55.9996C56.279 77.232 56.698 76.7846 57.2567 76.4531C57.8155 76.117 58.4854 75.9489 59.2667 75.9489C60.2421 75.9489 61.0399 76.2543 61.6602 76.8651C62.2804 77.4711 62.5906 78.4157 62.5906 79.6989V87H60.9144V79.6989C60.9144 78.8939 60.6942 78.3187 60.2539 77.973C59.8136 77.6274 59.2951 77.4545 58.6985 77.4545C57.9315 77.4545 57.3372 77.6866 56.9158 78.1506C56.4944 78.6098 56.2837 79.1922 56.2837 79.8977V87H54.5792V79.5284C54.5792 78.9081 54.378 78.4086 53.9755 78.0298C53.573 77.6463 53.0546 77.4545 52.4201 77.4545C51.9845 77.4545 51.5773 77.5705 51.1985 77.8026C50.8245 78.0346 50.5214 78.3565 50.2894 78.7685C50.0621 79.1757 49.9485 79.6468 49.9485 80.1818V87H48.2724ZM70.229 87.2273C69.1779 87.2273 68.2712 86.9953 67.5089 86.5312C66.7513 86.0625 66.1665 85.4091 65.7546 84.571C65.3474 83.7282 65.1438 82.7481 65.1438 81.6307C65.1438 80.5133 65.3474 79.5284 65.7546 78.6761C66.1665 77.8191 66.7395 77.1515 67.4734 76.6733C68.212 76.1903 69.0737 75.9489 70.0586 75.9489C70.6268 75.9489 71.1879 76.0436 71.7418 76.233C72.2958 76.4223 72.8001 76.7301 73.2546 77.1562C73.7092 77.5777 74.0714 78.1364 74.3413 78.8324C74.6112 79.5284 74.7461 80.3854 74.7461 81.4034V82.1136H66.337V80.6648H73.0415C73.0415 80.0492 72.9184 79.5 72.6722 79.017C72.4308 78.5341 72.0851 78.1529 71.6353 77.8736C71.1902 77.5942 70.6647 77.4545 70.0586 77.4545C69.391 77.4545 68.8133 77.6203 68.3256 77.9517C67.8427 78.2784 67.471 78.7045 67.2106 79.2301C66.9502 79.7557 66.82 80.3191 66.82 80.9205V81.8864C66.82 82.7102 66.962 83.4086 67.2461 83.9815C67.5349 84.5497 67.935 84.983 68.4464 85.2812C68.9577 85.5748 69.552 85.7216 70.229 85.7216C70.6694 85.7216 71.0671 85.66 71.4222 85.5369C71.7821 85.4091 72.0922 85.2197 72.3526 84.9688C72.613 84.7131 72.8143 84.3958 72.9563 84.017L74.5756 84.4716C74.4052 85.0208 74.1187 85.5038 73.7163 85.9205C73.3138 86.3324 72.8166 86.6544 72.2248 86.8864C71.6329 87.1136 70.9677 87.2273 70.229 87.2273Z" fill="white"/>
<path d="M22.358 135H20.5114L25.8523 120.455H27.6705L33.0114 135H31.1648L26.8182 122.756H26.7045L22.358 135ZM23.0398 129.318H30.483V130.881H23.0398V129.318ZM35.277 135V120.455H36.9531V125.824H37.0952C37.2183 125.634 37.3887 125.393 37.6065 125.099C37.8291 124.801 38.1463 124.536 38.5582 124.304C38.9749 124.067 39.5384 123.949 40.2486 123.949C41.1671 123.949 41.9768 124.179 42.6776 124.638C43.3783 125.097 43.9252 125.748 44.3182 126.591C44.7112 127.434 44.9077 128.428 44.9077 129.574C44.9077 130.729 44.7112 131.731 44.3182 132.578C43.9252 133.421 43.3807 134.074 42.6847 134.538C41.9886 134.998 41.1861 135.227 40.277 135.227C39.5762 135.227 39.0152 135.111 38.5938 134.879C38.1723 134.643 37.848 134.375 37.6207 134.077C37.3935 133.774 37.2183 133.523 37.0952 133.324H36.8963V135H35.277ZM36.9247 129.545C36.9247 130.369 37.0455 131.096 37.2869 131.726C37.5284 132.351 37.8812 132.841 38.3452 133.196C38.8092 133.546 39.3774 133.722 40.0497 133.722C40.7505 133.722 41.3352 133.537 41.804 133.168C42.2775 132.794 42.6326 132.292 42.8693 131.662C43.1108 131.027 43.2315 130.322 43.2315 129.545C43.2315 128.778 43.1132 128.087 42.8764 127.472C42.6444 126.851 42.2917 126.361 41.8182 126.001C41.3494 125.637 40.7599 125.455 40.0497 125.455C39.3679 125.455 38.795 125.627 38.331 125.973C37.867 126.314 37.5166 126.792 37.2798 127.408C37.0431 128.018 36.9247 128.731 36.9247 129.545ZM51.9034 135.227C50.9186 135.227 50.0545 134.993 49.3111 134.524C48.5724 134.055 47.9948 133.4 47.5781 132.557C47.1662 131.714 46.9602 130.729 46.9602 129.602C46.9602 128.466 47.1662 127.474 47.5781 126.626C47.9948 125.779 48.5724 125.121 49.3111 124.652C50.0545 124.183 50.9186 123.949 51.9034 123.949C52.8883 123.949 53.75 124.183 54.4886 124.652C55.232 125.121 55.8097 125.779 56.2216 126.626C56.6383 127.474 56.8466 128.466 56.8466 129.602C56.8466 130.729 56.6383 131.714 56.2216 132.557C55.8097 133.4 55.232 134.055 54.4886 134.524C53.75 134.993 52.8883 135.227 51.9034 135.227ZM51.9034 133.722C52.6515 133.722 53.267 133.53 53.75 133.146C54.233 132.763 54.5904 132.259 54.8224 131.634C55.0545 131.009 55.1705 130.331 55.1705 129.602C55.1705 128.873 55.0545 128.194 54.8224 127.564C54.5904 126.934 54.233 126.425 53.75 126.037C53.267 125.649 52.6515 125.455 51.9034 125.455C51.1553 125.455 50.5398 125.649 50.0568 126.037C49.5739 126.425 49.2164 126.934 48.9844 127.564C48.7524 128.194 48.6364 128.873 48.6364 129.602C48.6364 130.331 48.7524 131.009 48.9844 131.634C49.2164 132.259 49.5739 132.763 50.0568 133.146C50.5398 133.53 51.1553 133.722 51.9034 133.722ZM66.2802 130.54V124.091H67.9563V135H66.2802V133.153H66.1665C65.9109 133.707 65.5131 134.179 64.9734 134.567C64.4336 134.95 63.7518 135.142 62.9279 135.142C62.2461 135.142 61.64 134.993 61.1097 134.695C60.5794 134.392 60.1628 133.937 59.8597 133.331C59.5567 132.72 59.4052 131.951 59.4052 131.023V124.091H61.0813V130.909C61.0813 131.705 61.3039 132.339 61.7489 132.812C62.1987 133.286 62.7717 133.523 63.4677 133.523C63.8844 133.523 64.3081 133.416 64.739 133.203C65.1746 132.99 65.5392 132.663 65.8327 132.223C66.131 131.783 66.2802 131.222 66.2802 130.54ZM75.7706 124.091V125.511H70.1172V124.091H75.7706ZM71.7649 121.477H73.4411V131.875C73.4411 132.348 73.5097 132.704 73.647 132.94C73.7891 133.172 73.969 133.329 74.1868 133.409C74.4093 133.485 74.6437 133.523 74.8899 133.523C75.0746 133.523 75.2261 133.513 75.3445 133.494C75.4628 133.471 75.5575 133.452 75.6286 133.438L75.9695 134.943C75.8558 134.986 75.6972 135.028 75.4936 135.071C75.29 135.118 75.032 135.142 74.7195 135.142C74.246 135.142 73.782 135.04 73.3274 134.837C72.8776 134.633 72.5036 134.323 72.2053 133.906C71.9117 133.49 71.7649 132.964 71.7649 132.33V121.477Z" fill="white"/>
<path d="M20.9659 170.017V168.455H31.875V170.017H27.3011V183H25.5398V170.017H20.9659ZM37.358 183.227C36.3068 183.227 35.4001 182.995 34.6378 182.531C33.8802 182.062 33.2955 181.409 32.8835 180.571C32.4763 179.728 32.2727 178.748 32.2727 177.631C32.2727 176.513 32.4763 175.528 32.8835 174.676C33.2955 173.819 33.8684 173.152 34.6023 172.673C35.3409 172.19 36.2027 171.949 37.1875 171.949C37.7557 171.949 38.3168 172.044 38.8707 172.233C39.4247 172.422 39.929 172.73 40.3835 173.156C40.8381 173.578 41.2003 174.136 41.4702 174.832C41.7401 175.528 41.875 176.385 41.875 177.403V178.114H33.4659V176.665H40.1705C40.1705 176.049 40.0473 175.5 39.8011 175.017C39.5597 174.534 39.214 174.153 38.7642 173.874C38.3191 173.594 37.7936 173.455 37.1875 173.455C36.5199 173.455 35.9422 173.62 35.4545 173.952C34.9716 174.278 34.5999 174.705 34.3395 175.23C34.0791 175.756 33.9489 176.319 33.9489 176.92V177.886C33.9489 178.71 34.0909 179.409 34.375 179.982C34.6638 180.55 35.0639 180.983 35.5753 181.281C36.0866 181.575 36.6809 181.722 37.358 181.722C37.7983 181.722 38.196 181.66 38.5511 181.537C38.911 181.409 39.2211 181.22 39.4815 180.969C39.742 180.713 39.9432 180.396 40.0852 180.017L41.7045 180.472C41.5341 181.021 41.2476 181.504 40.8452 181.92C40.4427 182.332 39.9455 182.654 39.3537 182.886C38.7618 183.114 38.0966 183.227 37.358 183.227ZM52.152 174.534L50.6463 174.96C50.5516 174.709 50.4119 174.465 50.2273 174.229C50.0473 173.987 49.8011 173.788 49.4886 173.632C49.1761 173.476 48.776 173.398 48.2884 173.398C47.6207 173.398 47.0644 173.552 46.6193 173.859C46.179 174.162 45.9588 174.548 45.9588 175.017C45.9588 175.434 46.1103 175.763 46.4134 176.004C46.7164 176.246 47.1899 176.447 47.8338 176.608L49.4531 177.006C50.4285 177.242 51.1553 177.605 51.6335 178.092C52.1117 178.575 52.3509 179.198 52.3509 179.96C52.3509 180.585 52.1709 181.144 51.8111 181.636C51.456 182.129 50.9588 182.517 50.3196 182.801C49.6804 183.085 48.937 183.227 48.0895 183.227C46.9768 183.227 46.0559 182.986 45.3267 182.503C44.5975 182.02 44.1359 181.314 43.9418 180.386L45.5327 179.989C45.6842 180.576 45.9706 181.016 46.392 181.31C46.8182 181.603 47.3745 181.75 48.0611 181.75C48.8423 181.75 49.4626 181.584 49.9219 181.253C50.3859 180.917 50.6179 180.514 50.6179 180.045C50.6179 179.667 50.4853 179.349 50.2202 179.094C49.955 178.833 49.5478 178.639 48.9986 178.511L47.1804 178.085C46.1813 177.848 45.4474 177.482 44.9787 176.984C44.5147 176.482 44.2827 175.855 44.2827 175.102C44.2827 174.487 44.4555 173.942 44.8011 173.469C45.1515 172.995 45.6274 172.624 46.2287 172.354C46.8348 172.084 47.5213 171.949 48.2884 171.949C49.3679 171.949 50.2154 172.186 50.831 172.659C51.4512 173.133 51.8916 173.758 52.152 174.534ZM59.6183 172.091V173.511H53.9648V172.091H59.6183ZM55.6126 169.477H57.2887V179.875C57.2887 180.348 57.3574 180.704 57.4947 180.94C57.6367 181.172 57.8166 181.329 58.0344 181.409C58.257 181.485 58.4914 181.523 58.7376 181.523C58.9222 181.523 59.0737 181.513 59.1921 181.494C59.3105 181.471 59.4052 181.452 59.4762 181.438L59.8171 182.943C59.7035 182.986 59.5449 183.028 59.3413 183.071C59.1377 183.118 58.8796 183.142 58.5671 183.142C58.0936 183.142 57.6296 183.04 57.1751 182.837C56.7253 182.633 56.3512 182.323 56.0529 181.906C55.7594 181.49 55.6126 180.964 55.6126 180.33V169.477ZM62.1396 183V172.091H63.8157V183H62.1396ZM62.9918 170.273C62.6651 170.273 62.3834 170.161 62.1467 169.939C61.9147 169.716 61.7987 169.449 61.7987 169.136C61.7987 168.824 61.9147 168.556 62.1467 168.334C62.3834 168.111 62.6651 168 62.9918 168C63.3185 168 63.5979 168.111 63.8299 168.334C64.0666 168.556 64.185 168.824 64.185 169.136C64.185 169.449 64.0666 169.716 63.8299 169.939C63.5979 170.161 63.3185 170.273 62.9918 170.273ZM66.8857 183V172.091H68.505V173.795H68.647C68.8743 173.213 69.2412 172.761 69.7479 172.439C70.2545 172.112 70.8629 171.949 71.5732 171.949C72.2929 171.949 72.8918 172.112 73.37 172.439C73.853 172.761 74.2294 173.213 74.4993 173.795H74.6129C74.8923 173.232 75.3113 172.785 75.87 172.453C76.4287 172.117 77.0987 171.949 77.88 171.949C78.8554 171.949 79.6532 172.254 80.2734 172.865C80.8937 173.471 81.2038 174.416 81.2038 175.699V183H79.5277V175.699C79.5277 174.894 79.3075 174.319 78.8672 173.973C78.4268 173.627 77.9084 173.455 77.3118 173.455C76.5447 173.455 75.9505 173.687 75.5291 174.151C75.1077 174.61 74.897 175.192 74.897 175.898V183H73.1925V175.528C73.1925 174.908 72.9912 174.409 72.5888 174.03C72.1863 173.646 71.6679 173.455 71.0334 173.455C70.5978 173.455 70.1906 173.571 69.8118 173.803C69.4377 174.035 69.1347 174.357 68.9027 174.768C68.6754 175.176 68.5618 175.647 68.5618 176.182V183H66.8857ZM88.7003 183.227C87.7154 183.227 86.8513 182.993 86.108 182.524C85.3693 182.055 84.7917 181.4 84.375 180.557C83.9631 179.714 83.7571 178.729 83.7571 177.602C83.7571 176.466 83.9631 175.474 84.375 174.626C84.7917 173.779 85.3693 173.121 86.108 172.652C86.8513 172.183 87.7154 171.949 88.7003 171.949C89.6851 171.949 90.5469 172.183 91.2855 172.652C92.0289 173.121 92.6065 173.779 93.0185 174.626C93.4351 175.474 93.6435 176.466 93.6435 177.602C93.6435 178.729 93.4351 179.714 93.0185 180.557C92.6065 181.4 92.0289 182.055 91.2855 182.524C90.5469 182.993 89.6851 183.227 88.7003 183.227ZM88.7003 181.722C89.4484 181.722 90.0639 181.53 90.5469 181.146C91.0298 180.763 91.3873 180.259 91.6193 179.634C91.8513 179.009 91.9673 178.331 91.9673 177.602C91.9673 176.873 91.8513 176.194 91.6193 175.564C91.3873 174.934 91.0298 174.425 90.5469 174.037C90.0639 173.649 89.4484 173.455 88.7003 173.455C87.9522 173.455 87.3366 173.649 86.8537 174.037C86.3707 174.425 86.0133 174.934 85.7812 175.564C85.5492 176.194 85.4332 176.873 85.4332 177.602C85.4332 178.331 85.5492 179.009 85.7812 179.634C86.0133 180.259 86.3707 180.763 86.8537 181.146C87.3366 181.53 87.9522 181.722 88.7003 181.722ZM97.8782 176.438V183H96.2021V172.091H97.8214V173.795H97.9634C98.2191 173.241 98.6074 172.796 99.1282 172.46C99.649 172.119 100.321 171.949 101.145 171.949C101.884 171.949 102.53 172.1 103.084 172.403C103.638 172.702 104.069 173.156 104.377 173.767C104.685 174.373 104.838 175.14 104.838 176.068V183H103.162V176.182C103.162 175.325 102.94 174.657 102.495 174.179C102.05 173.696 101.439 173.455 100.662 173.455C100.127 173.455 99.649 173.571 99.2276 173.803C98.811 174.035 98.4819 174.373 98.2404 174.818C97.9989 175.263 97.8782 175.803 97.8782 176.438ZM107.901 183V172.091H109.577V183H107.901ZM108.754 170.273C108.427 170.273 108.145 170.161 107.908 169.939C107.676 169.716 107.56 169.449 107.56 169.136C107.56 168.824 107.676 168.556 107.908 168.334C108.145 168.111 108.427 168 108.754 168C109.08 168 109.36 168.111 109.592 168.334C109.828 168.556 109.947 168.824 109.947 169.136C109.947 169.449 109.828 169.716 109.592 169.939C109.36 170.161 109.08 170.273 108.754 170.273ZM115.858 183.256C115.166 183.256 114.539 183.125 113.975 182.865C113.412 182.6 112.965 182.219 112.633 181.722C112.302 181.22 112.136 180.614 112.136 179.903C112.136 179.278 112.259 178.772 112.505 178.384C112.752 177.991 113.081 177.683 113.493 177.46C113.904 177.238 114.359 177.072 114.856 176.963C115.358 176.849 115.862 176.759 116.369 176.693C117.032 176.608 117.569 176.544 117.981 176.501C118.398 176.454 118.701 176.376 118.89 176.267C119.084 176.158 119.181 175.969 119.181 175.699V175.642C119.181 174.941 118.99 174.397 118.606 174.009C118.227 173.62 117.652 173.426 116.88 173.426C116.08 173.426 115.453 173.601 114.998 173.952C114.544 174.302 114.224 174.676 114.039 175.074L112.449 174.506C112.733 173.843 113.111 173.327 113.585 172.957C114.063 172.583 114.584 172.323 115.147 172.176C115.716 172.025 116.274 171.949 116.824 171.949C117.174 171.949 117.576 171.991 118.031 172.077C118.49 172.157 118.933 172.325 119.359 172.581C119.79 172.837 120.147 173.223 120.431 173.739C120.716 174.255 120.858 174.946 120.858 175.812V183H119.181V181.523H119.096C118.983 181.759 118.793 182.013 118.528 182.283C118.263 182.553 117.91 182.782 117.47 182.972C117.029 183.161 116.492 183.256 115.858 183.256ZM116.113 181.75C116.776 181.75 117.335 181.62 117.789 181.359C118.249 181.099 118.594 180.763 118.826 180.351C119.063 179.939 119.181 179.506 119.181 179.051V177.517C119.11 177.602 118.954 177.68 118.713 177.751C118.476 177.818 118.201 177.877 117.889 177.929C117.581 177.976 117.28 178.019 116.987 178.057C116.698 178.09 116.464 178.118 116.284 178.142C115.848 178.199 115.441 178.291 115.062 178.419C114.688 178.542 114.385 178.729 114.153 178.98C113.926 179.226 113.812 179.562 113.812 179.989C113.812 180.571 114.028 181.011 114.458 181.31C114.894 181.603 115.446 181.75 116.113 181.75ZM125.593 168.455V183H123.917V168.455H125.593ZM136.39 174.534L134.885 174.96C134.79 174.709 134.65 174.465 134.466 174.229C134.286 173.987 134.039 173.788 133.727 173.632C133.414 173.476 133.014 173.398 132.527 173.398C131.859 173.398 131.303 173.552 130.858 173.859C130.417 174.162 130.197 174.548 130.197 175.017C130.197 175.434 130.349 175.763 130.652 176.004C130.955 176.246 131.428 176.447 132.072 176.608L133.691 177.006C134.667 177.242 135.394 177.605 135.872 178.092C136.35 178.575 136.589 179.198 136.589 179.96C136.589 180.585 136.409 181.144 136.049 181.636C135.694 182.129 135.197 182.517 134.558 182.801C133.919 183.085 133.175 183.227 132.328 183.227C131.215 183.227 130.294 182.986 129.565 182.503C128.836 182.02 128.374 181.314 128.18 180.386L129.771 179.989C129.922 180.576 130.209 181.016 130.63 181.31C131.056 181.603 131.613 181.75 132.299 181.75C133.081 181.75 133.701 181.584 134.16 181.253C134.624 180.917 134.856 180.514 134.856 180.045C134.856 179.667 134.724 179.349 134.458 179.094C134.193 178.833 133.786 178.639 133.237 178.511L131.419 178.085C130.42 177.848 129.686 177.482 129.217 176.984C128.753 176.482 128.521 175.855 128.521 175.102C128.521 174.487 128.694 173.942 129.039 173.469C129.39 172.995 129.866 172.624 130.467 172.354C131.073 172.084 131.76 171.949 132.527 171.949C133.606 171.949 134.454 172.186 135.069 172.659C135.69 173.133 136.13 173.758 136.39 174.534Z" fill="white"/>
<path d="M33.4659 221H31.7045C31.6004 220.493 31.4181 220.048 31.1577 219.665C30.902 219.281 30.5895 218.959 30.2202 218.699C29.8556 218.434 29.4508 218.235 29.0057 218.102C28.5606 217.97 28.0966 217.903 27.6136 217.903C26.733 217.903 25.9351 218.126 25.2202 218.571C24.5099 219.016 23.9441 219.672 23.5227 220.538C23.1061 221.405 22.8977 222.468 22.8977 223.727C22.8977 224.987 23.1061 226.05 23.5227 226.916C23.9441 227.783 24.5099 228.438 25.2202 228.884C25.9351 229.329 26.733 229.551 27.6136 229.551C28.0966 229.551 28.5606 229.485 29.0057 229.352C29.4508 229.22 29.8556 229.023 30.2202 228.763C30.5895 228.498 30.902 228.173 31.1577 227.79C31.4181 227.402 31.6004 226.956 31.7045 226.455H33.4659C33.3333 227.198 33.0919 227.863 32.7415 228.45C32.3911 229.037 31.9555 229.537 31.4347 229.949C30.9138 230.356 30.3291 230.666 29.6804 230.879C29.0365 231.092 28.3475 231.199 27.6136 231.199C26.3731 231.199 25.2699 230.896 24.304 230.29C23.3381 229.684 22.5781 228.822 22.0241 227.705C21.4702 226.587 21.1932 225.261 21.1932 223.727C21.1932 222.193 21.4702 220.867 22.0241 219.75C22.5781 218.633 23.3381 217.771 24.304 217.165C25.2699 216.559 26.3731 216.256 27.6136 216.256C28.3475 216.256 29.0365 216.362 29.6804 216.575C30.3291 216.788 30.9138 217.101 31.4347 217.513C31.9555 217.92 32.3911 218.417 32.7415 219.004C33.0919 219.587 33.3333 220.252 33.4659 221ZM39.2951 231.256C38.6038 231.256 37.9764 231.125 37.413 230.865C36.8496 230.6 36.4021 230.219 36.0707 229.722C35.7392 229.22 35.5735 228.614 35.5735 227.903C35.5735 227.278 35.6966 226.772 35.9428 226.384C36.189 225.991 36.5181 225.683 36.93 225.46C37.342 225.238 37.7965 225.072 38.2937 224.963C38.7956 224.849 39.2998 224.759 39.8065 224.693C40.4693 224.608 41.0067 224.544 41.4187 224.501C41.8353 224.454 42.1384 224.376 42.3278 224.267C42.5219 224.158 42.619 223.969 42.619 223.699V223.642C42.619 222.941 42.4272 222.397 42.0437 222.009C41.6649 221.62 41.0896 221.426 40.3178 221.426C39.5176 221.426 38.8903 221.601 38.4357 221.952C37.9812 222.302 37.6616 222.676 37.4769 223.074L35.886 222.506C36.1701 221.843 36.5489 221.327 37.0224 220.957C37.5006 220.583 38.0214 220.323 38.5849 220.176C39.1531 220.025 39.7118 219.949 40.261 219.949C40.6114 219.949 41.0138 219.991 41.4684 220.077C41.9277 220.157 42.3704 220.325 42.7965 220.581C43.2274 220.837 43.5849 221.223 43.869 221.739C44.1531 222.255 44.2951 222.946 44.2951 223.812V231H42.619V229.523H42.5337C42.4201 229.759 42.2307 230.013 41.9656 230.283C41.7004 230.553 41.3477 230.782 40.9073 230.972C40.467 231.161 39.9296 231.256 39.2951 231.256ZM39.5508 229.75C40.2137 229.75 40.7724 229.62 41.2269 229.359C41.6862 229.099 42.0318 228.763 42.2638 228.351C42.5006 227.939 42.619 227.506 42.619 227.051V225.517C42.5479 225.602 42.3917 225.68 42.1502 225.751C41.9135 225.818 41.6388 225.877 41.3263 225.929C41.0186 225.976 40.7179 226.019 40.4244 226.057C40.1355 226.09 39.9012 226.118 39.7212 226.142C39.2856 226.199 38.8784 226.291 38.4996 226.419C38.1256 226.542 37.8226 226.729 37.5906 226.98C37.3633 227.226 37.2496 227.562 37.2496 227.989C37.2496 228.571 37.4651 229.011 37.896 229.31C38.3316 229.603 38.8832 229.75 39.5508 229.75ZM47.3544 231V220.091H48.9737V221.739H49.0874C49.2862 221.199 49.6461 220.761 50.1669 220.425C50.6877 220.089 51.2749 219.92 51.9283 219.92C52.0514 219.92 52.2053 219.923 52.3899 219.928C52.5746 219.932 52.7143 219.939 52.8089 219.949V221.653C52.7521 221.639 52.6219 221.618 52.4183 221.589C52.2195 221.556 52.0088 221.54 51.7862 221.54C51.2559 221.54 50.7824 221.651 50.3658 221.874C49.9538 222.091 49.6271 222.394 49.3857 222.783C49.1489 223.166 49.0305 223.604 49.0305 224.097V231H47.3544ZM59.0376 231.227C57.9865 231.227 57.0798 230.995 56.3175 230.531C55.5599 230.062 54.9751 229.409 54.5632 228.571C54.156 227.728 53.9524 226.748 53.9524 225.631C53.9524 224.513 54.156 223.528 54.5632 222.676C54.9751 221.819 55.5481 221.152 56.282 220.673C57.0206 220.19 57.8823 219.949 58.8672 219.949C59.4354 219.949 59.9964 220.044 60.5504 220.233C61.1044 220.422 61.6087 220.73 62.0632 221.156C62.5178 221.578 62.88 222.136 63.1499 222.832C63.4197 223.528 63.5547 224.385 63.5547 225.403V226.114H55.1456V224.665H61.8501C61.8501 224.049 61.727 223.5 61.4808 223.017C61.2393 222.534 60.8937 222.153 60.4439 221.874C59.9988 221.594 59.4732 221.455 58.8672 221.455C58.1996 221.455 57.6219 221.62 57.1342 221.952C56.6513 222.278 56.2796 222.705 56.0192 223.23C55.7588 223.756 55.6286 224.319 55.6286 224.92V225.886C55.6286 226.71 55.7706 227.409 56.0547 227.982C56.3435 228.55 56.7436 228.983 57.255 229.281C57.7663 229.575 58.3606 229.722 59.0376 229.722C59.478 229.722 59.8757 229.66 60.2308 229.537C60.5907 229.409 60.9008 229.22 61.1612 228.969C61.4216 228.713 61.6229 228.396 61.7649 228.017L63.3842 228.472C63.2138 229.021 62.9273 229.504 62.5249 229.92C62.1224 230.332 61.6252 230.654 61.0334 230.886C60.4415 231.114 59.7763 231.227 59.0376 231.227ZM70.6783 231.227C69.6271 231.227 68.7204 230.995 67.9581 230.531C67.2005 230.062 66.6158 229.409 66.2038 228.571C65.7966 227.728 65.593 226.748 65.593 225.631C65.593 224.513 65.7966 223.528 66.2038 222.676C66.6158 221.819 67.1887 221.152 67.9226 220.673C68.6612 220.19 69.523 219.949 70.5078 219.949C71.076 219.949 71.6371 220.044 72.1911 220.233C72.745 220.422 73.2493 220.73 73.7038 221.156C74.1584 221.578 74.5206 222.136 74.7905 222.832C75.0604 223.528 75.1953 224.385 75.1953 225.403V226.114H66.7862V224.665H73.4908C73.4908 224.049 73.3677 223.5 73.1214 223.017C72.88 222.534 72.5343 222.153 72.0845 221.874C71.6394 221.594 71.1139 221.455 70.5078 221.455C69.8402 221.455 69.2625 221.62 68.7749 221.952C68.2919 222.278 67.9202 222.705 67.6598 223.23C67.3994 223.756 67.2692 224.319 67.2692 224.92V225.886C67.2692 226.71 67.4112 227.409 67.6953 227.982C67.9841 228.55 68.3842 228.983 68.8956 229.281C69.407 229.575 70.0012 229.722 70.6783 229.722C71.1186 229.722 71.5163 229.66 71.8714 229.537C72.2313 229.409 72.5414 229.22 72.8018 228.969C73.0623 228.713 73.2635 228.396 73.4055 228.017L75.0249 228.472C74.8544 229.021 74.5679 229.504 74.1655 229.92C73.763 230.332 73.2659 230.654 72.674 230.886C72.0821 231.114 71.4169 231.227 70.6783 231.227ZM77.745 231V220.091H79.3643V221.739H79.478C79.6768 221.199 80.0367 220.761 80.5575 220.425C81.0784 220.089 81.6655 219.92 82.3189 219.92C82.442 219.92 82.5959 219.923 82.7805 219.928C82.9652 219.932 83.1049 219.939 83.1996 219.949V221.653C83.1428 221.639 83.0125 221.618 82.8089 221.589C82.6101 221.556 82.3994 221.54 82.1768 221.54C81.6465 221.54 81.1731 221.651 80.7564 221.874C80.3445 222.091 80.0178 222.394 79.7763 222.783C79.5395 223.166 79.4212 223.604 79.4212 224.097V231H77.745ZM92.9137 222.534L91.408 222.96C91.3133 222.709 91.1737 222.465 90.989 222.229C90.8091 221.987 90.5629 221.788 90.2504 221.632C89.9379 221.476 89.5378 221.398 89.0501 221.398C88.3825 221.398 87.8261 221.552 87.381 221.859C86.9407 222.162 86.7205 222.548 86.7205 223.017C86.7205 223.434 86.872 223.763 87.1751 224.004C87.4781 224.246 87.9516 224.447 88.5955 224.608L90.2148 225.006C91.1902 225.242 91.917 225.605 92.3952 226.092C92.8735 226.575 93.1126 227.198 93.1126 227.96C93.1126 228.585 92.9326 229.144 92.5728 229.636C92.2177 230.129 91.7205 230.517 91.0813 230.801C90.4421 231.085 89.6987 231.227 88.8512 231.227C87.7385 231.227 86.8176 230.986 86.0884 230.503C85.3593 230.02 84.8976 229.314 84.7035 228.386L86.2944 227.989C86.4459 228.576 86.7324 229.016 87.1538 229.31C87.5799 229.603 88.1362 229.75 88.8228 229.75C89.604 229.75 90.2243 229.584 90.6836 229.253C91.1476 228.917 91.3796 228.514 91.3796 228.045C91.3796 227.667 91.247 227.349 90.9819 227.094C90.7167 226.833 90.3095 226.639 89.7603 226.511L87.9421 226.085C86.9431 225.848 86.2092 225.482 85.7404 224.984C85.2764 224.482 85.0444 223.855 85.0444 223.102C85.0444 222.487 85.2172 221.942 85.5629 221.469C85.9132 220.995 86.3891 220.624 86.9904 220.354C87.5965 220.084 88.283 219.949 89.0501 219.949C90.1296 219.949 90.9772 220.186 91.5927 220.659C92.2129 221.133 92.6533 221.758 92.9137 222.534Z" fill="white"/>
<path d="M33.4659 269H31.7045C31.6004 268.493 31.4181 268.048 31.1577 267.665C30.902 267.281 30.5895 266.959 30.2202 266.699C29.8556 266.434 29.4508 266.235 29.0057 266.102C28.5606 265.97 28.0966 265.903 27.6136 265.903C26.733 265.903 25.9351 266.126 25.2202 266.571C24.5099 267.016 23.9441 267.672 23.5227 268.538C23.1061 269.405 22.8977 270.468 22.8977 271.727C22.8977 272.987 23.1061 274.05 23.5227 274.916C23.9441 275.783 24.5099 276.438 25.2202 276.884C25.9351 277.329 26.733 277.551 27.6136 277.551C28.0966 277.551 28.5606 277.485 29.0057 277.352C29.4508 277.22 29.8556 277.023 30.2202 276.763C30.5895 276.498 30.902 276.173 31.1577 275.79C31.4181 275.402 31.6004 274.956 31.7045 274.455H33.4659C33.3333 275.198 33.0919 275.863 32.7415 276.45C32.3911 277.037 31.9555 277.537 31.4347 277.949C30.9138 278.356 30.3291 278.666 29.6804 278.879C29.0365 279.092 28.3475 279.199 27.6136 279.199C26.3731 279.199 25.2699 278.896 24.304 278.29C23.3381 277.684 22.5781 276.822 22.0241 275.705C21.4702 274.587 21.1932 273.261 21.1932 271.727C21.1932 270.193 21.4702 268.867 22.0241 267.75C22.5781 266.633 23.3381 265.771 24.304 265.165C25.2699 264.559 26.3731 264.256 27.6136 264.256C28.3475 264.256 29.0365 264.362 29.6804 264.575C30.3291 264.788 30.9138 265.101 31.4347 265.513C31.9555 265.92 32.3911 266.417 32.7415 267.004C33.0919 267.587 33.3333 268.252 33.4659 269ZM40.5167 279.227C39.5318 279.227 38.6677 278.993 37.9244 278.524C37.1857 278.055 36.6081 277.4 36.1914 276.557C35.7795 275.714 35.5735 274.729 35.5735 273.602C35.5735 272.466 35.7795 271.474 36.1914 270.626C36.6081 269.779 37.1857 269.121 37.9244 268.652C38.6677 268.183 39.5318 267.949 40.5167 267.949C41.5015 267.949 42.3633 268.183 43.1019 268.652C43.8453 269.121 44.4229 269.779 44.8349 270.626C45.2515 271.474 45.4599 272.466 45.4599 273.602C45.4599 274.729 45.2515 275.714 44.8349 276.557C44.4229 277.4 43.8453 278.055 43.1019 278.524C42.3633 278.993 41.5015 279.227 40.5167 279.227ZM40.5167 277.722C41.2648 277.722 41.8803 277.53 42.3633 277.146C42.8462 276.763 43.2037 276.259 43.4357 275.634C43.6677 275.009 43.7837 274.331 43.7837 273.602C43.7837 272.873 43.6677 272.194 43.4357 271.564C43.2037 270.934 42.8462 270.425 42.3633 270.037C41.8803 269.649 41.2648 269.455 40.5167 269.455C39.7686 269.455 39.1531 269.649 38.6701 270.037C38.1871 270.425 37.8297 270.934 37.5977 271.564C37.3656 272.194 37.2496 272.873 37.2496 273.602C37.2496 274.331 37.3656 275.009 37.5977 275.634C37.8297 276.259 38.1871 276.763 38.6701 277.146C39.1531 277.53 39.7686 277.722 40.5167 277.722ZM49.6946 272.438V279H48.0185V268.091H49.6378V269.795H49.7798C50.0355 269.241 50.4238 268.796 50.9446 268.46C51.4654 268.119 52.1378 267.949 52.9616 267.949C53.7003 267.949 54.3466 268.1 54.9006 268.403C55.4545 268.702 55.8854 269.156 56.1932 269.767C56.5009 270.373 56.6548 271.14 56.6548 272.068V279H54.9787V272.182C54.9787 271.325 54.7562 270.657 54.3111 270.179C53.866 269.696 53.2552 269.455 52.4787 269.455C51.9437 269.455 51.4654 269.571 51.044 269.803C50.6274 270.035 50.2983 270.373 50.0568 270.818C49.8153 271.263 49.6946 271.803 49.6946 272.438ZM64.462 268.091V269.511H58.8086V268.091H64.462ZM60.4563 265.477H62.1325V275.875C62.1325 276.348 62.2011 276.704 62.3384 276.94C62.4805 277.172 62.6604 277.329 62.8782 277.409C63.1007 277.485 63.3351 277.523 63.5813 277.523C63.766 277.523 63.9175 277.513 64.0359 277.494C64.1542 277.471 64.2489 277.452 64.32 277.438L64.6609 278.943C64.5472 278.986 64.3886 279.028 64.185 279.071C63.9814 279.118 63.7234 279.142 63.4109 279.142C62.9374 279.142 62.4734 279.04 62.0188 278.837C61.569 278.633 61.195 278.323 60.8967 277.906C60.6031 277.49 60.4563 276.964 60.4563 276.33V265.477ZM70.1935 279.256C69.5022 279.256 68.8749 279.125 68.3114 278.865C67.748 278.6 67.3005 278.219 66.9691 277.722C66.6377 277.22 66.4719 276.614 66.4719 275.903C66.4719 275.278 66.5951 274.772 66.8413 274.384C67.0875 273.991 67.4165 273.683 67.8285 273.46C68.2404 273.238 68.695 273.072 69.1921 272.963C69.694 272.849 70.1983 272.759 70.7049 272.693C71.3678 272.608 71.9052 272.544 72.3171 272.501C72.7338 272.454 73.0368 272.376 73.2262 272.267C73.4203 272.158 73.5174 271.969 73.5174 271.699V271.642C73.5174 270.941 73.3256 270.397 72.9421 270.009C72.5633 269.62 71.988 269.426 71.2163 269.426C70.4161 269.426 69.7887 269.601 69.3342 269.952C68.8796 270.302 68.56 270.676 68.3754 271.074L66.7844 270.506C67.0685 269.843 67.4473 269.327 67.9208 268.957C68.399 268.583 68.9199 268.323 69.4833 268.176C70.0515 268.025 70.6102 267.949 71.1594 267.949C71.5098 267.949 71.9123 267.991 72.3668 268.077C72.8261 268.157 73.2688 268.325 73.695 268.581C74.1258 268.837 74.4833 269.223 74.7674 269.739C75.0515 270.255 75.1935 270.946 75.1935 271.812V279H73.5174V277.523H73.4322C73.3185 277.759 73.1291 278.013 72.864 278.283C72.5988 278.553 72.2461 278.782 71.8058 278.972C71.3654 279.161 70.828 279.256 70.1935 279.256ZM70.4492 277.75C71.1121 277.75 71.6708 277.62 72.1254 277.359C72.5846 277.099 72.9303 276.763 73.1623 276.351C73.399 275.939 73.5174 275.506 73.5174 275.051V273.517C73.4464 273.602 73.2901 273.68 73.0487 273.751C72.8119 273.818 72.5373 273.877 72.2248 273.929C71.917 273.976 71.6164 274.019 71.3228 274.057C71.034 274.09 70.7996 274.118 70.6197 274.142C70.1841 274.199 69.7769 274.291 69.3981 274.419C69.024 274.542 68.721 274.729 68.489 274.98C68.2617 275.226 68.1481 275.562 68.1481 275.989C68.1481 276.571 68.3635 277.011 68.7944 277.31C69.23 277.603 69.7816 277.75 70.4492 277.75ZM82.6847 279.227C81.6619 279.227 80.7813 278.986 80.0426 278.503C79.304 278.02 78.7358 277.355 78.3381 276.507C77.9403 275.66 77.7415 274.691 77.7415 273.602C77.7415 272.494 77.9451 271.517 78.3523 270.669C78.7642 269.817 79.3371 269.152 80.071 268.673C80.8097 268.19 81.6714 267.949 82.6562 267.949C83.4233 267.949 84.1146 268.091 84.7301 268.375C85.3456 268.659 85.8499 269.057 86.2429 269.568C86.6359 270.08 86.8797 270.676 86.9744 271.358H85.2983C85.1705 270.861 84.8864 270.42 84.446 270.037C84.0104 269.649 83.4233 269.455 82.6847 269.455C82.0313 269.455 81.4583 269.625 80.9659 269.966C80.4782 270.302 80.0971 270.778 79.8224 271.393C79.5526 272.004 79.4176 272.722 79.4176 273.545C79.4176 274.388 79.5502 275.122 79.8153 275.747C80.0852 276.372 80.464 276.857 80.9517 277.203C81.4441 277.549 82.0218 277.722 82.6847 277.722C83.1203 277.722 83.5156 277.646 83.8707 277.494C84.2259 277.343 84.5265 277.125 84.7727 276.841C85.0189 276.557 85.1941 276.216 85.2983 275.818H86.9744C86.8797 276.462 86.6454 277.042 86.2713 277.558C85.902 278.07 85.4119 278.477 84.8011 278.78C84.1951 279.078 83.4896 279.227 82.6847 279.227ZM94.169 268.091V269.511H88.5156V268.091H94.169ZM90.1634 265.477H91.8395V275.875C91.8395 276.348 91.9081 276.704 92.0455 276.94C92.1875 277.172 92.3674 277.329 92.5852 277.409C92.8078 277.485 93.0421 277.523 93.2884 277.523C93.473 277.523 93.6245 277.513 93.7429 277.494C93.8613 277.471 93.956 277.452 94.027 277.438L94.3679 278.943C94.2543 278.986 94.0956 279.028 93.892 279.071C93.6884 279.118 93.4304 279.142 93.1179 279.142C92.6444 279.142 92.1804 279.04 91.7259 278.837C91.276 278.633 90.902 278.323 90.6037 277.906C90.3101 277.49 90.1634 276.964 90.1634 276.33V265.477Z" fill="white"/>
<line x1="20" y1="315.75" x2="260" y2="315.75" stroke="url(#paint0_linear_1122_7597)" stroke-width="0.5"/>
<rect x="20.5" y="348.5" width="239" height="39" rx="19.5" stroke="white"/>
<path d="M122.171 365.273C122.103 364.697 121.826 364.25 121.342 363.932C120.857 363.614 120.262 363.455 119.558 363.455C119.042 363.455 118.592 363.538 118.205 363.705C117.823 363.871 117.523 364.1 117.308 364.392C117.095 364.684 116.989 365.015 116.989 365.386C116.989 365.697 117.063 365.964 117.211 366.188C117.362 366.407 117.556 366.591 117.79 366.739C118.025 366.883 118.272 367.002 118.529 367.097C118.787 367.187 119.023 367.261 119.239 367.318L120.421 367.636C120.724 367.716 121.061 367.826 121.433 367.966C121.808 368.106 122.165 368.297 122.506 368.54C122.851 368.778 123.135 369.085 123.359 369.46C123.582 369.835 123.694 370.295 123.694 370.841C123.694 371.47 123.529 372.038 123.2 372.545C122.874 373.053 122.397 373.456 121.768 373.756C121.143 374.055 120.383 374.205 119.489 374.205C118.656 374.205 117.934 374.07 117.325 373.801C116.719 373.532 116.241 373.157 115.893 372.676C115.548 372.195 115.353 371.636 115.308 371H116.762C116.8 371.439 116.948 371.803 117.205 372.091C117.467 372.375 117.796 372.587 118.194 372.727C118.595 372.864 119.027 372.932 119.489 372.932C120.027 372.932 120.51 372.845 120.938 372.67C121.366 372.492 121.705 372.246 121.955 371.932C122.205 371.614 122.33 371.242 122.33 370.818C122.33 370.432 122.222 370.117 122.006 369.875C121.79 369.633 121.506 369.436 121.154 369.284C120.802 369.133 120.421 369 120.012 368.886L118.58 368.477C117.671 368.216 116.951 367.843 116.421 367.358C115.891 366.873 115.626 366.239 115.626 365.455C115.626 364.803 115.802 364.235 116.154 363.75C116.51 363.261 116.987 362.883 117.586 362.614C118.188 362.341 118.861 362.205 119.603 362.205C120.353 362.205 121.02 362.339 121.603 362.608C122.186 362.873 122.648 363.237 122.989 363.699C123.334 364.161 123.516 364.686 123.535 365.273H122.171ZM125.829 374V365.273H127.17V374H125.829ZM126.511 363.818C126.249 363.818 126.024 363.729 125.835 363.551C125.649 363.373 125.556 363.159 125.556 362.909C125.556 362.659 125.649 362.445 125.835 362.267C126.024 362.089 126.249 362 126.511 362C126.772 362 126.996 362.089 127.181 362.267C127.371 362.445 127.465 362.659 127.465 362.909C127.465 363.159 127.371 363.373 127.181 363.551C126.996 363.729 126.772 363.818 126.511 363.818ZM133.148 377.455C132.501 377.455 131.944 377.371 131.478 377.205C131.012 377.042 130.624 376.826 130.313 376.557C130.006 376.292 129.762 376.008 129.58 375.705L130.648 374.955C130.77 375.114 130.923 375.295 131.109 375.5C131.294 375.708 131.548 375.888 131.87 376.04C132.196 376.195 132.622 376.273 133.148 376.273C133.853 376.273 134.434 376.102 134.893 375.761C135.351 375.42 135.58 374.886 135.58 374.159V372.386H135.467C135.368 372.545 135.228 372.742 135.046 372.977C134.868 373.208 134.611 373.415 134.273 373.597C133.94 373.775 133.489 373.864 132.921 373.864C132.217 373.864 131.584 373.697 131.023 373.364C130.467 373.03 130.025 372.545 129.7 371.909C129.378 371.273 129.217 370.5 129.217 369.591C129.217 368.697 129.374 367.919 129.688 367.256C130.003 366.589 130.44 366.074 131.001 365.71C131.561 365.343 132.209 365.159 132.944 365.159C133.512 365.159 133.963 365.254 134.296 365.443C134.633 365.629 134.891 365.841 135.069 366.08C135.251 366.314 135.391 366.508 135.489 366.659H135.626V365.273H136.921V374.25C136.921 375 136.751 375.61 136.41 376.08C136.073 376.553 135.618 376.9 135.046 377.119C134.478 377.343 133.845 377.455 133.148 377.455ZM133.103 372.659C133.641 372.659 134.095 372.536 134.467 372.29C134.838 372.044 135.12 371.689 135.313 371.227C135.506 370.765 135.603 370.212 135.603 369.568C135.603 368.939 135.508 368.384 135.319 367.903C135.129 367.422 134.849 367.045 134.478 366.773C134.107 366.5 133.648 366.364 133.103 366.364C132.535 366.364 132.061 366.508 131.683 366.795C131.308 367.083 131.025 367.47 130.836 367.955C130.65 368.439 130.558 368.977 130.558 369.568C130.558 370.174 130.652 370.71 130.842 371.176C131.035 371.638 131.319 372.002 131.694 372.267C132.073 372.528 132.542 372.659 133.103 372.659ZM140.717 368.75V374H139.376V365.273H140.671V366.636H140.785C140.989 366.193 141.3 365.837 141.717 365.568C142.133 365.295 142.671 365.159 143.33 365.159C143.921 365.159 144.438 365.28 144.881 365.523C145.325 365.761 145.669 366.125 145.915 366.614C146.162 367.098 146.285 367.712 146.285 368.455V374H144.944V368.545C144.944 367.86 144.766 367.326 144.41 366.943C144.054 366.557 143.565 366.364 142.944 366.364C142.516 366.364 142.133 366.456 141.796 366.642C141.463 366.828 141.2 367.098 141.006 367.455C140.813 367.811 140.717 368.242 140.717 368.75ZM154.826 362.364V374H153.417V362.364H154.826ZM158.81 368.75V374H157.469V365.273H158.765V366.636H158.879C159.083 366.193 159.394 365.837 159.81 365.568C160.227 365.295 160.765 365.159 161.424 365.159C162.015 365.159 162.532 365.28 162.975 365.523C163.418 365.761 163.763 366.125 164.009 366.614C164.255 367.098 164.379 367.712 164.379 368.455V374H163.038V368.545C163.038 367.86 162.86 367.326 162.504 366.943C162.147 366.557 161.659 366.364 161.038 366.364C160.61 366.364 160.227 366.456 159.89 366.642C159.557 366.828 159.293 367.098 159.1 367.455C158.907 367.811 158.81 368.242 158.81 368.75Z" fill="white"/>
<path d="M259.68 23.8195C259.78 23.7227 259.86 23.6068 259.915 23.4788C259.97 23.3507 259.999 23.213 260 23.0735C260.001 22.9341 259.975 22.7959 259.922 22.6668C259.87 22.5378 259.792 22.4205 259.694 22.3219C259.596 22.2232 259.479 22.1452 259.35 22.0924C259.222 22.0395 259.084 22.0129 258.945 22.014C258.806 22.0152 258.668 22.0441 258.541 22.099C258.413 22.154 258.297 22.2339 258.201 22.3342L254.006 26.5409L249.812 22.3342C249.717 22.231 249.601 22.1483 249.473 22.0909C249.344 22.0335 249.206 22.0027 249.065 22.0002C248.925 21.9977 248.785 22.0236 248.655 22.0764C248.524 22.1292 248.406 22.2078 248.307 22.3075C248.207 22.4072 248.129 22.526 248.076 22.6567C248.024 22.7874 247.998 22.9275 248 23.0685C248.003 23.2094 248.033 23.3485 248.091 23.4772C248.148 23.606 248.23 23.722 248.333 23.8181L252.524 28.0262L248.33 32.2329C248.145 32.4319 248.045 32.6952 248.05 32.9672C248.054 33.2392 248.164 33.4987 248.356 33.6911C248.548 33.8834 248.806 33.9936 249.078 33.9984C249.349 34.0032 249.611 33.9023 249.81 33.7168L254.006 29.5101L258.199 33.7182C258.398 33.9037 258.66 34.0046 258.931 33.9998C259.203 33.995 259.461 33.8848 259.653 33.6925C259.845 33.5001 259.955 33.2406 259.959 32.9686C259.964 32.6966 259.864 32.4333 259.679 32.2343L255.488 28.0262L259.68 23.8195Z" fill="white"/>
</g>
<defs>
<filter id="filter0_f_1122_7597" x="-212.38" y="-56.0566" width="1108.29" height="1116.4" filterUnits="userSpaceOnUse" color-interpolation-filters="sRGB">
<feFlood flood-opacity="0" result="BackgroundImageFix"/>
<feBlend mode="normal" in="SourceGraphic" in2="BackgroundImageFix" result="shape"/>
<feGaussianBlur stdDeviation="125" result="effect1_foregroundBlur_1122_7597"/>
</filter>
<linearGradient id="paint0_linear_1122_7597" x1="20" y1="316.5" x2="260" y2="316.5" gradientUnits="userSpaceOnUse">
<stop stop-color="white" stop-opacity="0"/>
<stop offset="0.5" stop-color="white"/>
<stop offset="1" stop-color="white" stop-opacity="0"/>
</linearGradient>
<clipPath id="clip0_1122_7597">
<rect width="280" height="408" rx="24" fill="white"/>
</clipPath>
</defs>
</svg>
