<svg preserveAspectRatio="none" width="100%" height="100%" overflow="visible" style="display: block;" viewBox="0 0 918.58 955.544" fill="none" xmlns="http://www.w3.org/2000/svg">
<g id="Group">
<path id="Vector" d="M73.5855 941.953C65.9394 941.83 58.5407 941.399 51.2814 940.657C41.0637 939.609 28.1606 937.534 19.0043 930.74C13.1726 926.392 9.40182 920.428 8.09836 913.493C6.89683 907.101 7.78677 900.193 10.6712 893.516C12.8414 888.487 16.0876 883.81 20.0599 879.994C26.0925 874.2 33.4739 868.6 42.0005 863.349C49.3487 858.824 57.808 854.4 67.1441 850.202C77.0386 845.76 87.1423 841.261 96.9146 836.91C128.515 822.842 161.191 808.293 192.736 792.986C228.154 775.798 258.196 759.528 284.581 743.246C289.43 740.254 294.236 737.211 298.865 734.202C301.491 732.496 304.153 730.746 306.728 729.054C325.544 716.682 345.001 703.891 368.02 696.519C381.252 692.28 395.173 689.845 408.635 687.488C420.292 685.448 432.346 683.339 443.881 680.069C463.055 674.627 481.06 664.72 498.925 649.782C514.736 636.561 528.719 620.845 541.686 605.881C549.467 596.901 558.287 586.723 565.421 576.289C573.32 564.737 578.337 554.044 580.76 543.602C582.186 537.461 582.817 531.171 582.689 524.368C582.577 518.307 581.859 511.978 580.497 505.017C577.967 492.086 573.534 478.893 569.248 466.136C563.929 450.304 558.429 433.936 556.537 417.963C555.185 406.556 555.77 396.367 558.322 386.812C563.212 368.506 575.473 352.645 587.329 337.308C590.479 333.233 593.736 329.021 596.786 324.845C601.914 317.805 606.231 309.744 609.616 300.886C613.022 291.978 615.314 282.713 616.428 273.347C617.586 263.605 617.416 254.159 615.919 245.275C614.324 235.807 611.253 227.208 606.791 219.716C596.946 203.225 582.526 188.866 568.582 174.98C554.358 160.816 539.649 146.169 529.76 129.234C527.49 125.346 525.125 121.191 523.345 116.884C520.18 109.233 519.012 100.912 519.874 92.1509C520.647 84.2949 523.04 76.1027 526.988 67.8025C530.004 61.4646 533.883 55.1499 538.521 49.032C539.364 47.9162 540.307 46.6399 541.303 45.288C545.834 39.1495 552.039 30.7423 559.062 23.6501C562.895 19.7797 566.623 16.6653 570.143 14.3937C574.244 11.7478 578.211 10.1451 581.938 9.63091C588.198 8.77731 595.975 10.4677 605.057 14.6583C613.55 18.5605 623.121 24.4882 634.318 32.7805C643.873 39.857 652.971 47.453 660.281 53.5562C662.181 55.1435 663.976 56.6416 665.648 58.0226C668.165 60.1004 670.061 61.6473 671.734 62.934C717.106 97.7251 755.551 129.025 789.264 158.627C797.812 166.132 805.75 173.957 812.519 180.701C827.714 195.841 838.358 208.039 847.033 220.253C855.905 232.727 863.395 246.336 869.296 260.703C874.791 274.082 879.082 288.546 882.049 303.69C884.157 314.425 885.681 325.771 886.579 337.413C887.421 348.323 887.74 359.829 887.525 371.61C887.14 392.692 885.114 414.947 881.329 439.648C880.038 448.072 878.63 456.69 877.268 465.024C872.276 495.573 867.114 527.164 866.175 558.095C865.669 574.767 866.401 589.838 868.415 604.174C870.68 620.293 874.491 635.051 880.067 649.292C884.02 659.394 889.005 669.821 893.827 679.903C901.902 696.789 910.253 714.252 914.3 731.198C916.481 740.331 917.264 748.56 916.694 756.357C916.054 765.121 913.734 773.11 909.605 780.783C905.76 787.928 900.262 794.62 893.266 800.672C884.028 808.667 872.078 815.772 856.733 822.393C842.454 828.555 827.095 833.48 813.955 837.485C767.994 851.491 718.911 866.181 668.583 878.293C613.828 891.472 564.69 899.803 518.359 903.762C479.848 907.054 440.478 907.759 402.407 908.442C376.281 908.911 349.264 909.394 322.827 910.712C293.185 912.189 267.392 914.584 243.971 918.031C225.877 920.699 207.534 924.241 189.795 927.666C175.135 930.496 159.975 933.424 145.013 935.848C127.604 938.666 112.329 940.462 98.317 941.337C89.7337 941.877 81.5264 942.081 73.5855 941.953ZM541.717 605.912L541.748 605.94C528.779 620.908 514.794 636.626 498.978 649.851C481.105 664.796 463.091 674.709 443.905 680.154C432.366 683.424 420.31 685.534 408.652 687.575C395.192 689.931 381.274 692.367 368.048 696.603C345.04 703.972 325.586 716.76 306.774 729.128C304.2 730.821 301.538 732.57 298.912 734.277C294.282 737.287 289.476 740.329 284.627 743.322C258.238 759.605 228.194 775.876 192.774 793.065C161.228 808.375 128.551 822.923 96.95 836.991C87.1785 841.342 77.0739 845.841 67.1802 850.284C57.8474 854.48 49.3906 858.902 42.0457 863.425C33.5248 868.672 26.1476 874.27 20.1191 880.059C16.155 883.868 12.9153 888.534 10.75 893.553C7.87114 900.214 6.98436 907.105 8.18162 913.48C9.48076 920.392 13.2399 926.337 19.0524 930.671C28.1929 937.453 41.082 939.525 51.289 940.574C66.0843 942.083 81.4648 942.308 98.313 941.255C112.323 940.38 127.595 938.585 145.001 935.766C159.963 933.342 175.121 930.415 189.781 927.585C207.52 924.159 225.865 920.618 243.96 917.949C267.383 914.502 293.181 912.108 322.824 910.63C349.263 909.313 376.279 908.827 402.405 908.359C440.477 907.677 479.844 906.971 518.354 903.68C564.68 899.721 613.815 891.39 668.566 878.212C718.892 866.1 767.974 851.411 813.933 837.405C827.071 833.401 842.426 828.477 856.703 822.317C872.039 815.699 883.983 808.598 893.215 800.609C900.203 794.562 905.695 787.88 909.534 780.743C913.659 773.082 915.974 765.103 916.614 756.352C917.183 748.563 916.4 740.343 914.221 731.22C910.177 714.284 901.828 696.825 893.754 679.943C888.933 669.859 883.946 659.431 879.991 649.326C874.414 635.078 870.601 620.313 868.335 604.187C866.319 589.846 865.587 574.769 866.093 558.092C867.034 527.156 872.195 495.563 877.188 465.01C878.549 456.676 879.957 448.057 881.249 439.634C885.033 414.937 887.06 392.686 887.444 371.608C887.659 359.829 887.34 348.326 886.498 337.419C885.6 325.781 884.076 314.439 881.969 303.707C879.004 288.568 874.714 274.11 869.22 260.737C863.322 246.376 855.835 232.773 846.968 220.304C838.296 208.096 827.655 195.901 812.464 180.764C805.696 174.02 797.759 166.197 789.213 158.693C755.501 129.094 717.058 97.7947 671.688 63.0036C670.013 61.716 668.117 60.17 665.598 58.0905C663.927 56.7103 662.132 55.2123 660.231 53.625C652.922 47.5218 643.826 39.9274 634.273 32.8518C623.08 24.5622 613.514 18.6372 605.028 14.7376C595.96 10.555 588.201 8.86319 581.953 9.71784C578.238 10.2305 574.281 11.8291 570.189 14.4691C566.675 16.7373 562.951 19.8475 559.122 23.7137C552.104 30.8017 545.9 39.2063 541.371 45.3423C540.373 46.6942 539.431 47.9714 538.587 49.088C533.954 55.2009 530.077 61.5112 527.065 67.8432C523.121 76.134 520.729 84.3159 519.958 92.1634C519.098 100.908 520.263 109.215 523.422 116.853C525.2 121.154 527.565 125.306 529.833 129.192C539.716 146.116 554.421 160.759 568.641 174.92C582.59 188.81 597.013 203.173 606.864 219.673C611.331 227.175 614.406 235.785 616.003 245.263C617.501 254.157 617.672 263.61 616.513 273.362C615.398 282.734 613.105 292.006 609.696 300.921C606.307 309.785 601.987 317.854 596.855 324.9C593.803 329.077 590.545 333.29 587.397 337.365C575.544 352.697 563.288 368.55 558.403 386.839C555.854 396.383 555.271 406.562 556.621 417.957C558.512 433.92 564.01 450.284 569.328 466.11C573.615 478.871 578.05 492.067 580.58 505.004C581.942 511.969 582.661 518.304 582.774 524.369C582.901 531.179 582.269 537.477 580.843 543.625C578.417 554.078 573.395 564.78 565.491 576.341C558.354 586.779 549.533 596.959 541.749 605.94L541.717 605.912Z" fill="var(--fill-0, white)" fill-opacity="0.4"/>
</g>
</svg>
