<svg preserveAspectRatio="none" width="100%" height="100%" overflow="visible" style="display: block;" viewBox="0 0 953.629 978.624" fill="none" xmlns="http://www.w3.org/2000/svg">
<g id="Group">
<path id="Vector" d="M75.1135 964.529C67.531 964.407 60.176 963.995 52.9529 963.293C42.3539 962.259 28.973 960.178 19.5 953.208C13.4724 948.763 9.58744 942.652 8.2636 935.535C7.03988 928.958 8.00136 921.868 11.044 915.029C13.3364 909.87 16.7572 905.091 20.9373 901.208C27.2925 895.307 35.0568 889.63 44.0162 884.333C51.7558 879.758 60.6433 875.316 70.4322 871.134C79.8614 867.107 89.4798 863.03 98.7819 859.088C132.372 844.85 167.104 830.128 200.546 814.577C238.08 797.123 269.852 780.506 297.676 763.776C302.718 760.745 307.71 757.661 312.52 754.608C315.298 752.844 318.113 751.035 320.837 749.285C340.322 736.762 360.469 723.814 384.339 716.53C398.105 712.329 412.595 710.029 426.608 707.804C438.724 705.88 451.253 703.891 463.246 700.683C483.202 695.34 501.941 685.353 520.532 670.151C537.043 656.651 551.564 640.599 565.022 625.314C581.5 606.715 600.175 585.635 605.951 561.095C607.443 554.755 608.103 548.257 607.968 541.232C607.847 534.974 607.095 528.437 605.666 521.249C603.011 507.894 598.363 494.269 593.868 481.092C588.282 464.721 582.505 447.792 580.526 431.275C579.113 419.487 579.733 408.957 582.422 399.082C587.569 380.175 600.45 363.845 612.907 348.051C616.223 343.847 619.652 339.501 622.864 335.191C628.248 327.954 632.78 319.643 636.336 310.488C639.908 301.288 642.308 291.71 643.467 282.021C644.673 271.943 644.479 262.176 642.888 252.992C641.193 243.201 637.943 234.323 633.232 226.601C622.818 209.557 607.564 194.761 592.811 180.453C577.803 165.898 562.284 150.846 551.796 133.384C549.382 129.365 546.867 125.07 544.971 120.627C541.594 112.719 540.309 104.111 541.15 95.0443C541.904 86.9178 544.356 78.4441 548.434 69.8601C551.547 63.308 555.563 56.7841 560.371 50.4708C561.26 49.3016 562.258 47.9559 563.315 46.5315C568.013 40.1976 574.447 31.5212 581.744 24.2238C585.726 20.2402 589.601 17.0459 593.261 14.73C597.525 12.0304 601.654 10.4204 605.532 9.94447C612.068 9.14782 620.197 11.0419 629.693 15.5682C638.628 19.8199 648.722 26.2779 660.548 35.3116C670.624 43.0077 680.16 51.2119 687.822 57.8024C689.691 59.4109 691.456 60.9286 693.102 62.3313C695.832 64.6675 697.776 66.29 699.405 67.5922C746.258 104.994 785.955 137.596 820.768 167.261C828.74 174.053 836.69 181.169 845.075 189.015C860.9 203.821 872.001 215.901 881.072 228.18C890.241 240.585 897.918 254.17 903.889 268.556C909.434 281.914 913.689 296.406 916.537 311.627C918.543 322.337 919.925 333.713 920.642 345.437C921.307 356.305 921.424 367.845 920.989 379.736C920.241 400.23 917.859 422.537 913.711 447.93C912.476 455.497 911.152 463.234 909.872 470.717C904.382 502.821 898.704 536.019 897.611 568.555C897.022 586.094 897.785 601.949 899.943 617.026C902.368 633.984 906.479 649.502 912.508 664.47C916.735 674.962 922.067 685.797 927.223 696.275C935.797 713.695 944.662 731.708 949.031 749.194C951.387 758.616 952.275 767.108 951.746 775.154C951.152 784.196 948.8 792.441 944.554 800.357C940.592 807.744 934.902 814.651 927.642 820.885C918.1 829.081 905.69 836.358 889.706 843.133C875.297 849.241 859.87 854.153 845.346 858.552C798.941 872.488 746.344 888.284 693.485 901.043C665.895 907.702 640.503 913.009 615.86 917.267C588.241 922.037 562.325 925.366 536.632 927.444C495.959 930.84 454.284 931.21 413.982 931.567C387.296 931.804 359.702 932.049 332.7 933.172C302.423 934.431 276.088 936.688 252.192 940.071C232.923 942.799 213.407 946.51 194.533 950.098C179.887 952.882 164.744 955.761 149.813 958.163C131.52 961.105 116.195 962.913 101.584 963.849C92.3838 964.438 83.6047 964.665 75.1135 964.529ZM565.082 625.373C551.622 640.661 537.097 656.717 520.582 670.22C501.981 685.429 483.233 695.42 463.266 700.766C451.269 703.977 438.737 705.965 426.621 707.89C412.61 710.113 398.123 712.414 384.363 716.614C360.503 723.895 340.36 736.841 320.88 749.359C318.157 751.109 315.342 752.919 312.563 754.682C307.754 757.735 302.759 760.82 297.717 763.851C269.891 780.583 238.116 797.201 200.579 814.657C167.136 830.207 132.403 844.93 98.8139 859.168C89.5126 863.11 79.8934 867.187 70.4642 871.214C60.6786 875.396 51.7936 879.835 44.0572 884.409C35.1035 889.704 27.3425 895.378 20.9922 901.274C16.8203 905.15 13.4068 909.919 11.1185 915.068C8.08399 921.891 7.12483 928.963 8.34427 935.521C9.66381 942.616 13.5379 948.709 19.5464 953.14C29.0036 960.098 42.3705 962.177 52.9588 963.209C88.8291 966.7 123.552 962.301 149.795 958.08C164.726 955.677 179.868 952.797 194.513 950.014C213.388 946.425 232.905 942.715 252.175 939.986C276.075 936.603 302.412 934.346 332.691 933.087C359.694 931.964 387.289 931.72 413.976 931.482C454.278 931.124 495.95 930.753 536.62 927.359C562.311 925.281 588.224 921.953 615.841 917.182C640.483 912.925 665.872 907.618 693.461 900.959C746.317 888.201 798.913 872.406 845.318 858.47C859.839 854.072 875.263 849.16 889.67 843.054C905.646 836.283 918.048 829.009 927.585 820.819C934.837 814.593 940.521 807.694 944.477 800.316C948.718 792.41 951.067 784.178 951.661 775.148C952.188 767.11 951.3 758.628 948.948 749.215C944.58 731.738 935.718 713.73 927.147 696.314C921.99 685.835 916.656 674.998 912.43 664.503C906.397 649.529 902.284 634.004 899.858 617.039C897.7 601.956 896.938 586.096 897.526 568.552C898.619 536.01 904.297 502.809 909.788 470.702C911.068 463.219 912.391 455.481 913.628 447.915C917.775 422.526 920.155 400.224 920.904 379.733C921.338 367.844 921.222 356.308 920.557 345.443C919.84 333.722 918.459 322.351 916.454 311.644C913.607 296.429 909.354 281.943 903.811 268.59C897.843 254.211 890.169 240.633 881.004 228.234C871.937 215.96 860.839 203.884 845.018 189.08C836.634 181.236 828.685 174.121 820.715 167.33C785.902 137.664 746.205 105.062 699.353 67.6625C697.723 66.3595 695.779 64.7352 693.048 62.3998C691.402 60.998 689.636 59.4786 687.768 57.8709C680.105 51.2796 670.571 43.0771 660.497 35.3827C648.675 26.3526 638.587 19.8972 629.656 15.649C620.175 11.1289 612.056 9.23676 605.541 10.032C601.675 10.5065 597.557 12.1123 593.302 14.8061C589.647 17.1195 585.776 20.3096 581.798 24.2889C574.507 31.5821 568.075 40.2551 563.377 46.5864C562.32 48.0126 561.322 49.3575 560.433 50.5275C555.628 56.8357 551.615 63.3545 548.505 69.9015C544.431 78.477 541.983 86.9405 541.23 95.0567C540.39 104.108 541.672 112.701 545.043 120.595C546.937 125.032 549.451 129.325 551.862 133.342C562.345 150.794 577.86 165.842 592.864 180.393C607.62 194.706 622.879 209.504 633.299 226.558C638.017 234.289 641.27 243.179 642.967 252.98C644.558 262.173 644.754 271.949 643.547 282.035C642.386 291.731 639.985 301.317 636.41 310.523C632.854 319.684 628.317 328.002 622.929 335.245C619.716 339.557 616.286 343.904 612.97 348.108C600.517 363.894 587.642 380.218 582.5 399.108C579.814 408.972 579.195 419.491 580.607 431.268C582.585 447.776 588.36 464.699 593.943 481.067C598.439 494.246 603.089 507.873 605.745 521.234C607.175 528.428 607.929 534.969 608.049 541.234C608.184 548.266 607.524 554.771 606.03 561.118C603.483 571.938 598.228 582.987 589.967 594.897C582.332 605.901 572.768 616.698 565.082 625.373Z" fill="var(--fill-0, white)" fill-opacity="0.4"/>
</g>
</svg>
