<svg width="116" height="83" viewBox="0 0 116 83" fill="none" xmlns="http://www.w3.org/2000/svg">
<path fill-rule="evenodd" clip-rule="evenodd" d="M83.7499 5.53571C70.0313 5.47776 54.5533 -5.28741 43.662 3.36163C32.6551 12.1025 41.5265 31.6988 34.9236 44.3099C26.4556 60.4833 -5.7089 68.0311 0.88409 85.0647C7.86536 103.102 39.9506 84.2585 54.9284 95.9944C69.1742 107.157 59.639 141.573 77.2454 144.898C93.7305 148.011 96.3012 117.488 109.064 106.218C119.283 97.1945 135.238 97.458 143.433 86.451C153.229 73.2941 161.433 56.5402 158.116 40.3359C154.756 23.9177 141.29 10.6339 126.498 3.71155C113.198 -2.51191 98.367 5.59746 83.7499 5.53571Z" fill="#16833E"/>
</svg>
