<svg width="203" height="154" viewBox="0 0 203 154" fill="none" xmlns="http://www.w3.org/2000/svg">
<path fill-rule="evenodd" clip-rule="evenodd" d="M161.824 10.696C135.317 10.5841 105.409 -10.2167 84.365 6.4952C63.0971 23.3846 80.2386 61.2492 67.4803 85.6167C51.1182 116.867 -11.031 131.451 1.70818 164.364C15.1976 199.216 77.1936 162.807 106.134 185.483C133.66 207.051 115.236 273.551 149.256 279.975C181.109 285.991 186.076 227.014 210.737 205.237C230.482 187.802 261.311 188.311 277.146 167.043C296.074 141.621 311.926 109.248 305.517 77.9379C299.024 46.2143 273.006 20.5468 244.423 7.17134C218.726 -4.85384 190.068 10.8153 161.824 10.696Z" fill="#16833E"/>
</svg>
