<svg width="19" height="15" viewBox="0 0 19 15" fill="none" xmlns="http://www.w3.org/2000/svg">
<path fill-rule="evenodd" clip-rule="evenodd" d="M17.9918 6.49563C18.1381 6.64205 18.2202 6.84052 18.2202 7.04746C18.2202 7.25439 18.1381 7.45287 17.9918 7.59928L11.7447 13.8464C11.6733 13.9231 11.587 13.9846 11.4913 14.0273C11.3955 14.07 11.2921 14.0929 11.1872 14.0948C11.0824 14.0966 10.9782 14.0774 10.881 14.0381C10.7838 13.9988 10.6954 13.9403 10.6213 13.8662C10.5471 13.792 10.4887 13.7037 10.4494 13.6065C10.4101 13.5093 10.3908 13.4051 10.3927 13.3003C10.3945 13.1954 10.4175 13.092 10.4602 12.9962C10.5028 12.9004 10.5644 12.8142 10.6411 12.7427L15.5555 7.82834L0.781103 7.82834C0.573999 7.82834 0.375376 7.74607 0.228931 7.59963C0.0824871 7.45318 0.00021553 7.25456 0.00021553 7.04746C0.00021553 6.84035 0.0824871 6.64173 0.228931 6.49529C0.375376 6.34884 0.573999 6.26657 0.781103 6.26657L15.5555 6.26657L10.6411 1.35219C10.5644 1.2807 10.5028 1.19449 10.4602 1.0987C10.4175 1.00292 10.3945 0.899512 10.3927 0.794662C10.3908 0.689812 10.4101 0.585663 10.4494 0.488429C10.4887 0.391195 10.5471 0.302868 10.6213 0.228716C10.6954 0.154564 10.7838 0.0961074 10.881 0.056833C10.9782 0.0175585 11.0824 -0.00172874 11.1872 0.000121222C11.2921 0.00197118 11.3955 0.0249204 11.4913 0.0676005C11.587 0.110281 11.6733 0.171817 11.7447 0.248538L17.9918 6.49563Z" fill="white"/>
</svg>
