<svg width="31" height="24" viewBox="0 0 31 24" fill="none" xmlns="http://www.w3.org/2000/svg">
<path d="M28.4541 0L31 2.23602C29.3693 3.66046 28.0381 5.0352 27.0064 6.36025C26.0081 7.65217 25.3757 8.6294 25.1095 9.29193C24.8433 9.95445 24.5937 10.7495 24.3607 11.677L24.5604 11.9752C26.7901 11.9752 28.4208 12.4555 29.4525 13.4161C30.4842 14.3768 31 15.8675 31 17.8882C31 19.4451 30.4342 20.853 29.3027 22.1118C28.2045 23.3706 26.8234 24 25.1594 24C23.2625 24 21.6817 23.47 20.4171 22.4099C19.1524 21.3499 18.5201 19.6439 18.5201 17.2919C18.5201 14.1781 19.4852 10.9648 21.4155 7.65217C23.379 4.30642 25.7252 1.75569 28.4541 0ZM9.93398 0L12.4799 2.23602C10.8492 3.66046 9.53462 5.01863 8.53623 6.31056C7.53784 7.60248 6.88889 8.59627 6.58937 9.29193C6.32313 9.98758 6.07354 10.7826 5.84058 11.677L6.04026 11.9752C8.26999 11.9752 9.9007 12.4555 10.9324 13.4161C11.964 14.3768 12.4799 15.8675 12.4799 17.8882C12.4799 19.4451 11.9141 20.853 10.7826 22.1118C9.68438 23.3706 8.30327 24 6.63929 24C4.74235 24 3.16157 23.47 1.89694 22.4099C0.632313 21.3499 0 19.6439 0 17.2919C0 14.1781 0.96511 10.9648 2.89533 7.65217C4.85883 4.30642 7.20505 1.75569 9.93398 0Z" fill="white"/>
</svg>
