<svg preserveAspectRatio="none" width="100%" height="100%" overflow="visible" style="display: block;" viewBox="0 0 171.247 240.52" fill="none" xmlns="http://www.w3.org/2000/svg">
<path id="Vector" d="M72.0855 240.52C65.0528 240.52 57.3168 239.934 48.8775 238.762C40.4382 237.589 31.9989 235.714 23.5597 233.135C15.1204 230.557 7.26716 227.275 0 223.29L13.0106 165.973C21.4499 173.943 30.8268 179.569 41.1415 182.851C51.6906 186.133 61.0676 187.774 69.2725 187.774C80.7593 187.774 90.3707 185.547 98.1067 181.093C106.077 176.405 112.055 169.723 116.04 161.05C120.025 152.142 122.018 141.358 122.018 128.699V96.3485H118.853C118.384 112.758 115.689 126.238 110.766 136.787C106.077 147.101 99.6305 154.72 91.4256 159.643C83.2207 164.566 73.7265 167.028 62.943 167.028C49.5808 167.028 38.4456 163.628 29.5375 156.83C20.8638 150.032 14.2999 139.834 9.84583 126.238C5.39176 112.641 3.16471 95.6452 3.16471 75.2503V0H59.7783V60.4816C59.7783 80.4077 61.8881 94.942 66.1077 104.085C70.3274 113.227 77.0085 117.798 86.151 117.798C90.8395 117.798 94.9419 116.626 98.4583 114.282C102.209 111.703 105.257 107.953 107.601 103.03C109.945 97.8723 111.703 91.5428 112.875 84.0412C114.048 76.3052 114.634 67.3971 114.634 57.3168V0H171.247V130.809C171.247 143.468 169.958 155.424 167.379 166.676C164.8 177.694 160.932 187.657 155.775 196.565C150.618 205.708 144.054 213.561 136.083 220.125C128.347 226.689 119.088 231.729 108.304 235.245C97.755 238.762 85.6822 240.52 72.0855 240.52Z" fill="var(--fill-0, white)" fill-opacity="0.02"/>
</svg>
