<svg preserveAspectRatio="none" width="100%" height="100%" overflow="visible" style="display: block;" viewBox="0 0 187.071 232.08" fill="none" xmlns="http://www.w3.org/2000/svg">
<path id="Vector" d="M42.5481 166.324V120.611H85.7994C100.099 120.611 110.766 117.798 117.798 112.172C124.831 106.312 128.347 96.7002 128.347 83.338C128.347 70.679 125.066 61.3021 118.502 55.207C112.172 48.8775 102.444 45.7128 89.3158 45.7128H42.5481V0H92.4805C105.843 0 118.267 1.64098 129.754 4.92292C141.241 7.97045 151.204 12.8934 159.643 19.6917C168.317 26.49 174.998 35.0465 179.686 45.3612C184.609 55.6759 187.071 68.1004 187.071 82.6347C187.071 101.154 182.851 116.626 174.412 129.051C166.207 141.475 154.251 150.852 138.545 157.182C122.838 163.277 103.616 166.324 80.8765 166.324H42.5481ZM0 232.08V0H56.9652V232.08H0Z" fill="var(--fill-0, white)" fill-opacity="0.02"/>
</svg>
