<svg preserveAspectRatio="none" width="100%" height="100%" overflow="visible" style="display: block;" viewBox="0 0 183.906 195.51" fill="none" xmlns="http://www.w3.org/2000/svg">
<path id="Vector" d="M91.4256 195.51C73.6093 195.51 57.7857 191.994 43.9546 184.961C30.1236 177.694 19.34 166.91 11.604 152.61C3.868 138.076 0 119.908 0 98.1067C0 75.3676 3.98521 56.848 11.9556 42.5481C20.1605 28.0138 31.1785 17.3474 45.0095 10.5491C59.075 3.51637 74.8987 0 92.4805 0C110.766 0 126.706 3.63358 140.303 10.9007C154.134 17.9335 164.8 28.717 172.302 43.2514C180.038 57.5513 183.906 75.7192 183.906 97.7551C183.906 120.494 179.804 139.131 171.599 153.665C163.628 167.965 152.61 178.514 138.545 185.313C124.714 192.111 109.007 195.51 91.4256 195.51ZM92.8321 153.665C100.099 153.665 106.194 151.673 111.117 147.688C116.04 143.468 119.791 137.373 122.37 129.402C124.948 121.432 126.238 111.938 126.238 100.92C126.238 88.7298 124.831 78.5323 122.018 70.3274C119.205 61.8881 115.102 55.4415 109.711 50.9874C104.553 46.5333 98.2239 44.3063 90.7223 44.3063C83.6896 44.3063 77.7118 46.4161 72.7889 50.6357C67.8659 54.621 64.1151 60.5988 61.5365 68.5692C58.9578 76.5397 57.6684 86.1511 57.6684 97.4035C57.6684 115.22 60.716 129.051 66.811 138.897C73.1405 148.742 81.8142 153.665 92.8321 153.665Z" fill="var(--fill-0, white)" fill-opacity="0.02"/>
</svg>
