<svg preserveAspectRatio="none" width="100%" height="100%" overflow="visible" style="display: block;" viewBox="0 0 174.06 246.146" fill="none" xmlns="http://www.w3.org/2000/svg">
<path id="Vector" d="M0 246.146V148.039V0H56.9652V46.4161C56.9652 51.339 56.6136 57.9029 55.9103 66.1078C55.4414 74.0782 54.6209 82.6347 53.4488 91.7773C52.5111 100.92 51.4562 109.711 50.2841 118.15C49.3464 126.355 48.5259 133.27 47.8226 138.897H50.9874C53.0972 119.439 56.7308 103.616 61.8881 91.4256C67.0454 79.0011 74.0782 69.9758 82.9863 64.3496C91.8944 58.489 102.678 55.5586 115.337 55.5586C135.263 55.5586 150.032 62.7086 159.643 77.0085C169.255 91.074 174.06 112.407 174.06 141.006V246.146H117.095V143.468C117.095 130.34 115.337 120.729 111.821 114.634C108.304 108.539 102.561 105.491 94.5903 105.491C87.5576 105.491 81.2281 108.187 75.6019 113.579C69.9758 118.736 65.4045 127.058 61.8881 138.545C58.6062 150.032 56.9652 164.918 56.9652 183.203V246.146H0Z" fill="var(--fill-0, white)" fill-opacity="0.02"/>
</svg>
