<svg preserveAspectRatio="none" width="100%" height="100%" overflow="visible" style="display: block;" viewBox="0 0 117.518 92.3333" fill="none" xmlns="http://www.w3.org/2000/svg">
<g id="Group">
<path id="Vector" d="M22.0509 45.151C8.89757 45.151 0 35.9848 0 22.4034C0 10.1818 10.207 0 24.0318 0C39.1745 0 50.3636 12.2216 50.3636 30.8897C50.3636 73.3211 19.4236 90.2936 0 92.3333V73.6652C13.1701 71.2897 27.977 58.0525 28.6401 43.447C27.977 43.7828 25.3497 45.151 22.0509 45.151V45.151Z" fill="var(--fill-0, #16A34A)" fill-opacity="0.1"/>
<path id="Vector_2" d="M89.2052 45.151C76.0435 45.151 67.1543 35.9848 67.1543 22.4034C67.1543 10.1818 77.3613 0 91.1861 0C106.329 0 117.518 12.2216 117.518 30.8897C117.518 73.3211 86.5779 90.2936 67.1543 92.3333V73.6652C80.3244 71.2897 95.1313 58.0525 95.7944 43.447C95.1313 43.7828 92.504 45.151 89.2052 45.151V45.151Z" fill="var(--fill-0, #16A34A)" fill-opacity="0.1"/>
</g>
</svg>
