<svg preserveAspectRatio="none" width="100%" height="100%" overflow="visible" style="display: block;" viewBox="0 0 123.667 32" fill="none" xmlns="http://www.w3.org/2000/svg">
<g id="Group 143725945">
<path id="Vector" d="M26.4504 12.2957C26.4504 14.9049 24.3476 17.0197 21.7532 17.0197H8.27079C7.55429 17.0197 6.97356 16.439 6.97356 15.7225V8.87081C6.97356 8.1544 7.55429 7.57359 8.27079 7.57359H21.7532C24.3476 7.57359 26.4504 9.68849 26.4504 12.2976V12.2957ZM30.3535 3.93126C28.268 1.83383 25.3864 0.535093 22.2042 0.535093H1.29723C0.580813 0.535093 0 1.11586 0 1.83236V28.1426C0 29.2422 1.28227 29.8431 2.12728 29.1394L8.27425 24.0213C8.5074 23.8272 8.80109 23.721 9.10439 23.721H22.2042C28.5687 23.721 33.7304 18.5298 33.7304 12.1271C33.7304 8.92668 32.439 6.02869 30.3535 3.93126Z" fill="var(--fill-0, #656565)"/>
<path id="Vector_2" d="M106.999 0C97.7935 0 90.3301 7.16256 90.3301 16C90.3301 24.8374 97.7935 32 106.999 32C116.205 32 123.667 24.8374 123.667 16C123.667 7.16256 116.205 0 106.999 0ZM106.999 24.6591C102.502 24.6591 98.8555 20.7822 98.8555 16C98.8555 11.2178 102.5 7.34097 106.999 7.34097C111.497 7.34097 115.143 11.2178 115.143 16C115.143 20.7822 111.497 24.6591 106.999 24.6591Z" fill="var(--fill-0, #656565)"/>
<path id="Vector_3" d="M57.9102 10.366C59.4864 12.1047 60.2771 14.4905 60.2771 17.5276V29.6115C60.2771 30.328 59.6964 30.9088 58.9799 30.9088H54.3695C53.6531 30.9088 53.0723 30.328 53.0723 29.6115V19.2722C53.0723 17.7409 52.6771 16.5487 51.8889 15.7015C51.0986 14.8545 50.0385 14.4299 48.7047 14.4299C47.3709 14.4299 46.3108 14.8545 45.5205 15.7015C44.7303 16.5506 44.3371 17.7409 44.3371 19.2722V29.6115C44.3371 30.328 43.7563 30.9088 43.0399 30.9088H38.389C37.6726 30.9088 37.0918 30.328 37.0918 29.6115V1.83227C37.0918 1.11586 37.6726 0.535095 38.389 0.535095H43.0399C43.7563 0.535095 44.3371 1.11586 44.3371 1.83236V6.77866C44.3371 7.77423 45.4262 8.41428 46.3659 8.08548C47.0627 7.84169 47.6737 7.70055 48.1534 7.61433C48.9745 7.46506 52.9336 6.88935 56.1543 8.91501C57.1323 9.53075 57.7417 10.181 57.9102 10.366Z" fill="var(--fill-0, #656565)"/>
<path id="Vector_4" d="M86.7495 15.7228V14.2907C86.7495 13.5743 86.1692 12.9935 85.4522 12.9935H74.6396C72.3748 12.9935 70.5399 11.148 70.5399 8.87039V1.29722C70.5399 0.580783 69.9591 0 69.2427 0H63.6879C62.9714 0 62.3906 0.580783 62.3906 1.29722V10.0664C62.3906 17.2426 68.1749 21.4568 75.3103 21.4568H76.7713C77.4877 21.4568 78.0684 22.0375 78.0684 22.754V30.7009C78.0684 31.4173 78.653 32.0083 79.3613 31.9019C83.5436 31.2741 86.7495 27.6466 86.7495 23.2673V15.7208V15.7228Z" fill="var(--fill-0, #656565)"/>
<path id="Vector_5" fill-rule="evenodd" clip-rule="evenodd" d="M85.4531 0.535095C86.1701 0.535095 86.7504 1.11584 86.7504 1.83234V6.09639C86.7504 7.25265 85.3519 7.83112 84.5356 7.01275L80.2789 2.74878C79.4634 1.93119 80.042 0.535095 81.1974 0.535095H85.4531Z" fill="var(--fill-0, #656565)"/>
</g>
</svg>
