<svg preserveAspectRatio="none" width="100%" height="100%" overflow="visible" style="display: block;" viewBox="0 0 44.4209 6.80656" fill="none" xmlns="http://www.w3.org/2000/svg">
<g id="Group">
<path id="Vector" d="M3.04444 6.80656C4.72584 6.80656 6.08887 5.44433 6.08887 3.76394C6.08887 2.08354 4.72584 0.721313 3.04444 0.721313C1.36304 0.721313 5.9414e-07 2.08354 5.9414e-07 3.76394C5.9414e-07 5.44433 1.36304 6.80656 3.04444 6.80656Z" fill="var(--fill-0, white)"/>
<path id="Vector_2" d="M12.6245 6.66227C14.3059 6.66227 15.669 5.30005 15.669 3.61965C15.669 1.93926 14.3059 0.577026 12.6245 0.577026C10.9431 0.577026 9.58008 1.93926 9.58008 3.61965C9.58008 5.30005 10.9431 6.66227 12.6245 6.66227Z" fill="var(--fill-0, white)"/>
<path id="Vector_3" d="M22.3472 6.51805C24.0286 6.51805 25.3916 5.15582 25.3916 3.47542C25.3916 1.79503 24.0286 0.4328 22.3472 0.4328C20.6658 0.4328 19.3027 1.79503 19.3027 3.47542C19.3027 5.15582 20.6658 6.51805 22.3472 6.51805Z" fill="var(--fill-0, white)"/>
<path id="Vector_4" d="M31.9409 6.37376C33.6223 6.37376 34.9854 5.01153 34.9854 3.33114C34.9854 1.65074 33.6223 0.288513 31.9409 0.288513C30.2595 0.288513 28.8965 1.65074 28.8965 3.33114C28.8965 5.01153 30.2595 6.37376 31.9409 6.37376Z" fill="var(--fill-0, white)"/>
<path id="Vector_5" d="M41.3765 6.08525C43.0579 6.08525 44.4209 4.72302 44.4209 3.04262C44.4209 1.36223 43.0579 0 41.3765 0C39.6951 0 38.332 1.36223 38.332 3.04262C38.332 4.72302 39.6951 6.08525 41.3765 6.08525Z" fill="var(--fill-0, white)"/>
</g>
</svg>
