<svg preserveAspectRatio="none" width="100%" height="100%" overflow="visible" style="display: block;" viewBox="0 0 38.6591 38.6361" fill="none" xmlns="http://www.w3.org/2000/svg">
<g id="Group">
<path id="Vector" d="M19.3296 38.6361C30.005 38.6361 38.6591 29.9871 38.6591 19.318C38.6591 8.64898 30.005 0 19.3296 0C8.65414 0 0 8.64898 0 19.318C0 29.9871 8.65414 38.6361 19.3296 38.6361Z" fill="var(--fill-0, white)"/>
<g id="Group_2">
<g id="Group_3">
<path id="Vector_2" d="M23.8193 16.6033L23.7275 10.4787C23.6881 8.49838 22.1134 6.87215 20.1319 6.78035C17.9535 6.67543 16.1426 8.45904 16.1951 10.6492L16.2345 12.5508C16.2476 13.2197 15.6964 13.7574 15.0403 13.7312C14.4367 13.7049 13.9511 13.2066 13.938 12.6033L13.9118 10.7935C13.833 7.29182 16.6413 4.40658 20.2631 4.55084C23.255 4.66887 25.9977 7.30494 26.0633 10.5049L26.142 16.6951L23.8193 16.6033Z" fill="var(--fill-0, #001A0A)"/>
<path id="Vector_3" d="M26.1285 16.9836C26.1154 16.9836 26.1154 16.9836 26.1285 16.9836L23.8059 16.8918C23.6484 16.8918 23.5303 16.7607 23.5303 16.6033L23.4384 10.4787C23.3991 8.65575 21.9424 7.16067 20.1184 7.06887C19.1473 7.02952 18.2288 7.37051 17.5333 8.05248C16.8378 8.73444 16.4572 9.66559 16.4835 10.6361L16.5228 12.5377C16.5359 12.9312 16.3785 13.3246 16.0898 13.6C15.8011 13.8754 15.4205 14.0328 15.0268 14.0066C14.2657 13.9803 13.6621 13.3508 13.649 12.5902L13.6227 10.7803C13.5834 8.98363 14.2526 7.29182 15.5255 6.04592C16.7853 4.81313 18.465 4.17051 20.2759 4.2492C20.289 4.2492 20.3021 4.2492 20.3152 4.2492C23.5172 4.40657 26.2729 7.25248 26.3516 10.4787L26.4304 16.6689C26.4304 16.7476 26.4041 16.8262 26.3385 16.8787C26.2729 16.9574 26.1942 16.9836 26.1285 16.9836ZM24.0945 16.3148L25.8267 16.3803L25.748 10.4918C25.6824 7.541 23.1497 4.94428 20.2234 4.82625C20.2103 4.82625 20.1971 4.82625 20.184 4.82625C18.5568 4.77379 17.0346 5.35084 15.9061 6.46559C14.7513 7.59346 14.1345 9.12789 14.1739 10.7672L14.2001 12.5771C14.2001 13.0361 14.5676 13.4033 15.0268 13.4295C15.2631 13.4426 15.4993 13.3508 15.6699 13.1803C15.8405 13.0099 15.9323 12.7869 15.9323 12.5508L15.8929 10.6492C15.8667 9.52133 16.3129 8.4328 17.1265 7.64592C17.9401 6.84592 19.003 6.43936 20.1447 6.49182C22.2705 6.58362 23.9633 8.341 24.0158 10.4656L24.0945 16.3148Z" fill="var(--fill-0, white)"/>
</g>
<path id="Vector_4" d="M21.2467 33.4426L18.6615 33.5475C15.0791 33.4557 11.9165 29.1803 12.2577 24.1574L12.7957 16.118L28.0179 16C29.3695 16 30.4981 17.1934 30.4062 18.5443L29.9338 25.3377C29.632 29.9016 25.8396 33.4426 21.2467 33.4426Z" fill="var(--fill-0, #001A0A)"/>
<g id="Group_4">
<path id="Vector_5" d="M18.7524 33.3246C13.7134 33.3246 9.7241 29.0623 10.0653 24.0262L10.5902 16.223H26.6916C27.4265 16.223 28.017 16.8525 27.9645 17.5869L27.4527 25.1935C27.1378 29.7705 23.3322 33.3246 18.7524 33.3246Z" fill="var(--fill-0, #001A0A)"/>
<path id="Vector_6" d="M18.7531 33.6131C16.2336 33.6131 13.8978 32.6033 12.1787 30.7541C10.4597 28.9181 9.60668 26.5181 9.77728 24L10.3022 16.1967C10.3153 16.0394 10.4334 15.9213 10.5909 15.9213H26.6923C27.1253 15.9213 27.5452 16.1049 27.8339 16.4197C28.1358 16.7344 28.2801 17.1672 28.2539 17.6L27.7421 25.2066C27.414 29.9279 23.4772 33.6131 18.7531 33.6131ZM10.8665 16.5246L10.3547 24.0525C10.1972 26.4 10.9977 28.6426 12.5986 30.3738C14.2127 32.0918 16.3911 33.0492 18.7531 33.0492C23.1623 33.0492 26.8629 29.6 27.1516 25.1935L27.6633 17.5869C27.6765 17.3115 27.5846 17.0492 27.4009 16.8394C27.2172 16.6426 26.9547 16.5246 26.6792 16.5246H10.8665Z" fill="var(--fill-0, white)"/>
</g>
<g id="Group_5">
<path id="Vector_7" d="M18.5578 28.3934C18.151 28.3934 17.8229 28.0525 17.8491 27.6328L18.2297 21.5738C18.2559 21.1934 18.5709 20.9049 18.9383 20.9049C19.3451 20.9049 19.6732 21.2459 19.6469 21.6656L19.2664 27.7246C19.2401 28.0918 18.9252 28.3934 18.5578 28.3934Z" fill="var(--fill-0, white)"/>
<path id="Vector_8" d="M18.8062 24.7476C20.2556 24.7476 21.4307 23.5732 21.4307 22.1246C21.4307 20.676 20.2556 19.5016 18.8062 19.5016C17.3567 19.5016 16.1816 20.676 16.1816 22.1246C16.1816 23.5732 17.3567 24.7476 18.8062 24.7476Z" fill="var(--fill-0, white)"/>
</g>
</g>
</g>
</svg>
