<svg preserveAspectRatio="none" width="100%" height="100%" overflow="visible" style="display: block;" viewBox="0 0 64.3007 63.082" fill="none" xmlns="http://www.w3.org/2000/svg">
<g id="Group">
<path id="Vector" d="M12.0859 12.4066H1.31226C0.590517 12.4066 1.35303e-06 11.8164 1.35303e-06 11.0951V1.31148C1.35303e-06 0.590164 0.590517 0 1.31226 0H12.0859C12.8076 0 13.3981 0.590164 13.3981 1.31148V11.0951C13.385 11.8164 12.8076 12.4066 12.0859 12.4066Z" fill="var(--fill-0, white)"/>
<path id="Vector_2" d="M29.0662 12.4066H18.1482C17.4265 12.4066 16.8359 11.8164 16.8359 11.0951V1.31148C16.8359 0.590164 17.4265 0 18.1482 0H29.0662C29.7879 0 30.3784 0.590164 30.3784 1.31148V11.0951C30.3784 11.8164 29.7879 12.4066 29.0662 12.4066Z" fill="var(--fill-0, white)"/>
<path id="Vector_3" d="M45.9553 12.5639H35.326C34.6042 12.5639 34.0137 11.9738 34.0137 11.2524V1.46885C34.0137 0.747534 34.6042 0.15737 35.326 0.15737H45.9553C46.677 0.15737 47.2675 0.747534 47.2675 1.46885V11.2524C47.2675 11.9738 46.677 12.5639 45.9553 12.5639Z" fill="var(--fill-0, white)"/>
<path id="Vector_4" d="M62.6466 12.5639H52.0173C51.2956 12.5639 50.7051 11.9737 50.7051 11.2524V1.46882C50.7051 0.747513 51.2956 0.157349 52.0173 0.157349H62.6466C63.3684 0.157349 63.9589 0.747513 63.9589 1.46882V11.2524C63.9589 11.9737 63.3684 12.5639 62.6466 12.5639Z" fill="var(--fill-0, white)"/>
<path id="Vector_5" d="M12.0859 29.2459H1.31226C0.590516 29.2459 0 28.6557 0 27.9344V18.1508C0 17.4295 0.590516 16.8393 1.31226 16.8393H12.0859C12.8076 16.8393 13.3981 17.4295 13.3981 18.1508V27.9344C13.385 28.6557 12.8076 29.2459 12.0859 29.2459Z" fill="var(--fill-0, white)"/>
<path id="Vector_6" d="M29.0662 29.2459H18.1482C17.4265 29.2459 16.8359 28.6557 16.8359 27.9344V18.1508C16.8359 17.4295 17.4265 16.8394 18.1482 16.8394H29.0662C29.7879 16.8394 30.3784 17.4295 30.3784 18.1508V27.9344C30.3784 28.6557 29.7879 29.2459 29.0662 29.2459Z" fill="var(--fill-0, white)"/>
<path id="Vector_7" d="M45.9553 29.4033H35.326C34.6042 29.4033 34.0137 28.8131 34.0137 28.0918V18.3213C34.0137 17.6 34.6042 17.0098 35.326 17.0098H45.9553C46.677 17.0098 47.2675 17.6 47.2675 18.3213V28.1049C47.2675 28.8131 46.677 29.4033 45.9553 29.4033Z" fill="var(--fill-0, white)"/>
<path id="Vector_8" d="M62.6466 29.4033H52.0173C51.2956 29.4033 50.7051 28.8131 50.7051 28.0918V18.3213C50.7051 17.6 51.2956 17.0098 52.0173 17.0098H62.6466C63.3684 17.0098 63.9589 17.6 63.9589 18.3213V28.1049C63.9589 28.8131 63.3684 29.4033 62.6466 29.4033Z" fill="var(--fill-0, white)"/>
<path id="Vector_9" d="M12.4277 46.0853H1.65406C0.932314 46.0853 0.341798 45.4951 0.341798 44.7738V34.9902C0.341798 34.2689 0.932314 33.6787 1.65406 33.6787H12.4277C13.1494 33.6787 13.74 34.2689 13.74 34.9902V44.7738C13.7268 45.4951 13.1494 46.0853 12.4277 46.0853Z" fill="var(--fill-0, white)"/>
<path id="Vector_10" d="M29.1326 46.0853H18.2146C17.4929 46.0853 16.9023 45.4951 16.9023 44.7738V34.9902C16.9023 34.2689 17.4929 33.6787 18.2146 33.6787H29.1326C29.8543 33.6787 30.4448 34.2689 30.4448 34.9902V44.7738C30.4317 45.4951 29.8543 46.0853 29.1326 46.0853Z" fill="var(--fill-0, white)"/>
<path id="Vector_11" d="M46.297 46.2426H35.6677C34.946 46.2426 34.3555 45.6525 34.3555 44.9311V35.1475C34.3555 34.4262 34.946 33.8361 35.6677 33.8361H46.297C47.0188 33.8361 47.6093 34.4262 47.6093 35.1475V44.9443C47.6093 45.6656 47.0188 46.2426 46.297 46.2426Z" fill="var(--fill-0, white)"/>
<path id="Vector_12" d="M62.9884 46.2426H52.3591C51.6373 46.2426 51.0468 45.6525 51.0468 44.9311V35.1475C51.0468 34.4262 51.6373 33.8361 52.3591 33.8361H62.9884C63.7101 33.8361 64.3006 34.4262 64.3006 35.1475V44.9443C64.2875 45.6656 63.7101 46.2426 62.9884 46.2426Z" fill="var(--fill-0, white)"/>
<path id="Vector_13" d="M12.4277 62.9246H1.65406C0.932314 62.9246 0.341798 62.3344 0.341798 61.6131V51.8295C0.341798 51.1082 0.932314 50.518 1.65406 50.518H12.4277C13.1494 50.518 13.74 51.1082 13.74 51.8295V61.6131C13.7268 62.3344 13.1494 62.9246 12.4277 62.9246Z" fill="var(--fill-0, white)"/>
<path id="Vector_14" d="M29.4217 62.9246H18.5037C17.7819 62.9246 17.1914 62.3344 17.1914 61.6131V51.8295C17.1914 51.1082 17.7819 50.518 18.5037 50.518H29.4217C30.1434 50.518 30.7339 51.1082 30.7339 51.8295V61.6131C30.7208 62.3344 30.1434 62.9246 29.4217 62.9246Z" fill="var(--fill-0, white)"/>
<path id="Vector_15" d="M46.297 63.082H35.6677C34.946 63.082 34.3555 62.4918 34.3555 61.7705V51.9869C34.3555 51.2656 34.946 50.6754 35.6677 50.6754H46.297C47.0188 50.6754 47.6093 51.2656 47.6093 51.9869V61.7705C47.6093 62.5049 47.0188 63.082 46.297 63.082Z" fill="var(--fill-0, white)"/>
<path id="Vector_16" d="M62.9884 63.082H52.3591C51.6373 63.082 51.0468 62.4918 51.0468 61.7705V51.9869C51.0468 51.2656 51.6373 50.6754 52.3591 50.6754H62.9884C63.7101 50.6754 64.3006 51.2656 64.3006 51.9869V61.7705C64.2875 62.5049 63.7101 63.082 62.9884 63.082Z" fill="var(--fill-0, white)"/>
</g>
</svg>
