<svg preserveAspectRatio="none" width="100%" height="100%" overflow="visible" style="display: block;" viewBox="0 0 25.2216 40.3279" fill="none" xmlns="http://www.w3.org/2000/svg">
<g id="Group">
<path id="Vector" d="M23.7916 40.0393H1.28638C0.735227 40.0393 0.289062 39.5934 0.289062 39.0426V3.97376C0.289062 1.94097 1.9425 0.288513 3.9765 0.288513H22.2694C23.7391 0.288513 24.9333 1.48195 24.9333 2.9508V38.8984C24.9333 39.5279 24.4215 40.0393 23.7916 40.0393Z" fill="var(--fill-0, #001A0A)"/>
<path id="Vector_2" d="M23.7912 40.3279H1.28602C0.5774 40.3279 0 39.7508 0 39.0426V3.97378C0 1.78361 1.78468 0 3.97615 0H22.269C23.8962 0 25.2216 1.32459 25.2216 2.95082V38.8984C25.2216 39.6853 24.5786 40.3279 23.7912 40.3279ZM3.97615 0.577052C2.09962 0.577052 0.590516 2.09837 0.590516 3.96067V39.0295C0.590516 39.423 0.905461 39.7377 1.29914 39.7377H23.7912C24.2637 39.7377 24.6442 39.3574 24.6442 38.8852V2.93771C24.6442 1.62623 23.5813 0.563941 22.269 0.563941H3.97615V0.577052Z" fill="var(--fill-0, white)"/>
</g>
</svg>
