<svg preserveAspectRatio="none" width="100%" height="100%" overflow="visible" style="display: block;" viewBox="0 0 12.9914 12.9705" fill="none" xmlns="http://www.w3.org/2000/svg">
<g id="Group">
<path id="Vector" d="M11.3908 12.682H1.60132C0.879578 12.682 0.289062 12.0918 0.289062 11.3705V1.59999C0.289062 0.878677 0.879578 0.288513 1.60132 0.288513H11.3908C12.1125 0.288513 12.703 0.878677 12.703 1.59999V11.3836C12.703 12.0918 12.1125 12.682 11.3908 12.682Z" fill="var(--fill-0, #001A0A)"/>
<path id="Vector_2" d="M11.3904 12.9705H1.60095C0.721735 12.9705 0 12.2492 0 11.3705V1.6C0 0.721313 0.721735 0 1.60095 0H11.3904C12.2696 0 12.9914 0.721313 12.9914 1.6V11.3836C12.9914 12.2623 12.2696 12.9705 11.3904 12.9705ZM1.61408 0.577052C1.04981 0.577052 0.603635 1.03607 0.603635 1.58689V11.3705C0.603635 11.9344 1.06294 12.3803 1.61408 12.3803H11.4035C11.9678 12.3803 12.414 11.9213 12.414 11.3705V1.6C12.414 1.03607 11.9547 0.590164 11.4035 0.590164H1.61408V0.577052Z" fill="var(--fill-0, white)"/>
</g>
</svg>
