<svg preserveAspectRatio="none" width="100%" height="100%" overflow="visible" style="display: block;" viewBox="0 0 134.139 171.595" fill="none" xmlns="http://www.w3.org/2000/svg">
<g id="Group">
<g id="Group_2">
<path id="Vector" d="M133.763 170.034C134.812 167.634 121.44 164.041 110.194 147.123C103.384 136.88 100.759 126.874 98.3841 117.484C92.5052 94.2443 97.3343 89.6935 91.088 78.8738C83.595 65.8902 74.1467 70.8869 63.4781 57.523C50.3292 41.0378 60.1712 27.7525 46.6812 12.9066C39.3194 4.78858 26.2231 -2.42453 14.7146 1.27383C7.7596 3.51645 0.476567 10.0345 0.292851 17.1427C0.109135 24.0017 6.6573 26.2837 11.7882 34.6246C20.9478 49.523 10.0298 58.4542 15.8562 73.5623C23.7691 94.0607 48.6364 89.9296 59.2788 114.349C63.5568 124.185 59.8825 125.68 63.6749 135.071C76.4825 166.769 131.676 174.782 133.763 170.034Z" fill="var(--fill-0, #001A0A)"/>
<path id="Vector_2" d="M128.395 171.595C128.225 171.595 128.067 171.595 127.897 171.595C120.181 171.477 106.704 168.815 93.988 163.097C83.2275 158.257 69.1864 149.484 63.3993 135.189C61.5359 130.585 61.4572 127.831 61.3653 125.156C61.2735 122.244 61.1816 119.49 59.0033 114.467C53.5443 101.916 44.3716 96.9984 35.5138 92.2509C27.2597 87.8312 19.4518 83.6476 15.5938 73.6673C12.9036 66.6902 13.7435 60.9984 14.5571 55.5033C15.5282 48.9591 16.4599 42.7689 11.5389 34.782C9.53115 31.5165 7.31343 29.1951 5.35817 27.1361C2.30061 23.9361 -0.113948 21.405 0.00415482 17.1296C0.200993 9.91645 7.589 3.25415 14.6358 0.998417C26.1443 -2.69994 39.4244 4.47383 46.9042 12.7099C53.7805 20.2902 54.6334 27.346 55.5258 34.8083C56.3787 41.9033 57.258 49.2476 63.7143 57.3394C68.8583 63.7787 73.6087 65.8771 78.2147 67.9099C82.9651 70.0082 87.453 71.9755 91.3504 78.7296C94.6704 84.4738 94.8935 88.4083 95.2216 94.3492C95.5234 99.7263 95.8908 106.415 98.6859 117.405C100.956 126.375 103.528 136.553 110.457 146.966C117.556 157.654 125.43 162.939 130.128 166.1C132.975 168.015 134.537 169.064 134.051 170.166C133.513 171.32 130.784 171.595 128.395 171.595ZM21.184 0.578745C19.0319 0.578745 16.8929 0.880385 14.8064 1.54924C7.95644 3.75252 0.765264 10.1919 0.581548 17.1427C0.476567 21.182 2.81239 23.6345 5.77809 26.7296C7.7596 28.8017 10.0036 31.1623 12.0376 34.4673C17.0635 42.6378 16.1187 48.9328 15.1345 55.582C14.3209 60.9984 13.4942 66.6115 16.1318 73.4443C19.9111 83.2279 27.6272 87.3591 35.7894 91.7263C44.739 96.5263 54.0036 101.484 59.5544 114.218C61.7852 119.346 61.8771 122.271 61.969 125.116C62.0477 127.739 62.1396 130.441 63.9636 134.953C73.9236 159.608 111.139 170.756 127.923 171.005C131.676 171.057 133.264 170.48 133.513 169.916C133.802 169.261 132.122 168.133 129.8 166.572C125.062 163.385 117.136 158.061 109.971 147.28C102.99 136.789 100.405 126.559 98.1217 117.549C95.3265 106.507 94.946 99.7787 94.6442 94.3755C94.3161 88.5132 94.1062 84.6312 90.8518 79.005C87.0462 72.4214 82.847 70.5722 77.9916 68.4214C73.5431 66.4673 68.504 64.2378 63.2681 57.6804C56.7199 49.4705 55.8276 42.0476 54.9615 34.8607C54.0823 27.4902 53.2424 20.5132 46.4843 13.0771C40.4742 6.4935 30.6979 0.578745 21.184 0.578745Z" fill="var(--fill-0, white)"/>
</g>
<path id="Vector_3" d="M124.13 168.893C124.091 168.893 124.051 168.88 124.012 168.867C113.028 164.264 104.236 158.821 97.8849 152.71C92.7409 147.752 89.0797 142.218 86.9669 136.238C84.7623 129.982 84.513 124.067 84.2768 118.349C83.9225 109.785 83.5813 101.693 76.7576 93.5099C71.9547 87.7394 66.9288 85.4574 62.0734 83.2541C56.6538 80.7886 51.5491 78.4673 48.0322 71.4377C45.5914 66.5459 45.539 62.6115 45.4996 58.0476C45.4471 53.5492 45.3946 48.4607 43.1769 40.9722C40.9723 33.5623 37.4423 26.5066 32.6657 20.0017C32.5739 19.8705 32.6001 19.6869 32.7313 19.5951C32.8625 19.5033 33.0463 19.5295 33.1381 19.6607C37.9541 26.2181 41.5235 33.3394 43.7412 40.8148C45.9851 48.382 46.0376 53.523 46.0901 58.0607C46.1426 62.7295 46.182 66.4148 48.5703 71.1886C51.9953 78.0476 56.785 80.2246 62.3359 82.7427C67.0206 84.8673 72.3484 87.2804 77.23 93.1558C84.1718 101.497 84.513 109.68 84.8804 118.349C85.1167 124.028 85.366 129.903 87.5443 136.067C92.1766 149.221 104.525 160.093 124.261 168.356C124.406 168.421 124.484 168.592 124.419 168.736C124.353 168.828 124.248 168.893 124.13 168.893Z" fill="var(--fill-0, white)"/>
</g>
</svg>
