<svg preserveAspectRatio="none" width="100%" height="100%" overflow="visible" style="display: block;" viewBox="0 0 58.8416 58.8179" fill="none" xmlns="http://www.w3.org/2000/svg">
<g id="Group">
<path id="Vector" d="M18.6135 56.7983L24.0594 58.3589L27.0382 52.9294C28.3636 53.0606 29.6889 53.0868 30.9881 53.0081L33.7701 58.5294L39.2684 57.1655L39.1241 50.9753C40.3313 50.4376 41.473 49.795 42.5753 49.0606L47.7587 52.4573L51.8398 48.5228L48.6248 43.2376C49.3859 42.1753 50.0683 41.0474 50.6588 39.854L56.8395 40.2081L58.4011 34.7655L52.9684 31.7884C53.0996 30.4638 53.1259 29.1392 53.0471 27.8409L58.5717 25.0606L57.207 19.5655L51.0131 19.7097C50.4751 18.5032 49.8321 17.3622 49.0972 16.2606L52.496 11.0802L48.5592 7.00154L43.2708 10.2147C42.2079 9.454 41.0793 8.77203 39.8852 8.18187L40.2395 2.00482L34.7936 0.444164L31.8148 5.87367C30.4894 5.74253 29.164 5.7163 27.8649 5.79499L25.0829 0.273682L19.5846 1.6376L19.7289 7.82778C18.5216 8.36548 17.38 9.0081 16.2777 9.74253L11.0943 6.3458L7.01313 10.2802L10.2282 15.5655C9.46705 16.6278 8.78468 17.7556 8.19416 18.9491L2.01343 18.595L0.451843 24.0376L5.88459 27.0147C5.75336 28.3392 5.72712 29.6638 5.80585 30.9622L0.28125 33.7425L1.646 39.2376L7.83985 39.0934C8.37788 40.2999 9.02089 41.4409 9.75575 42.5425L6.357 47.7228L10.2938 51.8015L15.5822 48.5884C16.6451 49.3491 17.7736 50.031 18.9678 50.6212L18.6135 56.7983ZM15.3985 25.3753C17.6162 17.6376 25.6997 13.1524 33.4551 15.3819C41.1974 17.5983 45.6854 25.6769 43.4545 33.4278C41.2368 41.1655 33.1533 45.6507 25.3979 43.4212C17.6555 41.1917 13.1807 33.113 15.3985 25.3753Z" fill="var(--fill-0, #001A0A)"/>
<path id="Vector_2" d="M33.771 58.8179C33.666 58.8179 33.561 58.7523 33.5085 58.6605L30.8184 53.3097C29.6373 53.3753 28.4169 53.349 27.2097 53.2441L24.3227 58.5031C24.2571 58.6212 24.1127 58.6867 23.9815 58.6474L18.5356 57.0867C18.4044 57.0474 18.3126 56.9294 18.3257 56.7851L18.6669 50.8048C17.5777 50.2539 16.541 49.6376 15.5699 48.9556L10.4521 52.0638C10.334 52.1294 10.1897 52.1163 10.0978 52.0113L6.16105 47.9326C6.06919 47.8408 6.05607 47.6835 6.12168 47.5654L9.41545 42.5556C8.75932 41.5457 8.1688 40.4966 7.67015 39.3949L1.67313 39.5261C1.52878 39.5261 1.4238 39.4343 1.38443 39.3031L0.00656129 33.8081C-0.0196839 33.6769 0.0328064 33.5458 0.164032 33.4802L5.50492 30.7917C5.43931 29.6113 5.46555 28.3917 5.57053 27.1851L0.308381 24.2999C0.190277 24.2343 0.137787 24.09 0.164032 23.9589L1.72562 18.5163C1.76499 18.3851 1.86997 18.2933 2.02744 18.3064L8.02446 18.6474C8.5756 17.5589 9.19237 16.5228 9.87474 15.5523L6.76469 10.4376C6.69908 10.3195 6.7122 10.1753 6.81718 10.0835L10.8983 6.14904C10.9902 6.05723 11.1476 6.04413 11.2657 6.1097L16.2786 9.4015C17.289 8.74576 18.3388 8.15559 19.4411 7.65723L19.3099 1.6638C19.3099 1.53265 19.4017 1.41461 19.533 1.37526L25.0313 0.0113403C25.1625 -0.028004 25.2938 0.0375634 25.3594 0.168711L28.0495 5.51954C29.2305 5.45396 30.4509 5.48019 31.6582 5.58511L34.5452 0.326082C34.6108 0.208049 34.7551 0.155593 34.8864 0.181822L40.3322 1.74248C40.4635 1.78183 40.5553 1.89986 40.5422 2.04413L40.201 8.02445C41.2902 8.57527 42.3269 9.19166 43.2979 9.87363L48.4158 6.76544C48.5339 6.69986 48.6782 6.71297 48.7701 6.81788L52.7068 10.8966C52.7987 10.9884 52.8118 11.1458 52.7462 11.2638L49.4524 16.2736C50.1086 17.2835 50.6991 18.3326 51.1977 19.4343L57.1948 19.3031C57.326 19.3031 57.4441 19.3949 57.4703 19.5261L58.8351 25.0212C58.8613 25.1523 58.8088 25.2835 58.6776 25.349L53.3236 28.0376C53.3892 29.2179 53.363 30.4376 53.258 31.6441L58.5201 34.5294C58.6382 34.5949 58.6907 34.7392 58.6645 34.8703L57.1029 40.313C57.0635 40.4441 56.9454 40.5359 56.8011 40.5228L50.8172 40.1818C50.266 41.2703 49.6493 42.3064 48.9669 43.2769L52.077 48.3917C52.1426 48.5097 52.1294 48.654 52.0245 48.7458L47.9433 52.6802C47.8515 52.772 47.694 52.7851 47.5759 52.7195L42.5631 49.4277C41.5526 50.0835 40.5028 50.6736 39.4005 51.172L39.5318 57.1654C39.5318 57.2966 39.4399 57.4146 39.3087 57.454L33.8103 58.8179C33.8234 58.8179 33.7972 58.8179 33.771 58.8179ZM30.989 52.7064C31.0939 52.7064 31.1989 52.772 31.2514 52.8638L33.9284 58.1753L38.9806 56.9162L38.8494 50.9622C38.8494 50.8441 38.915 50.7392 39.02 50.6867C40.201 50.149 41.3558 49.5195 42.4319 48.7982C42.5237 48.7326 42.6549 48.7326 42.7468 48.7982L47.7334 52.0638L51.4733 48.4441L48.3764 43.3556C48.3108 43.2507 48.3239 43.1326 48.3895 43.0408C49.1375 42.0048 49.8067 40.8769 50.3973 39.6966C50.4498 39.5917 50.5547 39.5261 50.6728 39.5392L56.6174 39.8802L58.0477 34.8835L52.8249 32.0245C52.72 31.972 52.6675 31.8539 52.6806 31.7359C52.8118 30.4244 52.8381 29.113 52.7593 27.8408C52.7462 27.7228 52.8118 27.6179 52.9168 27.5654L58.2314 24.89L56.9717 19.8408L51.014 19.972C50.8959 19.972 50.7909 19.9064 50.7385 19.8015C50.2004 18.6212 49.5705 17.4671 48.8488 16.3917C48.7832 16.2999 48.7832 16.1687 48.8488 16.0769L52.1163 11.0933L48.4945 7.3556L43.4292 10.4638C43.3242 10.5294 43.2061 10.5163 43.1142 10.4507C42.0775 9.70314 40.949 9.03428 39.768 8.44412C39.663 8.39166 39.5974 8.28674 39.6105 8.16871L39.9517 2.22772L34.952 0.798225L32.0913 6.01789C32.0388 6.12281 31.9207 6.17526 31.8026 6.16215C30.4903 6.031 29.1781 6.00477 27.9052 6.08346C27.7871 6.09658 27.6821 6.03101 27.6296 5.92609L24.9526 0.614616L19.9004 1.87363L20.0316 7.82773C20.0316 7.94576 19.966 8.05068 19.861 8.10314C18.68 8.64084 17.5383 9.27035 16.4492 9.99166C16.3573 10.0572 16.2261 10.0572 16.1342 9.99166L11.1476 6.72609L7.4077 10.3458L10.5046 15.4343C10.5702 15.5392 10.5571 15.6572 10.4915 15.749C9.74351 16.7851 9.07426 17.913 8.48375 19.0933C8.43126 19.1982 8.32628 19.2638 8.20817 19.2507L2.26364 18.9097L0.833284 23.9064L6.05607 26.7654C6.16105 26.8179 6.21354 26.9359 6.20042 27.054C6.06919 28.3654 6.04295 29.6769 6.12168 30.949C6.13481 31.0671 6.06919 31.172 5.96421 31.2245L0.649568 33.8998L1.90934 38.949L7.86699 38.8179C7.98509 38.8179 8.09007 38.8835 8.14256 38.9884C8.68059 40.1687 9.31047 41.3097 10.0322 42.3982C10.0978 42.49 10.0978 42.6212 10.0322 42.713L6.76469 47.6966L10.3865 51.4343L15.4781 48.3392C15.5831 48.2736 15.7012 48.2867 15.793 48.3523C16.8297 49.0999 17.9582 49.7687 19.1393 50.3589C19.2443 50.4113 19.3099 50.5163 19.2968 50.6343L18.9556 56.5753L23.9553 58.0048L26.816 52.7851C26.8685 52.6802 26.9735 52.6277 27.1047 52.6408C28.4169 52.772 29.7292 52.7982 31.0021 52.7195C30.9758 52.7195 30.989 52.7064 30.989 52.7064ZM29.4274 44.2736C28.0758 44.2736 26.6979 44.09 25.3331 43.6966C21.5145 42.5949 18.3388 40.0769 16.4229 36.6015C14.4939 33.1261 14.0346 29.113 15.1369 25.2835C16.2392 21.4671 18.7587 18.2933 22.2362 16.3785C25.7137 14.4507 29.7292 13.9917 33.561 15.0933C37.3797 16.1949 40.5553 18.713 42.4712 22.1884C44.4002 25.6638 44.8595 29.6769 43.7572 33.5064C41.8676 40.0244 35.8968 44.2736 29.4274 44.2736ZM15.3993 25.3753L15.6749 25.454C14.6251 29.1261 15.0582 32.9818 16.9084 36.3261C18.7587 39.6703 21.8032 42.0835 25.4775 43.1326C26.7897 43.513 28.1151 43.6835 29.4143 43.6835C35.6344 43.6835 41.3689 39.5917 43.1667 33.3228C44.2165 29.6507 43.7835 25.7949 41.9332 22.4507C40.0829 19.1064 37.0385 16.6933 33.3642 15.6441C29.6898 14.5949 25.8318 15.0277 22.4855 16.8769C19.1393 18.7261 16.7247 21.7687 15.6749 25.4408L15.3993 25.3753Z" fill="var(--fill-0, white)"/>
</g>
</svg>
