<svg preserveAspectRatio="none" width="100%" height="100%" overflow="visible" style="display: block;" viewBox="0 0 95.9654 186.098" fill="none" xmlns="http://www.w3.org/2000/svg">
<path id="Vector" d="M91.8843 186.098H4.08112C1.83716 186.098 0 184.275 0 182.02V4.07869C0 1.83607 1.82404 0 4.08112 0H91.8843C94.1283 0 95.9654 1.82295 95.9654 4.07869V182.02C95.9654 184.262 94.1414 186.098 91.8843 186.098ZM4.08112 0.577049C2.1521 0.577049 0.590516 2.1377 0.590516 4.06557V182.007C0.590516 183.934 2.1521 185.495 4.08112 185.495H91.8843C93.8133 185.495 95.3749 183.934 95.3749 182.007V4.07869C95.3749 2.15082 93.8133 0.590164 91.8843 0.590164H4.08112V0.577049Z" fill="var(--fill-0, white)"/>
</svg>
