<svg preserveAspectRatio="none" width="100%" height="100%" overflow="visible" style="display: block;" viewBox="0 0 63.2731 142.716" fill="none" xmlns="http://www.w3.org/2000/svg">
<g id="Group">
<g id="Group_2">
<path id="Vector" d="M62.7767 141.024C65.1125 137.916 49.6803 132.356 49.8903 121.431C50.074 111.451 63.1047 108.893 62.7242 99.7522C62.3174 89.9686 47.2002 88.0539 47.1871 78.0866C47.1871 70.4014 56.1498 69.2473 56.8846 61.0244C57.7639 51.1489 45.0743 49.8375 40.9407 36.8014C37.0827 24.6309 45.9404 18.7686 39.4841 9.12927C38.6443 7.88336 33.3952 0.381723 25.9679 0.276805C13.8688 0.0931988 -1.76016 19.503 0.549415 36.303C2.47843 50.4408 15.6797 52.1457 16.454 67.1752C17.1101 79.9096 7.79308 82.0342 10.8244 91.9096C14.4069 103.595 28.6448 104.513 31.5712 117.693C33.1065 124.592 29.6815 126.519 32.4898 131.398C38.4212 141.706 60.1915 144.447 62.7767 141.024Z" fill="var(--fill-0, #001A0A)"/>
<path id="Vector_2" d="M57.2262 142.716C56.6619 142.716 56.0714 142.703 55.4415 142.664C48.4341 142.231 36.4663 138.913 32.2277 131.542C30.6661 128.828 30.9679 126.965 31.3222 124.815C31.624 122.978 31.9652 120.893 31.2697 117.759C29.7606 110.952 25.1021 107.411 20.5879 103.975C16.4937 100.854 12.2551 97.6407 10.5229 92.0014C8.9351 86.8211 10.641 83.7653 12.6094 80.2375C14.4072 76.9981 16.4543 73.326 16.1394 67.2014C15.7457 59.4768 12.0976 55.4112 8.2396 51.1096C4.76211 47.2276 1.17965 43.2276 0.234826 36.3555C-1.20866 25.8112 4.25034 15.3194 9.82743 9.01122C14.9715 3.20138 20.8504 -0.077304 25.942 0.00138453C33.3693 0.106303 38.7102 7.51614 39.6944 8.99811C43.2113 14.244 42.2664 18.4801 41.256 22.9522C40.3505 26.9784 39.4188 31.1358 41.1904 36.7358C43.1588 42.9653 47.1218 46.4932 50.5993 49.6014C54.3523 52.9456 57.6067 55.844 57.1343 61.0768C56.7669 65.2735 54.3261 67.6473 51.964 69.9424C49.6282 72.2112 47.4367 74.362 47.4367 78.0997C47.4367 83.0047 51.1504 85.8637 55.0872 88.8801C58.8665 91.7784 62.7639 94.7817 62.9739 99.7391C63.1707 104.408 60.0607 107.319 56.7538 110.415C53.5519 113.418 50.2318 116.526 50.14 121.431C50.0219 127.805 55.3628 132.329 59.2602 135.634C62.0553 138.008 64.0762 139.713 62.9607 141.195C62.2652 142.178 60.205 142.716 57.2262 142.716ZM25.8107 0.565319C20.9816 0.565319 15.1946 3.84401 10.2867 9.37843C4.78836 15.5817 -0.591897 25.903 0.825341 36.2506C1.74392 42.9391 5.2739 46.8735 8.68577 50.6899C12.4388 54.8866 16.3231 59.2145 16.7299 67.1489C17.058 73.444 14.9715 77.1948 13.1212 80.4997C11.2184 83.9227 9.5781 86.8735 11.0872 91.8178C12.7669 97.2866 16.743 100.303 20.9554 103.503C25.5483 106.992 30.2855 110.598 31.8471 117.615C32.5689 120.854 32.2145 123.005 31.8996 124.893C31.5453 127.018 31.2697 128.71 32.7263 131.241C36.8468 138.415 48.5915 141.641 55.4678 142.074C59.0765 142.296 61.7928 141.824 62.5277 140.841C63.3151 139.805 61.3729 138.165 58.9059 136.08C54.9166 132.696 49.4576 128.067 49.5757 121.418C49.6676 116.264 53.0794 113.077 56.3732 109.982C59.5751 106.978 62.5933 104.159 62.4096 99.7522C62.2128 95.0571 58.5909 92.2768 54.7591 89.326C50.888 86.3489 46.8856 83.267 46.8856 78.0866C46.8856 74.0997 49.2739 71.7653 51.5835 69.5096C53.8668 67.2801 56.2289 64.985 56.5832 60.9981C57.0162 56.0538 53.8799 53.2473 50.2318 50.0079C46.6887 46.8473 42.6732 43.2801 40.6524 36.8932C38.8283 31.1358 39.8256 26.7161 40.7049 22.8079C41.7284 18.2702 42.6076 14.3358 39.2351 9.29975C38.2641 7.85712 33.0938 0.670237 25.9551 0.565319C25.9026 0.565319 25.8501 0.565319 25.8107 0.565319Z" fill="var(--fill-0, white)"/>
</g>
<path id="Vector_3" d="M57.8564 139.267C57.8302 139.267 57.8039 139.267 57.7646 139.254C48.4082 136.355 42.5161 132.277 40.2328 127.123C38.5006 123.215 39.4848 120.054 40.5215 116.71C41.5713 113.352 42.6474 109.877 41.0989 105.247C39.4586 100.342 36.506 98.1391 33.6584 96.0145C30.8895 93.9424 28.2781 91.9883 27.1102 87.8047C25.4699 81.8899 28.5406 77.6801 31.5194 73.6145C34.4064 69.6801 37.3852 65.6014 36.2304 59.8834C35.2987 55.267 32.2936 52.5784 29.1049 49.7325C25.6536 46.6506 21.7431 43.162 19.9191 36.6571C18.5543 31.8178 18.6987 26.6506 20.339 21.2735C20.3915 21.1161 20.5489 21.0375 20.7064 21.0768C20.8639 21.1293 20.9426 21.2866 20.9033 21.444C19.3023 26.703 19.1579 31.7653 20.4833 36.4998C22.268 42.8342 25.9423 46.126 29.4985 49.2998C32.7661 52.2112 35.8499 54.9653 36.8078 59.7784C38.002 65.7457 34.9444 69.9293 31.9918 73.9686C28.9605 78.0998 26.0998 82.0079 27.6745 87.6604C28.7899 91.6473 31.3226 93.5489 33.9996 95.5555C36.9259 97.7457 39.9441 100.001 41.6369 105.077C43.251 109.89 42.1356 113.457 41.0595 116.893C40.0491 120.133 39.0911 123.188 40.7446 126.9C42.9623 131.883 48.7362 135.857 57.922 138.703C58.0795 138.756 58.1583 138.913 58.1189 139.07C58.0926 139.188 57.9877 139.267 57.8564 139.267Z" fill="var(--fill-0, white)"/>
</g>
</svg>
