<svg width="17" height="20" viewBox="0 0 17 20" fill="none" xmlns="http://www.w3.org/2000/svg">
<path fill-rule="evenodd" clip-rule="evenodd" d="M0.0293472 7.36166C0.195196 5.35549 1.10917 3.48498 2.58991 2.1213C4.07065 0.757626 6.00993 0.000441081 8.02294 0H8.44101C10.454 0.000441081 12.3933 0.757626 13.874 2.1213C15.3548 3.48498 16.2688 5.35549 16.4346 7.36166C16.6191 9.59651 15.9286 11.8157 14.5088 13.5514L9.87037 19.2233C9.67187 19.4661 9.42191 19.6617 9.13856 19.796C8.85521 19.9303 8.54555 20 8.23198 20C7.9184 20 7.60875 19.9303 7.3254 19.796C7.04205 19.6617 6.79208 19.4661 6.59358 19.2233L1.95516 13.5514C0.535319 11.8157 -0.155137 9.59651 0.0293472 7.36166ZM8.02294 1.45162C6.3745 1.45232 4.78653 2.07257 3.57402 3.18936C2.36151 4.30614 1.61305 5.83786 1.4771 7.48069C1.3235 9.3406 1.89807 11.1875 3.07969 12.632L7.7181 18.3049C7.78046 18.3813 7.859 18.4428 7.94804 18.485C8.03708 18.5272 8.1344 18.5491 8.23294 18.5491C8.33149 18.5491 8.42881 18.5272 8.51785 18.485C8.60689 18.4428 8.68543 18.3813 8.74779 18.3049L13.3862 12.632C14.5671 11.1872 15.141 9.34034 14.9869 7.48069C14.8509 5.83769 14.1023 4.30583 12.8896 3.18903C11.6769 2.07222 10.0887 1.45208 8.44004 1.45162H8.02294Z" fill="#9B9B9B"/>
</svg>
