<svg preserveAspectRatio="none" width="100%" height="100%" overflow="visible" style="display: block;" viewBox="0 0 19.7567 24" fill="none" xmlns="http://www.w3.org/2000/svg">
<g id="Group">
<path id="Vector" fill-rule="evenodd" clip-rule="evenodd" d="M4.36167 10.1614C4.36167 8.69837 4.94283 7.29532 5.97732 6.26084C7.0118 5.22635 8.41485 4.64519 9.87783 4.64519C11.3408 4.64519 12.7439 5.22635 13.7783 6.26084C14.8128 7.29532 15.394 8.69837 15.394 10.1614C15.394 11.6243 14.8128 13.0274 13.7783 14.0619C12.7439 15.0963 11.3408 15.6775 9.87783 15.6775C8.41485 15.6775 7.0118 15.0963 5.97732 14.0619C4.94283 13.0274 4.36167 11.6243 4.36167 10.1614ZM9.87783 6.38713C8.87685 6.38713 7.91686 6.78477 7.20906 7.49258C6.50125 8.20038 6.10361 9.16037 6.10361 10.1614C6.10361 11.1623 6.50125 12.1223 7.20906 12.8301C7.91686 13.5379 8.87685 13.9356 9.87783 13.9356C10.8788 13.9356 11.8388 13.5379 12.5466 12.8301C13.2544 12.1223 13.652 11.1623 13.652 10.1614C13.652 9.16037 13.2544 8.20038 12.5466 7.49258C11.8388 6.78477 10.8788 6.38713 9.87783 6.38713Z" fill="var(--fill-0, white)"/>
<path id="Vector_2" fill-rule="evenodd" clip-rule="evenodd" d="M0.0352167 8.83399C0.234235 6.42659 1.33101 4.18198 3.10789 2.54557C4.88478 0.909151 7.21192 0.000529297 9.62753 0H10.1292C12.5448 0.000529297 14.872 0.909151 16.6489 2.54557C18.4257 4.18198 19.5225 6.42659 19.7215 8.83399C19.9429 11.5158 19.1144 14.1788 17.4105 16.2616L11.8444 23.068C11.6062 23.3593 11.3063 23.594 10.9663 23.7552C10.6262 23.9164 10.2547 24 9.87837 24C9.50208 24 9.1305 23.9164 8.79048 23.7552C8.45046 23.594 8.1505 23.3593 7.9123 23.068L2.3462 16.2616C0.642383 14.1788 -0.186165 11.5158 0.0352167 8.83399ZM9.62753 1.74195C7.6494 1.74278 5.74383 2.48709 4.28882 3.82723C2.83382 5.16737 1.93566 7.00543 1.77252 8.97683C1.5882 11.2087 2.27769 13.425 3.69563 15.1584L9.26172 21.9659C9.33655 22.0575 9.4308 22.1313 9.53765 22.182C9.6445 22.2327 9.76128 22.259 9.87953 22.259C9.99779 22.259 10.1146 22.2327 10.2214 22.182C10.3283 22.1313 10.4225 22.0575 10.4973 21.9659L16.0634 15.1584C17.4806 13.4246 18.1692 11.2084 17.9842 8.97683C17.8211 7.00523 16.9227 5.167 15.4675 3.82683C14.0122 2.48667 12.1064 1.74249 10.1281 1.74195H9.62753Z" fill="var(--fill-0, white)"/>
</g>
</svg>
