<svg preserveAspectRatio="none" width="100%" height="100%" overflow="visible" style="display: block;" viewBox="0 0 26 18.8" fill="none" xmlns="http://www.w3.org/2000/svg">
<g id="Group">
<path id="Vector" d="M7 5.8L13 10L19 5.8" stroke="var(--stroke-0, white)" stroke-width="2" stroke-linecap="round" stroke-linejoin="round"/>
<path id="Vector_2" d="M1 15.4V3.4C1 2.76348 1.25286 2.15303 1.70294 1.70294C2.15303 1.25286 2.76348 1 3.4 1H22.6C23.2365 1 23.847 1.25286 24.2971 1.70294C24.7471 2.15303 25 2.76348 25 3.4V15.4C25 16.0365 24.7471 16.647 24.2971 17.0971C23.847 17.5471 23.2365 17.8 22.6 17.8H3.4C2.76348 17.8 2.15303 17.5471 1.70294 17.0971C1.25286 16.647 1 16.0365 1 15.4Z" stroke="var(--stroke-0, white)" stroke-width="2"/>
</g>
</svg>
