<svg preserveAspectRatio="none" width="100%" height="100%" overflow="visible" style="display: block;" viewBox="0 0 18 24" fill="none" xmlns="http://www.w3.org/2000/svg">
<path id="Vector" d="M3.30144 0.559061L4.67436 0.139858C5.42645 -0.0903771 6.23536 -0.0349534 6.95016 0.295787C7.66495 0.626527 8.23679 1.20999 8.55898 1.9373L9.62014 4.33309C9.89715 4.95867 9.97429 5.65659 9.84073 6.32894C9.70717 7.00129 9.36963 7.61433 8.87544 8.08203L7.11666 9.7457C7.06528 9.79431 7.03273 9.85997 7.02489 9.93082C6.97313 10.405 7.28959 11.3282 8.02017 12.6121C8.54957 13.5448 9.03074 14.2005 9.43896 14.5671C9.72484 14.8239 9.88131 14.8789 9.94836 14.8597L12.313 14.1252C12.9588 13.9247 13.6502 13.9344 14.2903 14.1528C14.9304 14.3713 15.4871 14.7876 15.8824 15.3434L17.3882 17.4645C17.8466 18.1094 18.059 18.9013 17.9859 19.6931C17.9127 20.4849 17.5591 21.2229 16.9906 21.77L15.9471 22.7733C15.3939 23.3051 14.7144 23.6824 13.9749 23.8685C13.2354 24.0545 12.461 24.043 11.7271 23.835C8.48722 22.9166 5.58257 20.141 2.98027 15.5656C0.375623 10.9842 -0.539652 7.0382 0.305036 3.72638C0.494651 2.98152 0.870066 2.29882 1.3951 1.74406C1.92013 1.18929 2.5759 0.781183 3.30144 0.559061ZM3.81202 2.27529C3.3766 2.40822 2.98226 2.65278 2.66699 2.98538C2.35173 3.31799 2.12617 3.72743 2.01206 4.17424C1.30384 6.95938 2.11441 10.4575 4.50965 14.6699C6.90254 18.8762 9.47778 21.3377 12.2036 22.1104C12.6439 22.2351 13.1086 22.2419 13.5522 22.1301C13.9959 22.0183 14.4035 21.7918 14.7353 21.4727L15.7777 20.4694C16.0362 20.2208 16.1971 19.8853 16.2305 19.5252C16.2638 19.1652 16.1673 18.8052 15.9588 18.512L14.453 16.392C14.2733 16.1391 14.0201 15.9496 13.7289 15.8502C13.4377 15.7509 13.1232 15.7465 12.8295 15.8379L10.4589 16.5748C9.0825 16.9904 7.83429 15.8666 6.49314 13.5078C5.58728 11.9194 5.16611 10.6892 5.27199 9.73257C5.32611 9.23573 5.55434 8.77712 5.91315 8.43554L7.67194 6.77187C7.89647 6.55916 8.04977 6.28042 8.11032 5.97477C8.17087 5.66911 8.13565 5.35188 8.00958 5.06759L6.9496 2.6718C6.80313 2.3412 6.54318 2.076 6.21825 1.92568C5.89332 1.77536 5.52562 1.7502 5.18376 1.85489L3.81202 2.27529Z" fill="var(--fill-0, white)"/>
</svg>
